<?xml version="1.0" encoding="utf-8"?>
<!-- Generator: Adobe Illustrator 19.0.1, SVG Export Plug-In . SVG Version: 6.00 Build 0)  -->
<svg version="1.1" id="Layer_1" xmlns="http://www.w3.org/2000/svg" xmlns:xlink="http://www.w3.org/1999/xlink" x="0px" y="0px"
	 viewBox="0 0 25 25" style="enable-background:new 0 0 25 25;" xml:space="preserve">
<path style="fill:#FFFFFF;" d="M23.3,8H1.7C1.31,8,1,7.69,1,7.3V4.7C1,4.31,1.31,4,1.7,4h21.6C23.69,4,24,4.31,24,4.7v2.6
	C24,7.69,23.69,8,23.3,8z"/>
<path style="fill:#FFFFFF;" d="M23.3,15H1.7C1.31,15,1,14.69,1,14.3v-2.6C1,11.31,1.31,11,1.7,11h21.6c0.39,0,0.7,0.31,0.7,0.7v2.6
	C24,14.69,23.69,15,23.3,15z"/>
<path style="fill:#FFFFFF;" d="M23.3,22H1.7C1.31,22,1,21.69,1,21.3v-2.6C1,18.31,1.31,18,1.7,18h21.6c0.39,0,0.7,0.31,0.7,0.7v2.6
	C24,21.69,23.69,22,23.3,22z"/>
</svg>
