<?xml version="1.0" encoding="utf-8"?>
<!-- Generator: Adobe Illustrator 16.0.0, SVG Export Plug-In . SVG Version: 6.00 Build 0)  -->
<!DOCTYPE svg PUBLIC "-//W3C//DTD SVG 1.1//EN" "http://www.w3.org/Graphics/SVG/1.1/DTD/svg11.dtd">
<svg version="1.1" id="Layer_1" xmlns="http://www.w3.org/2000/svg" xmlns:xlink="http://www.w3.org/1999/xlink" x="0px" y="0px"
	 width="612px" height="792px" viewBox="0 0 612 792" enable-background="new 0 0 612 792" xml:space="preserve">
<g>
	<g>
		<path fill="#FFFFFF" d="M455.818,640.555h-299.88c-52.143,0-94.737-42.35-94.737-94.737v-299.88
			c0-52.143,42.35-94.737,94.737-94.737h299.88c52.142,0,94.737,42.35,94.737,94.737v299.88
			C550.555,598.205,508.204,640.555,455.818,640.555z M155.938,175.925c-38.679,0-70.258,31.579-70.258,70.258v299.88
			c0,38.679,31.579,70.258,70.258,70.258h299.88c38.678,0,70.257-31.579,70.257-70.258V245.938
			c0-38.678-31.579-70.257-70.257-70.257h-299.88V175.925z"/>
	</g>
	<g>
		<path fill="#FFFFFF" d="M499.147,561.484H111.384c-6.854,0-12.24-5.385-12.24-12.239s5.386-12.24,12.24-12.24h387.763
			c6.854,0,12.24,5.386,12.24,12.24S505.756,561.484,499.147,561.484z"/>
	</g>
	<g>
		<path fill="#FFFFFF" d="M164.261,302.242c-22.032,0-39.658-17.871-39.658-39.658s17.871-39.658,39.658-39.658
			s39.657,17.871,39.657,39.658S186.048,302.242,164.261,302.242z M164.261,247.406c-8.323,0-15.178,6.854-15.178,15.178
			s6.854,15.178,15.178,15.178s15.178-6.854,15.178-15.178C179.439,254.016,172.584,247.406,164.261,247.406z"/>
	</g>
	<g>
		<path fill="#FFFFFF" d="M484.948,506.16H107.712c-4.651,0-8.813-2.693-10.771-6.609c-2.203-4.162-1.714-9.058,0.979-12.73
			L208.57,332.842c2.203-2.938,5.386-4.896,9.058-5.141s7.1,0.979,9.792,3.672l28.642,29.376l65.116-79.07
			c4.407-5.141,11.995-5.875,17.137-1.713c5.141,4.406,5.875,11.995,1.713,17.136l-73.929,89.597
			c-2.203,2.692-5.386,4.406-9.058,4.406c-3.183,0.245-6.854-1.224-9.303-3.672l-27.907-28.642L131.457,481.68h332.684
			L343.698,263.808c-3.182-5.875-1.224-13.464,4.896-16.646c5.875-3.183,13.464-1.224,16.646,4.896L495.72,488.045
			c2.203,3.917,1.958,8.323-0.245,12.24C493.272,504.201,489.355,506.16,484.948,506.16z"/>
	</g>
</g>
</svg>
