<?xml version="1.0" encoding="utf-8"?>
<!-- Generator: Adobe Illustrator 19.0.1, SVG Export Plug-In . SVG Version: 6.00 Build 0)  -->
<svg version="1.1" id="Layer_1" xmlns="http://www.w3.org/2000/svg" xmlns:xlink="http://www.w3.org/1999/xlink" x="0px" y="0px"
	 viewBox="0 0 25 25" style="enable-background:new 0 0 25 25;" xml:space="preserve">
<g>
	<g>
		<path style="fill:#7B7B7C;" d="M18.62,22.49H6.37c-2.13,0-3.87-1.73-3.87-3.87V6.37c0-2.13,1.73-3.87,3.87-3.87h12.25
			c2.13,0,3.87,1.73,3.87,3.87v12.25C22.49,20.76,20.76,22.49,18.62,22.49z M6.37,3.51c-1.58,0-2.87,1.29-2.87,2.87v12.25
			c0,1.58,1.29,2.87,2.87,2.87h12.25c1.58,0,2.87-1.29,2.87-2.87V6.37c0-1.58-1.29-2.87-2.87-2.87H6.37z"/>
	</g>
	<g>
		<path style="fill:#7B7B7C;" d="M20.39,19.26H4.55c-0.28,0-0.5-0.22-0.5-0.5s0.22-0.5,0.5-0.5h15.84c0.28,0,0.5,0.22,0.5,0.5
			S20.66,19.26,20.39,19.26z"/>
	</g>
	<g>
		<path style="fill:#7B7B7C;" d="M6.71,8.67c-0.9,0-1.62-0.73-1.62-1.62s0.73-1.62,1.62-1.62c0.89,0,1.62,0.73,1.62,1.62
			S7.6,8.67,6.71,8.67z M6.71,6.43c-0.34,0-0.62,0.28-0.62,0.62c0,0.34,0.28,0.62,0.62,0.62c0.34,0,0.62-0.28,0.62-0.62
			C7.33,6.7,7.05,6.43,6.71,6.43z"/>
	</g>
	<g>
		<path style="fill:#7B7B7C;" d="M19.81,17H4.4c-0.19,0-0.36-0.11-0.44-0.27c-0.09-0.17-0.07-0.37,0.04-0.52l4.52-6.29
			c0.09-0.12,0.22-0.2,0.37-0.21c0.15-0.01,0.29,0.04,0.4,0.15l1.17,1.2l2.66-3.23c0.18-0.21,0.49-0.24,0.7-0.07
			c0.21,0.18,0.24,0.49,0.07,0.7l-3.02,3.66c-0.09,0.11-0.22,0.18-0.37,0.18c-0.13,0.01-0.28-0.05-0.38-0.15l-1.14-1.17L5.37,16
			h13.59l-4.92-8.9c-0.13-0.24-0.05-0.55,0.2-0.68c0.24-0.13,0.55-0.05,0.68,0.2l5.33,9.64c0.09,0.16,0.08,0.34-0.01,0.5
			S19.99,17,19.81,17z"/>
	</g>
</g>
</svg>
