<?xml version="1.0" encoding="utf-8"?>
<!-- Generator: Adobe Illustrator 16.0.0, SVG Export Plug-In . SVG Version: 6.00 Build 0)  -->
<!DOCTYPE svg PUBLIC "-//W3C//DTD SVG 1.1//EN" "http://www.w3.org/Graphics/SVG/1.1/DTD/svg11.dtd">
<svg version="1.1" id="Layer_1" xmlns="http://www.w3.org/2000/svg" xmlns:xlink="http://www.w3.org/1999/xlink" x="0px" y="0px"
	 width="612px" height="792px" viewBox="0 0 612 792" enable-background="new 0 0 612 792" xml:space="preserve">
<g>
	<path fill="#FFFFFF" d="M547.863,359.28c-2.693,0-5.386-0.979-7.589-2.692L293.76,141.897L47.001,356.587
		c-4.65,4.162-11.995,3.672-16.156-1.224c-4.162-4.651-3.672-11.995,1.224-16.157l254.103-221.055
		c4.406-3.672,10.771-3.672,14.933,0l254.103,221.055c4.651,4.162,5.386,11.261,1.224,16.157
		C554.227,358.056,551.044,359.28,547.863,359.28z"/>
</g>
<g>
	<path fill="#FFFFFF" d="M489.355,660.874H98.165c-6.365,0-11.506-5.142-11.506-11.506V348.019c0-6.365,5.141-11.505,11.506-11.505
		c6.364,0,11.505,5.141,11.505,11.505v290.088h368.669V348.019c0-6.365,5.141-11.505,11.506-11.505
		c6.364,0,11.505,5.141,11.505,11.505v301.594C500.861,655.732,495.72,660.874,489.355,660.874z"/>
</g>
<path fill="#FFFFFF" d="M367.199,397.225c0-7.589-6.12-13.465-13.464-13.465H233.784c-7.345,0-13.465,6.12-13.465,13.465v242.106
	c0,7.589,6.12,13.709,13.465,13.709H353.49c7.589,0,13.465-6.12,13.465-13.464V397.225H367.199z M342.72,653.04H244.8v-244.8h97.92
	V653.04z"/>
</svg>
