<?xml version="1.0" encoding="utf-8"?>
<!-- Generator: Adobe Illustrator 19.0.1, SVG Export Plug-In . SVG Version: 6.00 Build 0)  -->
<svg version="1.1" id="Layer_1" xmlns="http://www.w3.org/2000/svg" xmlns:xlink="http://www.w3.org/1999/xlink" x="0px" y="0px"
	 viewBox="0 0 25 25" style="enable-background:new 0 0 25 25;" xml:space="preserve">
<g>
	<g>
		<path style="fill:#7B7B7C;" d="M12.5,22.08c-1.23,0-2.24-0.96-2.31-2.17c-0.45-0.14-0.88-0.32-1.29-0.53
			c-0.42,0.38-0.96,0.58-1.54,0.58c0,0,0,0,0,0c-0.62,0-1.2-0.24-1.64-0.68c-0.44-0.44-0.68-1.02-0.68-1.63
			c0-0.57,0.21-1.11,0.58-1.54c-0.22-0.41-0.4-0.84-0.54-1.29c-1.21-0.07-2.17-1.08-2.17-2.31s0.96-2.24,2.17-2.31
			C5.23,9.74,5.41,9.31,5.63,8.9C5.25,8.48,5.05,7.93,5.05,7.36c0-0.62,0.24-1.2,0.68-1.64c0.84-0.84,2.29-0.88,3.17-0.1
			c0.41-0.22,0.84-0.39,1.29-0.53c0.07-1.21,1.08-2.18,2.31-2.18c1.23,0,2.24,0.96,2.31,2.18c0.45,0.14,0.88,0.32,1.29,0.53
			c0.88-0.78,2.33-0.74,3.17,0.1c0.44,0.44,0.68,1.02,0.68,1.64c0,0.57-0.21,1.11-0.58,1.53c0.22,0.41,0.4,0.85,0.53,1.29
			c1.21,0.07,2.18,1.08,2.18,2.31s-0.96,2.24-2.18,2.31c-0.14,0.44-0.32,0.88-0.53,1.29c0.38,0.42,0.58,0.96,0.58,1.54
			c0,0.62-0.24,1.2-0.68,1.64c-0.44,0.44-1.02,0.68-1.64,0.68h0c-0.57,0-1.11-0.21-1.54-0.58c-0.41,0.22-0.84,0.4-1.29,0.53
			C14.74,21.12,13.73,22.08,12.5,22.08z M8.78,18.23c0.09,0,0.18,0.02,0.26,0.07c0.56,0.33,1.16,0.59,1.8,0.75
			c0.25,0.06,0.41,0.3,0.37,0.55c-0.01,0.09-0.02,0.13-0.02,0.17c0,0.73,0.59,1.32,1.32,1.32s1.32-0.59,1.32-1.32
			c0-0.04-0.01-0.08-0.01-0.12c-0.04-0.25,0.12-0.54,0.37-0.6c0.63-0.16,1.24-0.41,1.8-0.75c0.22-0.13,0.5-0.08,0.65,0.12
			c0.02,0.02,0.08,0.12,0.09,0.15c0.24,0.25,0.57,0.38,0.92,0.38c0,0,0,0,0,0c0.35,0,0.68-0.14,0.93-0.39
			c0.25-0.25,0.39-0.58,0.39-0.93c0-0.35-0.14-0.68-0.38-0.93c-0.05-0.02-0.1-0.05-0.15-0.09c-0.19-0.16-0.24-0.43-0.12-0.65
			c0.33-0.56,0.59-1.17,0.75-1.8c0.06-0.24,0.3-0.41,0.55-0.37c0.09,0.01,0.13,0.02,0.17,0.02c0.73,0,1.32-0.59,1.32-1.32
			c0-0.77-0.7-1.41-1.44-1.3c-0.25,0.03-0.53-0.12-0.59-0.37c-0.16-0.63-0.41-1.24-0.75-1.8c-0.13-0.22-0.08-0.49,0.12-0.65
			c0.02-0.02,0.13-0.08,0.15-0.1c0.25-0.24,0.38-0.57,0.38-0.92s-0.14-0.68-0.38-0.93c-0.5-0.5-1.36-0.5-1.86,0
			c-0.01,0.02-0.07,0.13-0.09,0.15c-0.15,0.2-0.43,0.25-0.65,0.12c-0.56-0.33-1.16-0.59-1.8-0.75c-0.24-0.06-0.4-0.3-0.37-0.55
			c0.01-0.1,0.02-0.13,0.02-0.17c0-0.73-0.59-1.32-1.32-1.32s-1.32,0.59-1.32,1.32c0,0.04,0.01,0.08,0.01,0.11
			c0.04,0.25-0.12,0.54-0.37,0.61C10.2,6.12,9.59,6.37,9.03,6.7C8.82,6.83,8.54,6.78,8.39,6.58C8.37,6.56,8.3,6.46,8.29,6.43
			c-0.48-0.49-1.36-0.5-1.85,0C6.19,6.68,6.05,7.01,6.05,7.36c0,0.35,0.14,0.68,0.39,0.93c0.02,0.01,0.13,0.07,0.15,0.09
			c0.2,0.16,0.25,0.43,0.12,0.65c-0.34,0.56-0.59,1.17-0.75,1.8c-0.06,0.24-0.29,0.41-0.55,0.37c-0.08-0.01-0.13-0.02-0.17-0.02
			c-0.73,0-1.32,0.59-1.32,1.32c0,0.76,0.68,1.39,1.43,1.3c0.25-0.04,0.54,0.12,0.6,0.37c0.16,0.63,0.41,1.24,0.75,1.8
			c0.13,0.21,0.08,0.49-0.12,0.65c-0.05,0.04-0.1,0.07-0.15,0.1c-0.25,0.24-0.38,0.57-0.38,0.92c0,0.35,0.14,0.68,0.38,0.93
			c0.25,0.25,0.58,0.39,0.93,0.39l0,0c0.35,0,0.68-0.14,0.93-0.39c0.01-0.02,0.07-0.13,0.09-0.15C8.48,18.29,8.63,18.23,8.78,18.23z
			"/>
	</g>
	<g>
		<path style="fill:#7B7B7C;" d="M12.5,15.42c-1.61,0-2.92-1.31-2.92-2.92c0-1.61,1.31-2.92,2.92-2.92c1.61,0,2.92,1.31,2.92,2.92
			C15.42,14.11,14.11,15.42,12.5,15.42z M12.5,10.58c-1.06,0-1.92,0.86-1.92,1.92s0.86,1.92,1.92,1.92s1.92-0.86,1.92-1.92
			S13.56,10.58,12.5,10.58z"/>
	</g>
	<g>
		<path style="fill:#7B7B7C;" d="M12.5,17.95c-3.01,0-5.45-2.45-5.45-5.45c0-3.01,2.45-5.45,5.45-5.45c3.01,0,5.45,2.45,5.45,5.45
			C17.95,15.51,15.51,17.95,12.5,17.95z M12.5,8.05c-2.46,0-4.45,2-4.45,4.45s2,4.45,4.45,4.45s4.45-2,4.45-4.45
			S14.95,8.05,12.5,8.05z"/>
	</g>
</g>
</svg>
