<?xml version="1.0" encoding="utf-8"?>
<!-- Generator: Adobe Illustrator 16.0.0, SVG Export Plug-In . SVG Version: 6.00 Build 0)  -->
<!DOCTYPE svg PUBLIC "-//W3C//DTD SVG 1.1//EN" "http://www.w3.org/Graphics/SVG/1.1/DTD/svg11.dtd">
<svg version="1.1" id="Layer_1" xmlns="http://www.w3.org/2000/svg" xmlns:xlink="http://www.w3.org/1999/xlink" x="0px" y="0px"
	 width="612px" height="792px" viewBox="0 0 612 792" enable-background="new 0 0 612 792" xml:space="preserve">
<g>
	<path fill="#FFFFFF" d="M98.655,623.664c-2.938,0-5.875-0.979-8.323-3.183c-4.896-4.651-5.386-12.24-0.979-17.381l80.05-90.82
		c2.448-2.203,5.631-6.12,9.058-6.12h293.025c30.845,0,42.595-39.413,42.595-67.075V253.771c0-10.281-1.958-65.851-42.595-65.851
		H144.921c-31.334,0-71.481,34.517-71.481,65.851v355.205c0,6.854-5.386,12.24-12.239,12.24c-6.854,0-12.24-5.63-12.24-12.24
		V253.771c0-46.022,52.877-90.331,95.961-90.331h326.563c40.882,0,67.075,38.434,67.075,90.331v185.314
		c0,47.98-23.012,91.555-67.075,91.555h-287.64l-76.133,86.659C105.264,619.992,101.837,623.664,98.655,623.664z"/>
</g>
</svg>
