<?xml version="1.0" encoding="utf-8"?>
<!-- Generator: Adobe Illustrator 19.0.1, SVG Export Plug-In . SVG Version: 6.00 Build 0)  -->
<svg version="1.1" id="Layer_1" xmlns="http://www.w3.org/2000/svg" xmlns:xlink="http://www.w3.org/1999/xlink" x="0px" y="0px"
	 viewBox="0 0 25 25" style="enable-background:new 0 0 25 25;" xml:space="preserve">
<g>
	<path style="fill:#7B7B7C;" d="M4.03,21.8c-0.12,0-0.24-0.04-0.34-0.13c-0.2-0.19-0.22-0.5-0.04-0.71l3.27-3.71
		C7.02,17.16,7.15,17,7.29,17h11.97c1.26,0,1.74-1.61,1.74-2.74V6.69C21,6.27,20.92,4,19.26,4H5.92C4.64,4,3,5.41,3,6.69V21.2
		c0,0.28-0.22,0.5-0.5,0.5S2,21.47,2,21.2V6.69C2,4.81,4.16,3,5.92,3h13.34C20.93,3,22,4.57,22,6.69v7.57
		c0,1.96-0.94,3.74-2.74,3.74H7.51L4.4,21.54C4.3,21.65,4.16,21.8,4.03,21.8z"/>
</g>
</svg>
