<?xml version="1.0" encoding="utf-8"?>
<!-- Generator: Adobe Illustrator 16.0.0, SVG Export Plug-In . SVG Version: 6.00 Build 0)  -->
<!DOCTYPE svg PUBLIC "-//W3C//DTD SVG 1.1//EN" "http://www.w3.org/Graphics/SVG/1.1/DTD/svg11.dtd">
<svg version="1.1" id="Layer_1" xmlns="http://www.w3.org/2000/svg" xmlns:xlink="http://www.w3.org/1999/xlink" x="0px" y="0px"
	 width="612px" height="792px" viewBox="0 0 612 792" enable-background="new 0 0 612 792" xml:space="preserve">
<g>
	<g>
		<path fill="#FFFFFF" d="M306,630.519c-30.11,0-54.836-23.501-56.549-53.122c-11.017-3.427-21.543-7.833-31.579-12.975
			c-10.282,9.303-23.501,14.199-37.699,14.199l0,0c-15.178,0-29.376-5.876-40.147-16.646c-10.771-10.771-16.646-24.97-16.646-39.902
			c0-13.954,5.141-27.173,14.198-37.699c-5.386-10.037-9.792-20.563-13.219-31.579c-29.621-1.714-53.122-26.438-53.122-56.549
			c0-30.11,23.501-54.835,53.122-56.549c3.672-11.261,8.078-21.787,13.464-31.824c-9.303-10.282-14.198-23.746-14.198-37.699
			c0-15.178,5.875-29.376,16.646-40.147c20.563-20.563,56.059-21.542,77.602-2.448c10.036-5.386,20.563-9.547,31.579-12.975
			c1.713-29.621,26.438-53.366,56.549-53.366s54.835,23.501,56.548,53.366c11.017,3.427,21.543,7.833,31.58,12.975
			c21.542-19.094,57.038-18.115,77.602,2.448c10.771,10.771,16.646,24.97,16.646,40.147c0,13.954-5.141,27.173-14.198,37.454
			c5.386,10.037,9.792,20.808,12.975,31.58c29.621,1.713,53.366,26.438,53.366,56.549c0,30.11-23.5,54.835-53.366,56.548
			c-3.427,10.771-7.833,21.543-12.975,31.579c9.303,10.282,14.198,23.501,14.198,37.699c0,15.178-5.875,29.376-16.646,40.147
			c-10.771,10.771-24.97,16.646-40.147,16.646l0,0c-13.954,0-27.173-5.141-37.699-14.198c-10.037,5.386-20.563,9.792-31.579,12.975
			C360.835,607.018,336.111,630.519,306,630.519z M214.935,536.271c2.203,0,4.406,0.489,6.364,1.714
			c13.709,8.078,28.396,14.442,44.064,18.359c6.12,1.469,10.036,7.344,9.058,13.464c-0.245,2.203-0.49,3.183-0.49,4.162
			c0,17.87,14.443,32.313,32.313,32.313s32.313-14.443,32.313-32.313c0-0.979-0.244-1.959-0.244-2.938
			c-0.979-6.12,2.938-13.22,9.058-14.688c15.422-3.917,30.354-10.037,44.063-18.359c5.386-3.183,12.24-1.959,15.912,2.938
			c0.489,0.489,1.958,2.938,2.203,3.672c5.875,6.12,13.954,9.302,22.521,9.302l0,0c8.568,0,16.646-3.427,22.767-9.547
			s9.547-14.198,9.547-22.767c0-8.567-3.427-16.646-9.302-22.766c-1.225-0.49-2.448-1.225-3.672-2.204
			c-4.651-3.916-5.876-10.526-2.938-15.911c8.079-13.709,14.443-28.642,18.36-44.064c1.469-5.875,7.344-10.037,13.464-9.058
			c2.203,0.245,3.183,0.489,4.162,0.489c17.87,0,32.313-14.443,32.313-32.313c0-18.85-17.136-34.517-35.251-31.824
			c-6.12,0.734-12.975-2.938-14.443-9.058c-3.917-15.422-10.037-30.355-18.36-44.064c-3.183-5.386-1.958-11.995,2.938-15.912
			c0.49-0.489,3.183-1.958,3.672-2.448c6.12-5.875,9.303-13.954,9.303-22.522c0-8.568-3.427-16.646-9.303-22.766
			c-12.239-12.24-33.293-12.24-45.532,0c-0.245,0.49-1.714,3.182-2.203,3.672c-3.672,4.896-10.526,6.12-15.912,2.938
			c-13.709-8.078-28.397-14.443-44.064-18.36c-5.875-1.469-9.792-7.344-9.058-13.464c0.245-2.448,0.49-3.183,0.49-4.162
			c0-17.871-14.443-32.314-32.313-32.314c-17.871,0-32.313,14.443-32.313,32.314c0,0.979,0.244,1.958,0.244,2.693
			c0.979,6.12-2.938,13.219-9.058,14.933c-15.912,4.406-30.845,10.526-44.554,18.605c-5.141,3.182-11.995,1.958-15.667-2.938
			c-0.489-0.489-2.203-2.938-2.448-3.672c-11.75-11.995-33.292-12.24-45.287,0c-6.12,6.12-9.548,14.199-9.548,22.767
			s3.428,16.646,9.548,22.767c0.489,0.245,3.182,1.713,3.672,2.203c4.896,3.917,6.12,10.526,2.938,15.912
			c-8.323,13.709-14.443,28.642-18.36,44.064c-1.469,5.875-7.099,10.037-13.464,9.058c-1.958-0.245-3.183-0.489-4.161-0.489
			c-17.871,0-32.314,14.443-32.314,32.313c0,18.605,16.646,34.027,35.007,31.824c6.12-0.979,13.219,2.938,14.688,9.058
			c3.917,15.422,10.037,30.354,18.36,44.063c3.183,5.141,1.959,11.995-2.938,15.912c-1.224,0.979-2.448,1.714-3.672,2.448
			c-6.12,5.875-9.303,13.953-9.303,22.521s3.428,16.646,9.303,22.767c6.12,6.12,14.198,9.547,22.767,9.547l0,0
			c8.567,0,16.646-3.427,22.766-9.547c0.245-0.49,1.714-3.183,2.204-3.672C207.59,537.739,211.262,536.271,214.935,536.271z"/>
	</g>
	<g>
		<path fill="#FFFFFF" d="M306,467.481c-39.413,0-71.481-32.068-71.481-71.481c0-39.413,32.068-71.481,71.481-71.481
			c39.412,0,71.481,32.069,71.481,71.481C377.482,435.413,345.412,467.481,306,467.481z M306,348.999
			c-25.949,0-47.002,21.053-47.002,47.001c0,25.949,21.053,47.002,47.002,47.002c25.948,0,47.001-21.053,47.001-47.002
			C353.001,370.051,331.948,348.999,306,348.999z"/>
	</g>
	<g>
		<path fill="#FFFFFF" d="M306,529.416c-73.686,0-133.416-59.976-133.416-133.416c0-73.685,59.976-133.416,133.416-133.416
			c73.685,0,133.416,59.976,133.416,133.416C439.416,469.685,379.685,529.416,306,529.416z M306,287.064
			c-60.221,0-108.937,48.96-108.937,108.936c0,59.976,48.96,108.936,108.937,108.936c59.976,0,108.936-48.96,108.936-108.936
			C414.936,336.024,365.976,287.064,306,287.064z"/>
	</g>
</g>
</svg>
