<?xml version="1.0" encoding="utf-8"?>
<!-- Generator: Adobe Illustrator 19.0.1, SVG Export Plug-In . SVG Version: 6.00 Build 0)  -->
<svg version="1.1" id="Layer_1" xmlns="http://www.w3.org/2000/svg" xmlns:xlink="http://www.w3.org/1999/xlink" x="0px" y="0px"
	 viewBox="0 0 25 25" style="enable-background:new 0 0 25 25;" xml:space="preserve">
<g>
	<path style="fill:#99999A;" d="M6.5,8h-5C1.22,8,1,7.78,1,7.5V4c0-0.28,0.22-0.5,0.5-0.5S2,3.72,2,4v3h4V3H2
		C1.72,3,1.5,2.78,1.5,2.5S1.72,2,2,2h4.5C6.78,2,7,2.22,7,2.5v5C7,7.78,6.78,8,6.5,8z"/>
</g>
<g>
	<path style="fill:#99999A;" d="M6.5,22h-5C1.22,22,1,21.78,1,21.5V18c0-0.28,0.22-0.5,0.5-0.5S2,17.72,2,18v3h4v-4H2
		c-0.28,0-0.5-0.22-0.5-0.5S1.72,16,2,16h4.5C6.78,16,7,16.22,7,16.5v5C7,21.78,6.78,22,6.5,22z"/>
</g>
<g>
	<path style="fill:#99999A;" d="M4.04,14.95c-1.62,0-2.94-1.32-2.94-2.94c0-0.49,0.17-1.22,0.53-1.67c0.17-0.21,0.49-0.25,0.7-0.07
		c0.21,0.17,0.25,0.49,0.07,0.7C2.24,11.17,2.09,11.65,2.09,12c0,1.07,0.87,1.94,1.94,1.94S5.98,13.08,5.98,12s-0.87-1.94-1.94-1.94
		c-0.27,0-0.52,0.05-0.77,0.16c-0.25,0.11-0.55-0.01-0.66-0.26C2.5,9.71,2.61,9.42,2.87,9.31c0.37-0.16,0.77-0.24,1.17-0.24
		c1.62,0,2.94,1.32,2.94,2.94C6.98,13.63,5.66,14.95,4.04,14.95z"/>
</g>
<g>
	<path style="fill:#99999A;" d="M23,5H9C8.72,5,8.5,4.78,8.5,4.5S8.72,4,9,4h14c0.28,0,0.5,0.22,0.5,0.5S23.28,5,23,5z"/>
</g>
<g>
	<path style="fill:#99999A;" d="M23,13H9c-0.28,0-0.5-0.22-0.5-0.5S8.72,12,9,12h14c0.28,0,0.5,0.22,0.5,0.5S23.28,13,23,13z"/>
</g>
<g>
	<path style="fill:#99999A;" d="M23,20H9c-0.28,0-0.5-0.22-0.5-0.5S8.72,19,9,19h14c0.28,0,0.5,0.22,0.5,0.5S23.28,20,23,20z"/>
</g>
</svg>
