<?xml version="1.0" encoding="utf-8"?>
<!-- Generator: Adobe Illustrator 19.0.1, SVG Export Plug-In . SVG Version: 6.00 Build 0)  -->
<svg version="1.1" id="Layer_1" xmlns="http://www.w3.org/2000/svg" xmlns:xlink="http://www.w3.org/1999/xlink" x="0px" y="0px"
	 viewBox="0 0 400 400" style="enable-background:new 0 0 400 400;" xml:space="preserve">
<style type="text/css">
	.st0{fill:#2C4355;}
	.st1{fill:#F27821;}
	.st2{fill:#5CC1A4;}
	.st3{fill:#FBC02C;}
</style>
<path class="st0" d="M197.6,54.8c32,0,58,18.9,58,42.1c-0.1,3.4-3.9,80.9-6.1,126.6h-99.7c-3.2-38.8-10-122.2-10.2-126.7
	C139.7,73.6,165.7,54.8,197.6,54.8 M197.6,48.3c-35.6,0-64.5,21.8-64.5,48.7c0,2,10.7,133,10.7,133h111.8c0,0,6.4-131.9,6.4-133
	C262.1,70.1,233.2,48.3,197.6,48.3L197.6,48.3z"/>
<path class="st0" d="M199.6,148.8h-0.1c-3.5,0-6.4,2.9-6.4,6.4v64.6c0,3.5,2.9,6.4,6.4,6.4h0.1c3.5,0,6.4-2.9,6.4-6.4v-64.6
	C206,151.7,203.1,148.8,199.6,148.8z"/>
<path class="st1" d="M245.2,32.6c-3.3,10-1.5,21.4,5.8,30s18.4,12.1,28.8,10.3L245.2,32.6z"/>
<path class="st1" d="M111.7,67.9c10,3.3,21.4,1.5,30-5.8s12.1-18.4,10.3-28.8L111.7,67.9z"/>
<path class="st0" d="M199.5,101.9c-14.5,0-26.3,11.8-26.3,26.3c0,14.5,11.8,26.3,26.3,26.3s26.3-11.8,26.3-26.3
	C225.8,113.7,214,101.9,199.5,101.9z M199.5,140.9c-6.1,0-11.1-5-11.1-11.1c0-6.1,5-11.1,11.1-11.1s11.1,5,11.1,11.1
	C210.6,136,205.6,140.9,199.5,140.9z"/>
<g>
	<path class="st0" d="M205.3,303.2h-9.1c-5.2,0-9.5-0.4-9.5-0.9v-2.9c0-0.5,4.2-0.9,9.5-0.9h9.1c5.2,0,9.5,0.4,9.5,0.9v2.9
		C214.8,302.8,210.6,303.2,205.3,303.2z"/>
	<path class="st0" d="M205.3,309.9h-9.1c-5.2,0-9.5-0.4-9.5-0.9v-2.9c0-0.5,4.2-0.9,9.5-0.9h9.1c5.2,0,9.5,0.4,9.5,0.9v2.9
		C214.8,309.5,210.6,309.9,205.3,309.9z"/>
	<path class="st0" d="M205.3,316.8h-9.1c-5.2,0-9.5-0.4-9.5-0.9V313c0-0.5,4.2-0.9,9.5-0.9h9.1c5.2,0,9.5,0.4,9.5,0.9v2.9
		C214.8,316.4,210.6,316.8,205.3,316.8z"/>
</g>
<g>
	<path class="st2" d="M91.3,248.5c0.6,2.6,1.5,5,2.6,7.3l0,0l-9.4,5.8c-1.7-3.3-3-6.8-3.9-10.5c-6.1-25.5,9.5-51.1,35-57.3l2.6,10.7
		C98.7,209.2,86.6,228.9,91.3,248.5z"/>
</g>
<circle class="st3" cx="129.4" cy="196.4" r="8.2"/>
<path class="st2" d="M254.5,235.3h-110c-6.9,0-12.5,5.6-12.5,12.5V282c0,6.9,5.6,12.5,12.5,12.5h110c6.9,0,12.5-5.6,12.5-12.5v-34.2
	C266.9,240.9,261.4,235.3,254.5,235.3z M196.5,273.2c0,5.1-3.6,9.2-8.1,9.2h-19.2c-4.5,0-8.1-4.1-8.1-9.2v-15.5
	c0-5.1,3.6-9.2,8.1-9.2h19.2c4.5,0,8.1,4.1,8.1,9.2V273.2z M238.2,278.3c0,2.2-3.6,4.1-8.1,4.1h-19.2c-4.5,0-8.1-1.8-8.1-4.1v-6.9
	c0-2.2,3.6-4.1,8.1-4.1h19.2c4.5,0,8.1,1.8,8.1,4.1V278.3z M238.2,259.4c0,2.2-3.6,4.1-8.1,4.1h-19.2c-4.5,0-8.1-1.8-8.1-4.1v-6.9
	c0-2.2,3.6-4.1,8.1-4.1h19.2c4.5,0,8.1,1.8,8.1,4.1V259.4z"/>
<path class="st0" d="M256.5,326.6c6,0,10.9,4.9,10.9,10.9v13.7c0,6-4.9,10.9-10.9,10.9H148.1c-6,0-10.9-4.9-10.9-10.9v-13.7
	c0-6,4.9-10.9,10.9-10.9H256.5 M256.5,322.2H148.1c-8.5,0-15.4,6.9-15.4,15.4v13.7c0,8.5,6.9,15.4,15.4,15.4h108.4
	c8.5,0,15.4-6.9,15.4-15.4v-13.7C271.9,329.1,265,322.2,256.5,322.2L256.5,322.2z"/>
<circle class="st1" cx="248.4" cy="344.4" r="12.6"/>
<circle class="st1" cx="200.9" cy="344.4" r="12.6"/>
<circle class="st1" cx="155.3" cy="344.4" r="12.6"/>
<circle class="st3" cx="269.5" cy="197.1" r="8.2"/>
<g>
	<path class="st2" d="M308.1,247.4c-0.6,2.6-1.5,5-2.6,7.3l0,0l9.4,5.7c1.7-3.3,3-6.8,3.9-10.5c6.1-25.5-9.7-51.1-35.2-57.2
		l-2.6,10.7C300.7,208.1,312.8,227.8,308.1,247.4z"/>
</g>
<circle class="st3" cx="303.8" cy="268.8" r="10.6"/>
<circle class="st3" cx="97.6" cy="268.8" r="10.6"/>
</svg>
