<?xml version="1.0" encoding="utf-8"?>
<!-- Generator: Adobe Illustrator 20.0.0, SVG Export Plug-In . SVG Version: 6.00 Build 0)  -->
<svg version="1.1" id="Layer_1" xmlns="http://www.w3.org/2000/svg" xmlns:xlink="http://www.w3.org/1999/xlink" x="0px" y="0px"
	 viewBox="0 0 40 40" style="enable-background:new 0 0 40 40;" xml:space="preserve">
<style type="text/css">
	.st0{fill:#FFFFFF;}
</style>
<g>
	<path class="st0" d="M11,32.5c-2.2,0-4-1.9-4-4.2c0-1.7,1.9-4.9,2.7-6.1c0.6-0.9,2-0.9,2.5,0c0.8,1.3,2.7,4.4,2.7,6.1
		C15,30.6,13.2,32.5,11,32.5z M10,28.3c0,0.6,0.5,1.2,1,1.2s1-0.5,1-1.2c0-0.4-0.4-1.3-1-2.4C10.4,27,10,28,10,28.3z M22.6,29.2
		c-0.7,0-1.4-0.3-1.9-0.8l-8.5-8.5c-0.5-0.5-0.8-1.2-0.8-1.9c0-0.7,0.3-1.4,0.8-1.9l8.5-8.5c1.1-1.1,2.8-1.1,3.9,0l8.5,8.5
		c0.5,0.5,0.8,1.2,0.8,1.9c0,0.7-0.3,1.4-0.8,1.9l-8.5,8.5C24.1,28.9,23.4,29.2,22.6,29.2z M14.5,17.9l8.2,8.2l8.2-8.2l-8.2-8.2
		L14.5,17.9z"/>
</g>
<g>
	<polygon class="st0" points="13,18 32,18 23.1,28.1 	"/>
</g>
</svg>
