<?xml version="1.0" encoding="utf-8"?>
<!-- Generator: Adobe Illustrator 19.0.1, SVG Export Plug-In . SVG Version: 6.00 Build 0)  -->
<svg version="1.1" id="Layer_1" xmlns="http://www.w3.org/2000/svg" xmlns:xlink="http://www.w3.org/1999/xlink" x="0px" y="0px"
	 viewBox="-49 51 200 200" style="enable-background:new -49 51 200 200;" xml:space="preserve">
<style type="text/css">
	.st0{fill:#D2D3D5;}
</style>
<g>
	<g>
		<rect x="36.9" y="68.4" class="st0" width="28.3" height="8.5"/>
	</g>
</g>
<g>
	<g>
		<path class="st0" d="M130.2,246.7H-28.2c-5.5,0-9.9-4.4-9.9-9.9V78.3c0-5.5,4.4-9.9,9.9-9.9h8.5v8.5h-8.5c-0.8,0-1.4,0.6-1.4,1.4
			v158.5c0,0.8,0.6,1.4,1.4,1.4h158.5c0.8,0,1.4-0.6,1.4-1.4V78.3c0-0.8-0.6-1.4-1.4-1.4h-8.5v-8.5h8.5c5.5,0,9.9,4.4,9.9,9.9v158.5
			C140.1,242.3,135.7,246.7,130.2,246.7z"/>
	</g>
</g>
<g>
	<g>
		<path class="st0" d="M17,91.1H0c-5.5,0-9.9-4.4-9.9-9.9v-17c0-5.5,4.4-9.9,9.9-9.9h17c5.5,0,9.9,4.4,9.9,9.9v17
			C26.9,86.6,22.5,91.1,17,91.1z M0.1,62.8c-0.8,0-1.4,0.6-1.4,1.4v17c0,0.8,0.6,1.4,1.4,1.4h17c0.8,0,1.4-0.6,1.4-1.4v-17
			c0-0.8-0.6-1.4-1.4-1.4C17.1,62.8,0.1,62.8,0.1,62.8z"/>
	</g>
</g>
<g>
	<g>
		<path class="st0" d="M101.9,91.1h-17c-5.5,0-9.9-4.4-9.9-9.9v-17c0-5.5,4.4-9.9,9.9-9.9h17c5.5,0,9.9,4.4,9.9,9.9v17
			C111.8,86.6,107.4,91.1,101.9,91.1z M85,62.8c-0.8,0-1.4,0.6-1.4,1.4v17c0,0.8,0.6,1.4,1.4,1.4h17c0.8,0,1.4-0.6,1.4-1.4v-17
			c0-0.8-0.6-1.4-1.4-1.4C102,62.8,85,62.8,85,62.8z"/>
	</g>
</g>
<g>
	<g>
		<rect x="-19.7" y="110.9" class="st0" width="141.5" height="8.5"/>
	</g>
</g>
<g>
	<polygon class="st0" points="3,148.6 5.7,157.5 18,153.7 18,213.6 28.4,213.6 28.4,142.4 21.1,142.4 	"/>
	<path class="st0" d="M71.7,141.7c-8.7,0-16.6,3.9-22.1,11c-5.3,6.8-8.2,15.8-8.2,25.6v0.2c0,21,12.6,36.3,30,36.3
		c8.7,0,16.5-3.9,22.1-11c5.2-6.7,8.1-15.8,8.1-25.6V178C101.6,157,89,141.7,71.7,141.7z M90.7,178.2v0.2c0,17.4-9.6,26.5-19.1,26.5
		c-9.4,0-19.4-9.3-19.4-26.7V178c0-17.4,9.6-26.5,19.2-26.5C80.8,151.5,90.7,160.9,90.7,178.2z"/>
</g>
</svg>
