<?xml version="1.0" encoding="utf-8"?>
<!-- Generator: Adobe Illustrator 20.0.0, SVG Export Plug-In . SVG Version: 6.00 Build 0)  -->
<svg version="1.1" id="Layer_1" xmlns="http://www.w3.org/2000/svg" xmlns:xlink="http://www.w3.org/1999/xlink" x="0px" y="0px"
	 viewBox="0 0 30 30" style="enable-background:new 0 0 30 30;" xml:space="preserve">
<style type="text/css">
	.st0{fill:#FFFFFF;}
</style>
<path class="st0" d="M26.9,22.9L19,15l8-8c1.1-1.2,1.1-3.1,0-4.2l0,0c-1.2-1.2-3.1-1.2-4.3,0l-7.9,7.9L6.8,2.8
	c-1.2-1.2-3.1-1.2-4.3,0C2,3.4,1.7,4.1,1.7,4.9c0,0.8,0.3,1.6,0.9,2.1l7.9,7.9l-7.9,7.9c-0.6,0.6-0.9,1.3-0.9,2.1
	c0,0.8,0.3,1.6,0.9,2.1c1.1,1.1,3.1,1.1,4.3,0l7.9-7.9l7.9,7.9c0.6,0.6,1.3,0.9,2.1,0.9c0.8,0,1.6-0.3,2.1-0.9
	c0.6-0.6,0.9-1.3,0.9-2.1C27.8,24.2,27.5,23.5,26.9,22.9z"/>
</svg>
