<?xml version="1.0" encoding="utf-8"?>
<!-- Generator: Adobe Illustrator 19.0.1, SVG Export Plug-In . SVG Version: 6.00 Build 0)  -->
<svg version="1.1" id="Layer_1" xmlns="http://www.w3.org/2000/svg" xmlns:xlink="http://www.w3.org/1999/xlink" x="0px" y="0px"
	 viewBox="0 0 250 250" style="enable-background:new 0 0 250 250;" xml:space="preserve">
<style type="text/css">
	.st0{fill:#FFFFFF;}
	.st1{fill:#3C5A99;}
</style>
<g>
	<path class="st0" d="M0.4,0.4c83.2,0,166.4,0,249.6,0c0,83.2,0,166.4,0,249.6c-83.2,0-166.4,0-249.6,0C0.4,166.8,0.4,83.6,0.4,0.4z
		 M206.9,115.8c0,0.6,0,1,0,1.4c-0.7,5.2-1.3,10.4-2,15.7c-0.8,5.9-1.6,11.9-2.3,17.8c-0.2,1.7-0.2,1.7-1.9,1.7c-9.3,0-18.7,0-28,0
		c-1.2,0-1.6,0.2-1.6,1.5c0,30.1,0,60.1,0,90.2c0,0.4,0,0.9,0.1,1.3c0.4,0,0.8,0.1,1.1,0.1c19.9,0,39.9,0,59.8,0
		c1,0,2.1-0.1,3.1-0.4c6.4-1.5,10.3-6.7,10.3-13.6c0-71,0-141.9,0-212.9c0-1.2-0.1-2.4-0.4-3.5c-1.1-5.4-6.1-10.4-13.5-10.4
		c-71,0.1-142,0-213,0c-0.8,0-1.7,0-2.5,0.1C9.7,5.8,4.8,11.5,4.8,18.5c0.1,71.1,0,142.3,0,213.4c0,0.8,0,1.6,0.1,2.3
		c1.3,7,6.5,11.4,13.7,11.4c37.7,0,75.4,0,113.1,0c0.4,0,0.9,0,1.4,0c0-0.6,0.1-1,0.1-1.4c0-30,0-60,0-90.1c0-1.6,0-1.6-1.6-1.6
		c-9.4,0-18.8,0-28.2,0c-1.6,0-1.6,0-1.6-1.6c0-11.1,0-22.3,0-33.4c0-0.5,0.1-1,0.1-1.6c10.5,0,20.8,0,31.3,0c0-0.7,0-1.2,0-1.8
		c0-8.1,0-16.2,0-24.4c0-5.2,0.5-10.3,1.7-15.3c2.2-9.2,6.5-17.1,13.8-23.2c8.2-6.8,18-9.8,28.5-10.1c9.9-0.3,19.7,0.1,29.5,1.2
		c1.6,0.2,1.6,0.2,1.6,1.8c0,9.7,0,19.5,0,29.2c0,1.9,0,1.9-1.8,1.9c-5.4,0-10.9-0.1-16.3,0c-2.7,0-5.5,0.2-8.1,0.6
		c-5.1,0.9-8.8,3.7-10.1,9c-0.5,1.9-0.8,3.9-0.8,5.9c-0.1,8-0.1,16-0.1,24c0,0.4,0.1,0.7,0.1,1.1C183.1,115.8,195,115.8,206.9,115.8
		z"/>
	<path class="st1" d="M206.9,115.8c-12,0-23.8,0-35.7,0c0-0.4-0.1-0.8-0.1-1.1c0-8,0-16,0.1-24c0-2,0.3-4,0.8-5.9
		c1.3-5.2,5-8,10.1-9c2.7-0.5,5.4-0.6,8.1-0.6c5.4-0.1,10.9,0,16.3,0c1.8,0,1.8,0,1.8-1.9c0-9.7,0-19.5,0-29.2c0-1.6,0-1.6-1.6-1.8
		c-9.8-1.1-19.7-1.5-29.5-1.2c-10.5,0.3-20.2,3.2-28.5,10.1c-7.3,6.1-11.6,14-13.8,23.2c-1.2,5-1.7,10.2-1.7,15.3
		c0,8.1,0,16.2,0,24.4c0,0.5,0,1.1,0,1.8c-10.5,0-20.8,0-31.3,0c0,0.6-0.1,1.1-0.1,1.6c0,11.1,0,22.3,0,33.4c0,1.6,0,1.6,1.6,1.6
		c9.4,0,18.8,0,28.2,0c1.6,0,1.6,0,1.6,1.6c0,30,0,60,0,90.1c0,0.4,0,0.9-0.1,1.4c-0.5,0-1,0-1.4,0c-37.7,0-75.4,0-113.1,0
		c-7.2,0-12.4-4.4-13.7-11.4c-0.1-0.8-0.1-1.5-0.1-2.3c0-71.1,0-142.3,0-213.4C4.8,11.5,9.7,5.8,16.1,5c0.8-0.1,1.7-0.1,2.5-0.1
		c71,0,142,0,213,0c7.4,0,12.4,5,13.5,10.4c0.2,1.1,0.4,2.3,0.4,3.5c0,71,0,141.9,0,212.9c0,6.8-4,12.1-10.3,13.6
		c-1,0.2-2.1,0.4-3.1,0.4c-19.9,0-39.9,0-59.8,0c-0.3,0-0.6,0-1.1-0.1c0-0.5-0.1-0.9-0.1-1.3c0-30.1,0-60.1,0-90.2
		c0-1.3,0.4-1.5,1.6-1.5c9.3,0,18.7,0,28,0c1.7,0,1.7,0,1.9-1.7c0.8-5.9,1.6-11.9,2.3-17.8c0.7-5.2,1.4-10.4,2-15.7
		C207,116.8,206.9,116.4,206.9,115.8z"/>
</g>
</svg>
