<?xml version="1.0" encoding="utf-8"?>
<!-- Generator: Adobe Illustrator 19.0.1, SVG Export Plug-In . SVG Version: 6.00 Build 0)  -->
<svg version="1.1" id="Layer_1" xmlns="http://www.w3.org/2000/svg" xmlns:xlink="http://www.w3.org/1999/xlink" x="0px" y="0px"
	 viewBox="-279 281 40 40" style="enable-background:new -279 281 40 40;" xml:space="preserve">
<style type="text/css">
	.st0{fill:#D8D8D8;}
</style>
<path class="st0" d="M-253.5,301.4l11.4-11.4c1.4-1.4,1.4-3.6,0-4.9c-1.4-1.4-3.6-1.4-4.9,0l-11.5,11.4l-11.4-11.5
	c-1.3-1.3-3.6-1.3-4.9,0c-1.4,1.4-1.4,3.6,0,5l11.4,11.4l-11.4,11.4c-1.4,1.4-1.4,3.6,0,4.9c0.7,0.7,1.6,1,2.5,1
	c0.9,0,1.8-0.3,2.5-1l11.4-11.4l11.4,11.5c0.7,0.7,1.6,1,2.5,1s1.8-0.3,2.5-1c1.4-1.4,1.4-3.6,0-4.9L-253.5,301.4z"/>
</svg>
