<?xml version="1.0" encoding="utf-8"?>
<!-- Generator: Adobe Illustrator 19.0.1, SVG Export Plug-In . SVG Version: 6.00 Build 0)  -->
<svg version="1.1" id="Layer_1" xmlns="http://www.w3.org/2000/svg" xmlns:xlink="http://www.w3.org/1999/xlink" x="0px" y="0px"
	 viewBox="0 0 150 150" style="enable-background:new 0 0 150 150;" xml:space="preserve">
<style type="text/css">
	.st0{fill:#1687E7;}
	.st1{fill:#2DCFFC;}
	.st2{fill:#33D383;}
	.st3{fill:#1EADFC;}
	.st4{fill:#FC8231;}
	.st5{fill:#FC703A;}
	.st6{fill:#5CC1A4;}
	.st7{fill:#F27821;}
	.st8{fill:#2C4355;}
	.st9{fill:#269E62;}
	.st10{fill:#FECF37;}
	.st11{fill:#F9B60D;}
	.st12{fill:#229BBD;}
	.st13{fill:#F6F8FB;}
	.st14{fill:#ECF0F2;}
	.st15{fill:#D1D9E0;}
	.st16{fill:#AFB0B4;}
	.st17{fill:#5C5B5E;}
	.st18{fill:#FFFFFF;}
</style>
<circle class="st0" cx="75.4" cy="74" r="70.1"/>
<g>
	<g>
		<path class="st18" d="M45.4,111.3c-0.7,0-1.4-0.2-2-0.5c-2.2-1.3-2.5-4.5-2.5-7.5V49.4c0-2.6,2.1-4.7,4.7-4.7h59.7
			c2.6,0,4.7,2.1,4.7,4.7v44.8c0,2.6-2.1,4.7-4.7,4.7H68.6c-0.1,0-0.2,0-0.3,0.1l-16.7,9.9c-0.3,0.1-0.5,0.3-0.8,0.4
			C48.9,110.3,47.1,111.3,45.4,111.3z M45.6,48.8c-0.3,0-0.6,0.3-0.6,0.6v53.8c0,2.8,0.4,3.8,0.5,4c0.6,0,2.3-0.9,3.5-1.5
			c0.3-0.1,0.5-0.3,0.8-0.4l16.5-9.8c0.7-0.4,1.5-0.7,2.4-0.7h36.7c0.3,0,0.6-0.3,0.6-0.6V49.4c0-0.3-0.3-0.6-0.6-0.6L45.6,48.8
			L45.6,48.8z"/>
	</g>
</g>
</svg>
