<?xml version="1.0" encoding="utf-8"?>
<!-- Generator: Adobe Illustrator 19.0.1, SVG Export Plug-In . SVG Version: 6.00 Build 0)  -->
<svg version="1.1" id="Layer_1" xmlns="http://www.w3.org/2000/svg" xmlns:xlink="http://www.w3.org/1999/xlink" x="0px" y="0px"
	 viewBox="0 0 60 60" style="enable-background:new 0 0 60 60;" xml:space="preserve">
<style type="text/css">
	.st0{fill:#5CC1A4;}
	.st1{fill:#FFFFFF;}
	.st2{fill:#2C4355;}
</style>
<g>
	<path class="st2" d="M7,44v8.9c0,1.8,2.1,2.8,3.5,1.7l12.4-9.6"/>
	<path class="st2" d="M50,46H9.6C8.2,46,7,44.9,7,43.4V9.5c0-1.4,1.2-2.6,2.6-2.6H50c1.4,0,2.6,1.2,2.6,2.6v33.9
		C52.6,44.9,51.4,46,50,46z"/>
	<path class="st1" d="M47.9,10H12.1c-1.1,0-2,1.2-2,2.6V43v5.3c0,0.8,0.5,1.3,1,1.3c0.2,0,0.5-0.1,0.7-0.4l6.8-5.4
		C19,43.3,19.5,43,20,43l27.9,0c1.5,0,2-1.2,2-2.7V24.1v-0.7V12.6C49.9,11.2,49,10,47.9,10z M47.9,24.1v16.2c0,0.4,0,0.6-0.1,0.7
		l-27.9,0c-1.1,0-2.1,0.5-2.8,1.3l-5.1,4.1V43V12.6c0-0.3,0.1-0.6,0.2-0.7h35.5c0.1,0.1,0.2,0.3,0.2,0.7v10.8V24.1z"/>
</g>
</svg>
