<?xml version="1.0" encoding="utf-8"?>
<!-- Generator: Adobe Illustrator 20.0.0, SVG Export Plug-In . SVG Version: 6.00 Build 0)  -->
<svg version="1.1" id="Layer_1" xmlns="http://www.w3.org/2000/svg" xmlns:xlink="http://www.w3.org/1999/xlink" x="0px" y="0px"
	 viewBox="0 0 40 40" style="enable-background:new 0 0 40 40;" xml:space="preserve">
<style type="text/css">
	.st0{fill:#FFFFFF;}
</style>
<g>
	<g>
		<path class="st0" d="M19.4,27.2L17,29.6c-0.7,0.7-1.7,1.1-2.8,1.1s-2-0.4-2.8-1.1l-1-1c-0.7-0.7-1.1-1.7-1.1-2.8
			c0-1,0.4-2,1.1-2.8l4.3-4.3c0.7-0.7,1.7-1.1,2.8-1.1c1,0,2,0.4,2.8,1.1l1.2,1.2c0.7,0.7,1.9,0.7,2.6,0s0.7-1.9,0-2.6l-1.2-1.2
			c-1.4-1.4-3.3-2.2-5.3-2.2s-3.9,0.8-5.3,2.2l-4.4,4.3c-1.4,1.4-2.2,3.3-2.2,5.3s0.8,3.9,2.2,5.3l1,1c1.4,1.4,3.3,2.2,5.3,2.2
			s3.9-0.8,5.3-2.2l2.4-2.4c0.7-0.7,0.7-1.9,0-2.6C21.3,26.5,20.1,26.5,19.4,27.2z"/>
	</g>
	<g>
		<path class="st0" d="M31.2,7.9c-1.4-1.4-3.3-2.2-5.3-2.2S22,6.5,20.5,7.9L18.4,10c-0.7,0.7-0.7,1.9,0,2.6c0.7,0.7,1.9,0.7,2.6,0
			l2.1-2.1c0.7-0.7,1.7-1.1,2.8-1.1s2,0.4,2.8,1.1l1,1c0.7,0.7,1.1,1.7,1.1,2.8s-0.4,2-1.1,2.8l-4,4c-0.7,0.7-1.7,1.1-2.8,1.1
			c-1,0-2-0.4-2.8-1.1l-0.9-0.9c-0.7-0.7-1.9-0.7-2.6,0s-0.7,1.9,0,2.6l0.9,0.9c1.4,1.4,3.3,2.2,5.3,2.2s3.9-0.8,5.3-2.2l4-4
			c1.4-1.4,2.2-3.3,2.2-5.3s-0.8-3.9-2.2-5.3L31.2,7.9z"/>
	</g>
</g>
</svg>
