<?xml version="1.0" encoding="utf-8"?>
<!-- Generator: Adobe Illustrator 20.0.0, SVG Export Plug-In . SVG Version: 6.00 Build 0)  -->
<svg version="1.1" id="Layer_1" xmlns="http://www.w3.org/2000/svg" xmlns:xlink="http://www.w3.org/1999/xlink" x="0px" y="0px"
	 viewBox="0 0 1920 480" style="enable-background:new 0 0 1920 480;" xml:space="preserve">
<style type="text/css">
	.st0{fill:#2C4355;}
	.st1{fill:#F27821;}
	.st2{fill:#FF9933;}
	.st3{fill:#3BDBA9;}
	.st4{fill:#FBC02C;}
</style>
<path class="st0" d="M1268.5,361.9c0-9.3,0-18.1,0-28.5c-2,2.3-3,3.3-3.9,4.5c-28.1,37.4-81.9,34.1-105.2-6.4
	c-18.5-32.2-15.3-80.9,7.1-108.7c21.4-26.6,60.7-36.7,94.8-24.3c2.2,0.8,4.4,1.5,7.2,2.5c0-13.9,0-27.1,0-40.3c0-13.2,0-26.3,0-40
	c14.6,0,28.8,0,43.5,0c0,80.4,0,160.6,0,241.2C1297.6,361.9,1283.6,361.9,1268.5,361.9z M1268.4,232.1c-11.3-1.2-22.1-3.2-33-3.4
	c-16.2-0.2-28.4,7.6-36,21.9c-8.3,15.6-9.2,32.1-4.9,48.8c4.8,18.6,21.8,31,39.2,29.4c18.9-1.8,33.9-16.6,34.7-35.9
	C1269,273.2,1268.4,253.6,1268.4,232.1z"/>
<path class="st0" d="M434,120.4c14.9,0,29,0,44,0c0,32.5,0,64.9,0,99.6c9.7-11.9,20-19.3,32.6-23.1c32.9-9.9,62.2,2.3,76.3,33.7
	c14.4,32,16.2,64.7-4,95.4c-14.9,22.7-37.8,33.5-63.8,37.3c-26.9,3.9-53.5,1.7-79.2-8.1c-4.4-1.7-6.3-3.7-6.3-8.8
	c0.2-73.4,0.1-146.8,0.1-220.3C433.7,124.5,433.9,122.8,434,120.4z M478.2,287.2c0,11.3,0.1,22.5-0.1,33.8c-0.1,3.7,1,6,4.8,6.4
	c8.8,0.9,17.6,2.8,26.4,2.5c20.7-0.8,35.4-13,41.2-33c4.2-14.5,3.4-29-2-43c-7.9-20.2-23.4-28.5-44.5-24.2
	c-17.5,3.5-25.8,13.6-25.8,31.5C478.2,270,478.2,278.6,478.2,287.2z"/>
<path class="st1" d="M1357.5,120.4c14.5,0,28.6,0,43.6,0c0,32.6,0,65,0,99.6c9.6-11.9,20-19.3,32.6-23.1
	c32.9-9.9,62.2,2.3,76.3,33.8c14.4,32,16.2,64.7-4,95.4c-14.9,22.7-37.8,33.5-63.8,37.3c-26.9,3.9-53.6,1.7-79.2-8.2
	c-3.4-1.3-6.3-2.4-6.3-7.3c0.2-74.9,0.1-149.7,0.2-224.6C1356.9,122.5,1357.2,121.8,1357.5,120.4z M1401.3,287.1
	c0,11.3,0.1,22.5-0.1,33.8c-0.1,3.7,0.8,6.1,4.7,6.5c9,0.9,18.1,2.9,27.1,2.4c20.7-1.1,35.3-13.5,40.8-33.5
	c4-14.3,3.2-28.5-2.2-42.3c-7.9-20.3-23.3-28.5-44.5-24.3c-17.6,3.5-25.8,13.5-25.8,31.4C1401.3,269.9,1401.3,278.5,1401.3,287.1z"
	/>
<path class="st1" d="M1722.4,279c-0.1,50.9-36.2,86.1-87.9,85.9c-52.3-0.2-88.1-35.4-88-86.6c0.1-50.9,36.5-86.2,88.7-85.9
	C1687,192.7,1722.5,228,1722.4,279z M1672.9,252.8c-6.6-15.6-18.9-24.7-36.1-25.5c-17-0.7-30.3,6.7-38.4,21.8
	c-10.6,19.8-10.4,40.2,0.4,59.8c7.9,14.5,21,21.6,37.4,21.1c16.5-0.5,29-8.7,35.7-23.7C1679,291.3,1680.3,268.5,1672.9,252.8z"/>
<path class="st0" d="M864.1,258.6c2.1-15.5-6.4-27.8-22.5-30.3c-19.5-3-38.1,0.9-54.8,9.7c-7.4-7-14.7-13.8-22.3-21
	c12.8-11.8,27.6-19.2,44.4-22.3c25-4.6,49.2-2.8,71.6,10.3c17.7,10.4,28.3,25.8,28.5,46.8c0.3,36.4,0.1,72.9,0.1,109.9
	c-14.5,0-28.8,0-43.9,0c0-7.2,0-14.4,0-23.6c-2.3,2.5-3.4,3.5-4.3,4.6c-19.7,23.1-57.8,28.3-83.1,11.1
	c-26.2-17.8-27.7-56.4-2.8-76.8c15.7-12.9,34.3-17.6,54.1-18.4C840.6,258.2,852.3,258.6,864.1,258.6z M825.8,330.2
	c18.8,0.7,32.9-11.7,37.5-31.3c2.7-11.4,2.3-12.6-9-13.8c-15.4-1.8-30.7-1.7-43.8,8.5c-6.6,5.1-9.8,11.8-8.3,20.1
	c1.4,7.5,6.8,11.9,13.7,14.3C819.6,329.1,823.7,329.7,825.8,330.2z"/>
<path class="st0" d="M996.6,362c-15.1,0-29.3,0-43.9,0c0-55.4,0-110.7,0-166.4c14.4,0,28.7,0,43.7,0c0,9.3,0,18.5,0,29.4
	c4.4-5.2,7.4-9.4,11.1-13c19.3-18.7,42.1-24.7,67.4-15.5c25.3,9.2,36.9,29.8,37.9,55.2c1.4,36.4,0.3,72.9,0.3,110
	c-14.6,0-29,0-44.3,0c0-2.7,0-5.3,0-7.8c0-28.1,0.2-56.2-0.1-84.2c-0.1-6.8-0.8-14-3-20.4c-4.7-13.9-15.3-21.4-29.9-21.8
	c-15.6-0.5-26.7,8-33,21.4c-3.6,7.6-5.7,16.5-5.9,24.8c-0.7,26.6-0.3,53.3-0.3,79.9C996.6,356.1,996.6,358.7,996.6,362z"/>
<path class="st1" d="M1859,322c7.9,7.5,15.6,14.7,23.6,22.2c-16.6,17.5-37,22.9-59.3,20.1c-36.4-4.6-58.3-29.1-59.4-66
	c-0.7-22.3-0.1-44.6-0.1-67.8c-8.5,0-16.5,0-25,0c0-12,0-23.2,0-35c7.9,0,15.7,0,24.4,0c0-12.9,0-25.3,0-38.2c15.1,0,29.2,0,44.2,0
	c0,12.5,0,24.8,0,37.8c17.5,0,34.1,0,51.2,0c0,11.8,0,23,0,34.8c-16.9,0-33.6,0-51.2,0c0,5.4,0,10.1,0,14.8c0,15.6-0.1,31.2,0,46.8
	c0,4.1,0.3,8.2,1,12.2c4,23.3,26.1,33.3,46.2,21.1C1856.3,323.8,1857.9,322.7,1859,322z"/>
<path class="st0" d="M676.9,362.2c-12.1,0-23.1,0-34.1,0c-3.1,0-6.2,0-9.9,0c0-55.6,0-110.9,0-166.6c14.4,0,28.6,0,43.7,0
	c0,12,0,24,0,36c12.9-21.7,29.1-37.6,56.2-39.1c0,12.5,0,24.6,0,36.7c-6.8,1.5-13.7,2.5-20.2,4.7c-23,7.6-35.8,25.6-35.8,49.8
	C676.9,309.6,676.9,335.5,676.9,362.2z"/>
<g>
	<g>
		<g>
			<path class="st2" d="M246.3,17.6c-5.6,13.9-1.9,29.7,8.3,40.8c9.3,11.1,25,15.8,38.9,13.9L246.3,17.6z"/>
		</g>
	</g>
	<g>
		<g>
			<path class="st2" d="M65.5,65.8c13.9,5.6,29.7,1.9,40.8-8.3c11.1-9.3,15.8-25,13.9-38.9L65.5,65.8z"/>
		</g>
	</g>
	<g>
		<path class="st0" d="M181.4,38.9c-48.2,0-87.1,29.7-87.1,65.8c0,1.9,14.8,179.8,14.8,179.8h151.1c0,0,8.3-178,8.3-179.8
			C269.5,68.5,230.5,38.9,181.4,38.9z M184.2,163.1c-8.3,0-13.9-5.6-13.9-13.9s5.6-13.9,13.9-13.9s13.9,5.6,13.9,13.9
			C197.2,157.5,190.7,163.1,184.2,163.1z M251.8,275.3h-57.5v-91.8c15.8-4.6,26.9-18.5,26.9-36.2c0-20.4-17.6-37.1-37.1-37.1
			c-21.3,0-37.1,16.7-37.1,37.1c0,17.6,11.1,31.5,26.9,36.2v91.8h-56.5c-4.6-52.8-13.9-165-13.9-171.5
			c-0.9-31.5,34.3-56.5,77.9-56.5c42.6,0,78.8,26,78.8,56.5C260.2,110.3,254.6,214.1,251.8,275.3z"/>
	</g>
	<g>
		<g>
			<g>
				<path class="st3" d="M56.2,303.1c0.9,2.8,1.9,6.5,2.8,9.3l0,0l-13,8.3c-1.9-4.6-4.6-8.3-5.6-13.9c-8.3-34.3,13-69.5,47.3-77.9
					l2.8,14.8C67.4,249.3,49.8,277.1,56.2,303.1z"/>
			</g>
			<g>
				<path class="st3" d="M46.1,324.4l-0.9-2.8c-1.9-4.6-4.6-8.3-5.6-13.9c-8.3-36.2,13-72.3,49.1-80.6l2.8-0.9l4.6,19.5l-3.7,0.9
					c-11.1,2.8-21.3,9.3-27.8,19.5c-6.5,11.1-9.3,24.1-6.5,36.2l3.7,11.1L46.1,324.4z M86.8,232.6c-31.5,9.3-50.1,41.7-42.6,74.2
					c0.9,3.7,1.9,7.4,3.7,10.2l8.3-5.6l-2.8-7.4c-2.8-13.9-0.9-27.8,6.5-39.9c6.5-11.1,16.7-18.5,28.7-21.3L86.8,232.6z"/>
			</g>
		</g>
	</g>
	<g>
		<g>
			<path class="st3" d="M259.3,292.9H110c-8.3,0-16.7,7.4-16.7,16.7V355c0,8.3,7.4,16.7,16.7,16.7h149.2c8.3,0,16.7-7.4,16.7-16.7
				v-46.4C275.9,300.3,267.6,292.9,259.3,292.9z M180.5,343.9c0,6.5-5.6,13-11.1,13h-26c-5.6,0-11.1-5.6-11.1-13v-21.3
				c0-6.5,5.6-13,11.1-13h26c5.6,0,11.1,5.6,11.1,13V343.9z M237,350.3c0,2.8-5.6,5.6-11.1,5.6h-26c-5.6,0-11.1-1.9-11.1-5.6V342
				c0-2.8,5.6-5.6,11.1-5.6h26c5.6,0,11.1,1.9,11.1,5.6V350.3z M237,325.3c0,2.8-5.6,5.6-11.1,5.6h-26c-5.6,0-11.1-1.9-11.1-5.6V317
				c0-2.8,5.6-5.6,11.1-5.6h26c5.6,0,11.1,1.9,11.1,5.6V325.3z"/>
		</g>
	</g>
	<g>
		<g>
			<path class="st0" d="M261.1,407.8c8.3,0,14.8,6.5,14.8,14.8v18.5c0,8.3-6.5,14.8-14.8,14.8H114.7c-8.3,0-14.8-6.5-14.8-14.8
				v-18.5c0-8.3,6.5-14.8,14.8-14.8H261.1 M261.1,401.3H114.7c-11.1,0-21.3,8.3-21.3,21.3v18.5c0,11.1,8.3,21.3,21.3,21.3h146.5
				c11.1,0,21.3-8.3,21.3-21.3v-18.5C282.4,411.5,274.1,401.3,261.1,401.3L261.1,401.3z"/>
		</g>
	</g>
	<g>
		<g>
			<circle class="st2" cx="250.9" cy="431.9" r="16.7"/>
		</g>
	</g>
	<g>
		<g>
			<circle class="st2" cx="187" cy="431.9" r="16.7"/>
		</g>
	</g>
	<g>
		<g>
			<circle class="st2" cx="123.9" cy="431.9" r="16.7"/>
		</g>
	</g>
	<g>
		<g>
			<g>
				<path class="st3" d="M312.1,292.9c-0.9,2.8-1.9,6.5-2.8,9.3l0,0l13,8.3c1.9-4.6,4.6-8.3,5.6-13.9c8.3-34.3-13-69.5-48.2-77.9
					l-2.8,14.8C301.9,239.1,318.6,265.1,312.1,292.9z"/>
			</g>
			<g>
				<path class="st3" d="M323.2,314.2l-16.7-11.1l3.7-11.1c2.8-13,0.9-25-6.5-36.2c-6.5-10.2-16.7-16.7-28.7-19.5l-2.8-0.9l4.6-19.5
					l2.8,0.9c17.6,4.6,33.4,14.8,42.6,30.6c9.3,14.8,12.1,33.4,7.4,51c-0.9,5.6-3.7,10.2-5.6,13.9L323.2,314.2z M312.1,301.2
					l8.3,5.6c1.9-2.8,2.8-6.5,3.7-10.2c3.7-15.8,0.9-32.4-7.4-46.4c-8.3-13-21.3-23.2-36.2-26.9l-1.9,9.3
					c12.1,2.8,22.2,10.2,29.7,21.3c7.4,12.1,10.2,26,6.5,39.9l0,0L312.1,301.2z"/>
			</g>
		</g>
	</g>
	<g>
		<g>
			<circle class="st4" cx="305.6" cy="332.7" r="14.8"/>
		</g>
	</g>
	<g>
		<g>
			<circle class="st4" cx="62.7" cy="336.4" r="14.8"/>
		</g>
	</g>
	<g>
		<g>
			<rect x="167.5" y="378.2" class="st0" width="37.1" height="13"/>
		</g>
	</g>
</g>
</svg>
