<?xml version="1.0" encoding="utf-8"?>
<!-- Generator: Adobe Illustrator 19.0.1, SVG Export Plug-In . SVG Version: 6.00 Build 0)  -->
<svg version="1.1" id="Layer_1" xmlns="http://www.w3.org/2000/svg" xmlns:xlink="http://www.w3.org/1999/xlink" x="0px" y="0px"
	 viewBox="0 0 37 51" style="enable-background:new 0 0 37 51;" xml:space="preserve">
<g>
	<path style="fill:#F27821;" d="M25.36,0.46c-0.5,1.5-0.23,3.23,0.88,4.52c1.11,1.29,2.77,1.82,4.33,1.55L25.36,0.46z"/>
	<path style="fill:#F27821;" d="M5.24,5.77C6.74,6.27,8.47,6,9.76,4.89s1.82-2.77,1.55-4.33L5.24,5.77z"/>
	<g>
		<g>
			<path style="fill:#E1E2E4;" d="M19.35,41.23h-1.37c-0.79,0-1.43-0.06-1.43-0.14v-0.43c0-0.08,0.64-0.14,1.43-0.14h1.37
				c0.79,0,1.43,0.06,1.43,0.14v0.43C20.78,41.17,20.14,41.23,19.35,41.23z"/>
			<path style="fill:#E1E2E4;" d="M19.35,42.24h-1.37c-0.79,0-1.43-0.06-1.43-0.14v-0.43c0-0.08,0.64-0.14,1.43-0.14h1.37
				c0.79,0,1.43,0.06,1.43,0.14v0.43C20.78,42.17,20.14,42.24,19.35,42.24z"/>
			<path style="fill:#E1E2E4;" d="M19.35,43.28h-1.37c-0.79,0-1.43-0.06-1.43-0.14v-0.43c0-0.08,0.64-0.14,1.43-0.14h1.37
				c0.79,0,1.43,0.06,1.43,0.14v0.43C20.78,43.22,20.14,43.28,19.35,43.28z"/>
		</g>
	</g>
	<g>
		<path style="fill:#5CC1A4;" d="M2.17,32.99c0.09,0.39,0.23,0.75,0.39,1.1l0,0l-1.42,0.87c-0.25-0.49-0.45-1.02-0.58-1.58
			c-0.93-3.84,1.44-7.71,5.28-8.63l0.39,1.61C3.28,27.06,1.46,30.03,2.17,32.99z"/>
	</g>
	<circle style="fill:#FBC02C;" cx="7.91" cy="25.14" r="1.23"/>
	<path style="fill:#5CC1A4;" d="M26.75,31H10.19c-1.04,0-1.88,0.84-1.88,1.88v5.15c0,1.04,0.84,1.88,1.88,1.88h16.57
		c1.04,0,1.88-0.84,1.88-1.88v-5.15C28.63,31.84,27.79,31,26.75,31z M18.02,36.7c0,0.76-0.55,1.38-1.23,1.38h-2.89
		c-0.68,0-1.23-0.62-1.23-1.38v-2.33c0-0.76,0.55-1.38,1.23-1.38h2.89c0.68,0,1.23,0.62,1.23,1.38V36.7z M24.3,37.47
		c0,0.34-0.55,0.61-1.23,0.61h-2.89c-0.68,0-1.23-0.27-1.23-0.61v-1.03c0-0.34,0.55-0.61,1.23-0.61h2.89c0.68,0,1.23,0.27,1.23,0.61
		V37.47z M24.3,34.63c0,0.34-0.55,0.61-1.23,0.61h-2.89c-0.68,0-1.23-0.27-1.23-0.61V33.6c0-0.34,0.55-0.61,1.23-0.61h2.89
		c0.68,0,1.23,0.27,1.23,0.61V34.63z"/>
	<path style="fill:#E1E2E4;" d="M27.06,44.75c0.91,0,1.65,0.74,1.65,1.65v2.07c0,0.91-0.74,1.65-1.65,1.65H10.73
		c-0.91,0-1.65-0.74-1.65-1.65V46.4c0-0.91,0.74-1.65,1.65-1.65H27.06 M27.06,44.08H10.73c-1.28,0-2.32,1.04-2.32,2.32v2.07
		c0,1.28,1.04,2.32,2.32,2.32h16.32c1.28,0,2.32-1.04,2.32-2.32V46.4C29.37,45.12,28.33,44.08,27.06,44.08L27.06,44.08z"/>
	<circle style="fill:#F27821;" cx="25.84" cy="47.43" r="1.89"/>
	<circle style="fill:#F27821;" cx="18.68" cy="47.43" r="1.89"/>
	<circle style="fill:#F27821;" cx="11.82" cy="47.43" r="1.89"/>
	<circle style="fill:#FBC02C;" cx="29.02" cy="25.24" r="1.23"/>
	<g>
		<path style="fill:#5CC1A4;" d="M34.83,32.81c-0.09,0.39-0.22,0.75-0.39,1.1l0,0l1.42,0.87c0.25-0.49,0.45-1.02,0.58-1.58
			c0.92-3.84-1.46-7.7-5.3-8.62l-0.38,1.61C33.71,26.89,35.53,29.86,34.83,32.81z"/>
	</g>
	<circle style="fill:#FBC02C;" cx="34.18" cy="36.04" r="1.6"/>
	<circle style="fill:#FBC02C;" cx="3.11" cy="36.04" r="1.6"/>
	<path style="fill:#E1E2E4;" d="M18.19,2.83c-5.37,0-9.71,3.19-9.71,7.23c0,0.29,1.62,19.94,1.62,19.94h16.84
		c0,0,0.97-19.78,0.97-19.94C27.9,6.01,23.55,2.83,18.19,2.83z M18.47,16.78c-0.92,0-1.67-0.75-1.67-1.67s0.75-1.67,1.67-1.67
		s1.67,0.75,1.67,1.67S19.39,16.78,18.47,16.78z M26,29h-6.37V18.66c2-0.47,2.85-1.99,2.85-3.8c0-2.19-1.8-3.97-3.99-3.97
		s-4.07,1.78-4.07,3.97c0,1.97,1.22,3.59,3.22,3.9V29h-6.65c-0.48-6-1.51-18.31-1.54-18.97c0.01-3.5,3.93-6.28,8.74-6.28
		c4.81,0,8.73,2.76,8.74,6.26C26.91,10.52,26.34,22,26,29z"/>
</g>
</svg>
