<?xml version="1.0" encoding="utf-8"?>
<!-- Generator: Adobe Illustrator 20.0.0, SVG Export Plug-In . SVG Version: 6.00 Build 0)  -->
<svg version="1.1" id="Layer_1" xmlns="http://www.w3.org/2000/svg" xmlns:xlink="http://www.w3.org/1999/xlink" x="0px" y="0px"
	 viewBox="0 0 400 400" style="enable-background:new 0 0 400 400;" xml:space="preserve">
<style type="text/css">
	.st0{fill:#595959;}
</style>
<g>
	<path class="st0" d="M339.6,316.3H60.4v-17.6c0-10.7,3.7-21,10.5-29.3l13-15.7v-52.3c0-64.4,51.9-117,115.7-117.3
		c0.1,0,0.3,0,0.4,0c30.9,0,60,12,82,33.9c22,21.9,34.2,51.2,34.2,82.2v53.6l16,19.8c4.8,6,7.5,13.5,7.5,21.2V316.3z M81.6,295.3
		h236.9v-0.5c0-2.9-1-5.8-2.8-8l-20.6-25.6v-61c0-25.5-9.9-49.4-28-67.4c-18-17.9-41.8-27.7-67.1-27.7c-0.1,0-0.2,0-0.3,0
		c-52.3,0.2-94.8,43.4-94.8,96.3v59.9l-17.8,21.5C84.2,286.3,82.3,290.7,81.6,295.3z"/>
</g>
<g>
	<path class="st0" d="M200,376.1c-25.2,0-45.7-20.5-45.7-45.7v-10.5h91.4v10.5C245.7,355.6,225.2,376.1,200,376.1z M177.6,340.9
		c4,8.4,12.5,14.2,22.4,14.2s18.4-5.8,22.4-14.2H177.6z"/>
</g>
<g>
	<path class="st0" d="M234,80.2H166V28.9H234V80.2z M187,59.2H213v-9.2H187V59.2z"/>
</g>
</svg>
