<?xml version="1.0" encoding="utf-8"?>
<!-- Generator: Adobe Illustrator 19.0.1, SVG Export Plug-In . SVG Version: 6.00 Build 0)  -->
<svg version="1.1" id="Layer_1" xmlns="http://www.w3.org/2000/svg" xmlns:xlink="http://www.w3.org/1999/xlink" x="0px" y="0px"
	 viewBox="0 0 200 200" style="enable-background:new 0 0 200 200;" xml:space="preserve">
<style type="text/css">
	.st0{fill:none;stroke:#CAE2EF;stroke-width:3;stroke-miterlimit:10;}
	.st1{fill:#DCEEF7;}
	.st2{fill:#FFFFFF;stroke:#64B6EE;stroke-width:2;stroke-miterlimit:10;}
	.st3{fill:none;stroke:#64B6EE;stroke-width:2;stroke-miterlimit:10;}
	.st4{fill:#FFFFFF;}
	.st5{fill:#64B6EE;}
</style>
<line class="st0" x1="52" y1="137.5" x2="146" y2="137.5"/>
<circle class="st1" cx="100" cy="96.3" r="94.3"/>
<path class="st2" d="M120.1,174.7H42.2c-2.3,0-4.2-1.9-4.2-4.2V18.9c0-2.3,1.9-4.2,4.2-4.2h114.2c2.3,0,4.2,1.9,4.2,4.2v123.5"/>
<path class="st0" d="M87.3,116.5H55.7c-2.3,0-4.2-2-4.2-4.5V56.8c0-2.5,1.9-4.5,4.2-4.5h86.7c2.3,0,4.2,2,4.2,4.5V112
	c0,2.5-1.9,4.5-4.2,4.5h-29.8"/>
<circle class="st2" cx="99.3" cy="92.3" r="27.6"/>
<g>
	<line class="st2" x1="100" y1="76.8" x2="100" y2="107.7"/>
	<line class="st2" x1="114.1" y1="92.3" x2="84.5" y2="92.3"/>
</g>
<line class="st0" x1="54" y1="29.5" x2="97" y2="29.5"/>
<line class="st0" x1="54" y1="36.5" x2="85" y2="36.5"/>
<line class="st0" x1="52" y1="127.5" x2="146" y2="127.5"/>
<line class="st0" x1="52" y1="137.5" x2="100" y2="137.5"/>
<line class="st0" x1="53" y1="153.5" x2="73" y2="153.5"/>
<circle class="st2" cx="152.9" cy="159.2" r="36.1"/>
<g>
	<path class="st4" d="M134.6,147.2c-2.4,3.5-3.8,7.8-3.8,12.4c0,12.2,9.9,22.2,22.2,22.2c3.3,0,6.5-0.7,9.3-2.1"/>
	<g>
		<path class="st3" d="M134.6,147.2c-2.4,3.5-3.8,7.8-3.8,12.4c0,12.2,9.9,22.2,22.2,22.2c3.3,0,6.5-0.7,9.3-2.1"/>
		<g>
			<polygon class="st5" points="127.3,147.9 127.6,149.2 134.3,147.7 135.4,154.5 136.8,154.3 135.5,146 			"/>
		</g>
	</g>
</g>
<g>
	<path class="st4" d="M172.7,169.7c1.6-3,2.4-6.5,2.4-10.1c0-12.2-9.9-22.2-22.2-22.2c-3.3,0-6.4,0.7-9.2,2"/>
	<g>
		<path class="st3" d="M172.7,169.7c1.6-3,2.4-6.5,2.4-10.1c0-12.2-9.9-22.2-22.2-22.2c-3.3,0-6.4,0.7-9.2,2"/>
		<g>
			<polygon class="st5" points="179.9,168.2 179.5,166.9 173,169.3 171.1,162.6 169.8,163 172,171.1 			"/>
		</g>
	</g>
</g>
</svg>
