<?xml version="1.0" encoding="utf-8"?>
<!-- Generator: Adobe Illustrator 19.0.1, SVG Export Plug-In . SVG Version: 6.00 Build 0)  -->
<svg version="1.1" id="Layer_1" xmlns="http://www.w3.org/2000/svg" xmlns:xlink="http://www.w3.org/1999/xlink" x="0px" y="0px"
	 viewBox="0 0 800 400" style="enable-background:new 0 0 800 400;" xml:space="preserve">
<style type="text/css">
	.st0{fill:#6ED36E;}
	.st1{fill:#A7B7C4;}
</style>
<g>
	<g>
		<g>
			<g>
				<path class="st0" d="M579.9,357.5c-86.8,0-157.5-70.7-157.5-157.5S493.1,42.5,579.9,42.5S737.4,113.2,737.4,200
					S666.8,357.5,579.9,357.5z M579.9,57.5c-78.6,0-142.5,63.9-142.5,142.5c0,78.6,63.9,142.5,142.5,142.5S722.4,278.6,722.4,200
					C722.4,121.4,658.5,57.5,579.9,57.5z"/>
			</g>
		</g>
		<g>
			<polygon class="st0" points="556.9,262.6 499.6,205.3 510.2,194.7 556.9,241.4 651.6,146.7 662.2,157.3 			"/>
		</g>
	</g>
	<g>
		<path class="st1" d="M124,289.3c0,6.5,0.8,9,1.2,9.6c1.2,0,4.1-0.8,12.1-5.2l53.9-31.6c1.7-1,3.6-1.2,5.5-1.2H316V116H124V289.3z"
			/>
		<path class="st1" d="M378,63.7c0-11.5-9.3-20.7-20.7-20.7H83.7C72.3,43,63,52.3,63,63.7v273.5c0,11.5,9.3,20.7,20.7,20.7h273.5
			c11.5,0,20.7-9.3,20.7-20.7V63.7z M331,264.3c0,6-5.3,11.7-11.3,11.7h-122l-53.2,31.1c-6.6,3.7-13.4,7-19.8,7
			c-2.6,0-4.9-0.7-7.2-2.1c-7.9-4.6-8.6-15.2-8.6-22.8V111.6c0-6,4.5-10.6,10.5-10.6h200.2c6,0,11.3,4.6,11.3,10.6V264.3z"/>
	</g>
</g>
</svg>
