<?xml version="1.0" encoding="utf-8"?>
<!-- Generator: Adobe Illustrator 20.0.0, SVG Export Plug-In . SVG Version: 6.00 Build 0)  -->
<svg version="1.1" id="Layer_1" xmlns="http://www.w3.org/2000/svg" xmlns:xlink="http://www.w3.org/1999/xlink" x="0px" y="0px"
	 viewBox="0 0 100 70" style="enable-background:new 0 0 100 70;" xml:space="preserve">
<style type="text/css">
	.st0{fill:none;stroke:#C6C6C6;stroke-width:15;stroke-miterlimit:10;}
	.st1{fill:#229BBD;}
	.st2{fill:#A7B7C4;}
	.st3{fill:#6ED36E;}
</style>
<g>
	<g>
		<path class="st1" d="M72.5,68c-13.3,0-24.2-10.8-24.2-24.2s10.8-24.2,24.2-24.2s24.2,10.8,24.2,24.2S85.9,68,72.5,68z M72.5,22
			c-12,0-21.8,9.8-21.8,21.8s9.8,21.8,21.8,21.8s21.8-9.8,21.8-21.8S84.6,22,72.5,22z"/>
	</g>
	<g>
		<polygon class="st1" points="87.9,46.2 71.4,46.2 71.4,25.8 73.7,25.8 73.7,43.8 87.9,43.8 		"/>
	</g>
	<g>
		<rect x="53.4" y="43.8" class="st1" width="3.8" height="2.4"/>
	</g>
	<g>
		<rect x="71.4" y="58.4" class="st1" width="2.4" height="3.8"/>
	</g>
	<g>
		<path class="st2" d="M9.9,66.3c-1.1,0-2.3-0.3-3.2-0.8c-2.1-1.1-3.3-3.3-3.3-5.6V8.4c0-3.5,3-6.4,6.6-6.4h57.4
			c3.6,0,6.6,2.9,6.6,6.4l0,8.7h-2.4l0-8.7c0-2.2-1.9-4.1-4.2-4.1H9.9c-2.3,0-4.2,1.8-4.2,4.1v51.4c0,1.4,0.8,2.8,2.1,3.5
			c0.6,0.4,1.4,0.5,2.1,0.5c0.8,0,1.5-0.2,2.2-0.6l18.3-10.5h15.9v2.4H31L13.2,65.4C12.2,66,11.1,66.3,9.9,66.3z"/>
	</g>
</g>
</svg>
