<?xml version="1.0" encoding="utf-8"?>
<!-- Generator: Adobe Illustrator 20.0.0, SVG Export Plug-In . SVG Version: 6.00 Build 0)  -->
<svg version="1.1" id="Layer_1" xmlns="http://www.w3.org/2000/svg" xmlns:xlink="http://www.w3.org/1999/xlink" x="0px" y="0px"
	 viewBox="0 0 100 70" style="enable-background:new 0 0 100 70;" xml:space="preserve">
<style type="text/css">
	.st0{fill:none;stroke:#C6C6C6;stroke-width:15;stroke-miterlimit:10;}
	.st1{fill:#229BBD;}
	.st2{fill:#A7B7C4;}
	.st3{fill:#6ED36E;}
</style>
<g>
	<g>
		<path class="st3" d="M71.4,68.3c-13.6,0-24.8-11.1-24.8-24.8s11.1-24.8,24.8-24.8s24.8,11.1,24.8,24.8S85,68.3,71.4,68.3z
			 M71.4,21.2C59,21.2,49,31.2,49,43.6S59,66,71.4,66s22.4-10,22.4-22.4S83.7,21.2,71.4,21.2z"/>
	</g>
	<g>
		<polygon class="st3" points="67.8,53 58.8,44 60.4,42.3 67.8,49.6 82.6,34.7 84.3,36.4 		"/>
	</g>
	<path class="st2" d="M70.1,1.7H6.5c-1.5,0-2.7,1.1-2.7,2.5v47.8c0,1.4,1.2,2.5,2.7,2.5h38.4v-2.4H6.5c-0.2,0-0.3-0.1-0.3-0.2V6.6
		l30.3,21.3l0.1,0.1c0.6,0.3,1.2,0.5,1.8,0.5s1.2-0.2,1.8-0.5l0.1,0L70.4,6.4v10.2h2.4V4.2C72.7,2.8,71.6,1.7,70.1,1.7z M39,25.9
		c-0.4,0.2-0.8,0.2-1.2,0L6.7,4h63L39,25.9z"/>
</g>
</svg>
