<?xml version="1.0" encoding="utf-8"?>
<!-- Generator: Adobe Illustrator 20.0.0, SVG Export Plug-In . SVG Version: 6.00 Build 0)  -->
<svg version="1.1" id="Layer_1" xmlns="http://www.w3.org/2000/svg" xmlns:xlink="http://www.w3.org/1999/xlink" x="0px" y="0px"
	 viewBox="0 0 100 70" style="enable-background:new 0 0 100 70;" xml:space="preserve">
<style type="text/css">
	.st0{fill:none;stroke:#C6C6C6;stroke-width:15;stroke-miterlimit:10;}
	.st1{fill:#229BBD;}
	.st2{fill:#A7B7C4;}
	.st3{fill:#6ED36E;}
</style>
<g>
	<g>
		<path class="st3" d="M72.2,68.3c-13.6,0-24.8-11.1-24.8-24.8s11.1-24.8,24.8-24.8S97,29.9,97,43.5S85.9,68.3,72.2,68.3z
			 M72.2,21.2c-12.3,0-22.4,10-22.4,22.4s10,22.4,22.4,22.4s22.4-10,22.4-22.4S84.6,21.2,72.2,21.2z"/>
	</g>
	<g>
		<polygon class="st3" points="68.6,52.9 59.6,43.9 61.3,42.2 68.6,49.6 83.5,34.7 85.2,36.4 		"/>
	</g>
	<g>
		<path class="st2" d="M9.6,65.9c-1.1,0-2.3-0.3-3.2-0.8C4.3,63.9,3,61.8,3,59.5V8.1c0-3.5,3-6.4,6.6-6.4H67c3.6,0,6.6,2.9,6.6,6.4
			v8.3h-2.4V8.1c0-2.2-1.9-4-4.2-4H9.6c-2.3,0-4.2,1.8-4.2,4v51.4c0,1.4,0.8,2.8,2.1,3.5c0.6,0.4,1.4,0.5,2.1,0.5
			c0.8,0,1.5-0.2,2.2-0.6l18.3-10.5H46v2.4H30.7L12.9,65C11.9,65.6,10.8,65.9,9.6,65.9z"/>
	</g>
</g>
</svg>
