<?xml version="1.0" encoding="utf-8"?>
<!-- Generator: Adobe Illustrator 20.0.0, SVG Export Plug-In . SVG Version: 6.00 Build 0)  -->
<svg version="1.1" id="Layer_1" xmlns="http://www.w3.org/2000/svg" xmlns:xlink="http://www.w3.org/1999/xlink" x="0px" y="0px"
	 viewBox="0 0 100 70" style="enable-background:new 0 0 100 70;" xml:space="preserve">
<style type="text/css">
	.st0{fill:none;stroke:#C6C6C6;stroke-width:15;stroke-miterlimit:10;}
	.st1{fill:#229BBD;}
	.st2{fill:#A7B7C4;}
	.st3{fill:#6ED36E;}
</style>
<g>
	<path class="st2" d="M70.1,1.4H6.5c-1.5,0-2.7,1.1-2.7,2.5v47.8c0,1.4,1.2,2.5,2.7,2.5h38.4v-2.4H6.5c-0.2,0-0.3-0.1-0.3-0.2V6.3
		l30.3,21.3l0.1,0.1c0.6,0.3,1.2,0.5,1.8,0.5s1.2-0.2,1.8-0.5l0.1,0L70.4,6.2v10.2h2.4V3.9C72.7,2.5,71.6,1.4,70.1,1.4z M39,25.6
		c-0.4,0.2-0.8,0.2-1.2,0L6.7,3.8h63L39,25.6z"/>
	<g>
		<rect x="52" y="43.1" class="st1" width="3.8" height="2.4"/>
	</g>
	<g>
		<path class="st1" d="M71.4,68.6c-13.6,0-24.8-11.1-24.8-24.8s11.1-24.8,24.8-24.8s24.8,11.1,24.8,24.8S85,68.6,71.4,68.6z
			 M71.4,21.4C59,21.4,49,31.5,49,43.8s10,22.4,22.4,22.4s22.4-10,22.4-22.4S83.7,21.4,71.4,21.4z"/>
	</g>
	<g>
		<polygon class="st1" points="87.1,46.2 70.2,46.2 70.2,25.4 72.6,25.4 72.6,43.8 87.1,43.8 		"/>
	</g>
	<g>
		<rect x="70.2" y="58.8" class="st1" width="2.4" height="3.9"/>
	</g>
</g>
</svg>
