<?xml version="1.0" encoding="utf-8"?>
<!-- Generator: Adobe Illustrator 20.0.0, SVG Export Plug-In . SVG Version: 6.00 Build 0)  -->
<svg version="1.1" id="Layer_1" xmlns="http://www.w3.org/2000/svg" xmlns:xlink="http://www.w3.org/1999/xlink" x="0px" y="0px"
	 viewBox="0 0 30 30" style="enable-background:new 0 0 30 30;" xml:space="preserve">
<style type="text/css">
	.st0{fill:#D1D9E0;}
	.st1{fill:#33D383;}
</style>
<g>
	<path class="st0" d="M25.6,28.3H4.4c-1.5,0-2.7-1.2-2.7-2.7V4.4c0-1.5,1.2-2.7,2.7-2.7h21.2c1.5,0,2.7,1.2,2.7,2.7v21.2
		C28.3,27.1,27.1,28.3,25.6,28.3z M4.4,4.1c-0.2,0-0.3,0.1-0.3,0.3v21.2c0,0.2,0.1,0.3,0.3,0.3h21.2c0.2,0,0.3-0.1,0.3-0.3V4.4
		c0-0.2-0.1-0.3-0.3-0.3H4.4z"/>
</g>
</svg>
