<?xml version="1.0" encoding="utf-8"?>
<!-- Generator: Adobe Illustrator 19.0.1, SVG Export Plug-In . SVG Version: 6.00 Build 0)  -->
<svg version="1.1" id="Layer_1" xmlns="http://www.w3.org/2000/svg" xmlns:xlink="http://www.w3.org/1999/xlink" x="0px" y="0px"
	 viewBox="-134 136 30 30" style="enable-background:new -134 136 30 30;" xml:space="preserve">
<style type="text/css">
	.st0{fill:#70D667;}
	.st1{fill:#33D383;}
	.st2{fill:#229BBD;}
	.st3{fill:#D1D9E0;}
	.st4{fill:#FECF37;}
</style>
<g>
	<g>
		<path class="st1" d="M-119,164.5c-7.4,0-13.5-6.1-13.5-13.5s6.1-13.5,13.5-13.5s13.5,6.1,13.5,13.5S-111.6,164.5-119,164.5z
			 M-119,139.9c-6.1,0-11.1,5-11.1,11.1s5,11.1,11.1,11.1s11.1-5,11.1-11.1S-112.9,139.9-119,139.9z"/>
	</g>
</g>
<polygon class="st1" points="-116.4,145.5 -118.1,147.2 -115.5,149.8 -127.1,149.8 -127.1,152.2 -115.5,152.2 -118.1,154.8 
	-116.4,156.5 -110.9,151 "/>
</svg>
