<?xml version="1.0" encoding="utf-8"?>
<!-- Generator: Adobe Illustrator 19.0.1, SVG Export Plug-In . SVG Version: 6.00 Build 0)  -->
<svg version="1.1" id="Layer_1" xmlns="http://www.w3.org/2000/svg" xmlns:xlink="http://www.w3.org/1999/xlink" x="0px" y="0px"
	 viewBox="-134 136 30 30" style="enable-background:new -134 136 30 30;" xml:space="preserve">
<style type="text/css">
	.st0{fill:#FFFFFF;}
</style>
<g>
	<g>
		<path class="st0" d="M-119.5,164.5c-7.4,0-13.5-6.1-13.5-13.5s6.1-13.5,13.5-13.5s13.5,6.1,13.5,13.5S-112.1,164.5-119.5,164.5z
			 M-119.5,139.9c-6.1,0-11.1,5-11.1,11.1s5,11.1,11.1,11.1s11.1-5,11.1-11.1S-113.4,139.9-119.5,139.9z"/>
	</g>
</g>
<polygon class="st0" points="-116.9,145.5 -118.6,147.2 -116,149.8 -127.6,149.8 -127.6,152.2 -116,152.2 -118.6,154.8 
	-116.9,156.5 -111.4,151 "/>
</svg>
