<?xml version="1.0" encoding="utf-8"?>
<!-- Generator: Adobe Illustrator 20.0.0, SVG Export Plug-In . SVG Version: 6.00 Build 0)  -->
<svg version="1.1" id="Layer_1" xmlns="http://www.w3.org/2000/svg" xmlns:xlink="http://www.w3.org/1999/xlink" x="0px" y="0px"
	 viewBox="0 0 40 40" style="enable-background:new 0 0 40 40;" xml:space="preserve">
<style type="text/css">
	.st0{fill:#FFFFFF;}
</style>
<g>
	<g>
		<path class="st0" d="M29.4,29.8c-2.2,0-4-1.9-4-4.2c0-1.7,1.9-4.9,2.7-6.1c0.6-0.9,2-0.9,2.5,0c0.8,1.3,2.7,4.4,2.7,6.1
			C33.4,27.9,31.6,29.8,29.4,29.8z M28.4,25.6c0,0.6,0.5,1.2,1,1.2s1-0.5,1-1.2c0-0.4-0.4-1.3-1-2.4C28.8,24.4,28.4,25.2,28.4,25.6z
			"/>
	</g>
	<g>
		<path class="st0" d="M21.9,29.2l-1.4-3.6h-8.7l-1.4,3.6H6.6l7.5-19h4.2l7.5,19H21.9z M16.1,13.5l-3.4,9.1h6.8L16.1,13.5z"/>
	</g>
</g>
</svg>
