<?xml version="1.0" encoding="utf-8"?>
<!-- Generator: Adobe Illustrator 20.0.0, SVG Export Plug-In . SVG Version: 6.00 Build 0)  -->
<svg version="1.1" id="Layer_1" xmlns="http://www.w3.org/2000/svg" xmlns:xlink="http://www.w3.org/1999/xlink" x="0px" y="0px"
	 viewBox="0 0 40 40" style="enable-background:new 0 0 40 40;" xml:space="preserve">
<style type="text/css">
	.st0{fill:#FFFFFF;}
</style>
<g>
	<path class="st0" d="M33.4,18.1H6.6c-1.2,0-1.2,0-1.2,1.2v1.2c0,1.2,0,1.2,1.2,1.2h26.9c1.2,0,1.2,0,1.2-1.2v-1.2
		C34.7,18.1,34.7,18.1,33.4,18.1z M33.9,25.4H16c-0.8,0-0.8,0-0.8,1.2v1.2c0,1.2,0,1.2,0.8,1.2h17.9c0.8,0,0.8,0,0.8-1.2v-1.2
		C34.7,25.4,34.7,25.4,33.9,25.4z M33.4,32.8H6.6c-1.2,0-1.2,0-1.2,1.2v1.2c0,1.2,0,1.2,1.2,1.2h26.9c1.2,0,1.2,0,1.2-1.2V34
		C34.7,32.8,34.7,32.8,33.4,32.8z M33.9,10.8H16c-0.8,0-0.8,0-0.8,1.2v1.2c0,1.2,0,1.2,0.8,1.2h17.9c0.8,0,0.8,0,0.8-1.2V12
		C34.7,10.8,34.7,10.8,33.9,10.8z M33.4,3.6H6.6c-1.2,0-1.2,0-1.2,1.2V6c0,1.2,0,1.2,1.2,1.2h26.9c1.2,0,1.2,0,1.2-1.2V4.8
		C34.7,3.6,34.7,3.6,33.4,3.6z"/>
</g>
</svg>
