<?xml version="1.0" encoding="utf-8"?>
<!-- Generator: Adobe Illustrator 19.0.1, SVG Export Plug-In . SVG Version: 6.00 Build 0)  -->
<svg version="1.1" id="Layer_1" xmlns="http://www.w3.org/2000/svg" xmlns:xlink="http://www.w3.org/1999/xlink" x="0px" y="0px"
	 viewBox="0 0 200 200" style="enable-background:new 0 0 200 200;" xml:space="preserve">
<style type="text/css">
	.st0{fill:#D2D3D5;}
</style>
<g>
	<path class="st0" d="M99.2,193C47.8,193,6,151.2,6,99.8S47.8,6.5,99.2,6.5s93.2,41.8,93.2,93.2S150.7,193,99.2,193z M99.2,15.4
		c-46.5,0-84.4,37.8-84.4,84.4s37.8,84.4,84.4,84.4s84.4-37.8,84.4-84.4S145.8,15.4,99.2,15.4z"/>
</g>
<g>
	<polygon class="st0" points="158.5,108.6 94.8,108.6 94.8,30.2 103.7,30.2 103.7,99.8 158.5,99.8 	"/>
</g>
<g>
	<rect x="25.2" y="99.8" class="st0" width="14.8" height="8.9"/>
</g>
<g>
	<rect x="94.8" y="156" class="st0" width="8.9" height="14.8"/>
</g>
</svg>
