<?xml version="1.0" encoding="utf-8"?>
<!-- Generator: Adobe Illustrator 20.0.0, SVG Export Plug-In . SVG Version: 6.00 Build 0)  -->
<svg version="1.1" id="Layer_1" xmlns="http://www.w3.org/2000/svg" xmlns:xlink="http://www.w3.org/1999/xlink" x="0px" y="0px"
	 viewBox="0 0 40 40" style="enable-background:new 0 0 40 40;" xml:space="preserve">
<style type="text/css">
	.st0{fill:#FFFFFF;}
</style>
<g id="Your_Icon">
	<g>
		<path class="st0" d="M31,9.4h-3.7h-1.5l-1-2.5l0,0c-0.2-0.6-0.7-1-1.1-1.3C23,5.2,22.5,5,21.9,5h-4c-0.7,0-1.3,0.2-1.8,0.6
			c-0.4,0.3-0.8,0.7-1.1,1.3l-0.8,2.5l0,0h-1.4H9c-0.7,0-1.3,0.6-1.3,1.3S8.3,12,9,12h1.3v20.6c0,0.6,0.3,1.2,0.7,1.7
			c0.5,0.4,1.1,0.7,1.8,0.7h14.5c0.6,0,1.2-0.3,1.7-0.7c0.4-0.4,0.7-1,0.7-1.7V12.1H31c0.7,0,1.3-0.6,1.3-1.3S31.7,9.4,31,9.4z
			 M17,7.6c0-0.1,0.2-0.3,0.4-0.4C17.5,7.1,17.7,7,17.8,7h4c0.1,0,0.3,0.1,0.5,0.2s0.3,0.3,0.4,0.4l0,0l0.8,1.8h-7.2L17,7.6z
			 M27.6,32.6c0,0.1,0,0.2-0.1,0.2c-0.1,0.1-0.1,0.1-0.2,0.1H12.8c-0.1,0-0.2,0-0.2-0.1c-0.1-0.1-0.1-0.1-0.1-0.2V12.1h15.2v20.5
			H27.6z"/>
		<path class="st0" d="M15.4,30.6c0.6,0,1-0.5,1-1V15.1c0-0.6-0.5-1-1-1s-1,0.5-1,1v14.5C14.4,30.2,14.9,30.6,15.4,30.6z"/>
		<path class="st0" d="M24.2,30.6c0.6,0,1-0.5,1-1V15.1c0-0.6-0.5-1-1-1c-0.6,0-1,0.5-1,1v14.5C23.2,30.2,23.7,30.6,24.2,30.6z"/>
		<path class="st0" d="M19.8,30.6c0.6,0,1-0.5,1-1V15.1c0-0.6-0.5-1-1-1c-0.6,0-1,0.5-1,1v14.5C18.8,30.2,19.3,30.6,19.8,30.6z"/>
	</g>
</g>
</svg>
