<?xml version="1.0" encoding="utf-8"?>
<!-- Generator: Adobe Illustrator 19.0.1, SVG Export Plug-In . SVG Version: 6.00 Build 0)  -->
<svg version="1.1" id="Layer_1" xmlns="http://www.w3.org/2000/svg" xmlns:xlink="http://www.w3.org/1999/xlink" x="0px" y="0px"
	 viewBox="0 0 25 30" style="enable-background:new 0 0 25 30;" xml:space="preserve">
<style type="text/css">
	.st0{fill:#888888;}
</style>
<g id="Your_Icon">
	<g>
		<path class="st0" d="M23.5,4.4h-3.7h-1.5l-1-2.5l0,0c-0.2-0.6-0.7-1-1.1-1.3C15.5,0.2,15,0,14.4,0h-4C9.7,0,9.1,0.2,8.6,0.6
			C8.2,0.9,7.8,1.3,7.5,1.9L6.7,4.4l0,0H5.3H1.5C0.8,4.4,0.2,5,0.2,5.7s0.6,1.3,1.3,1.3h1.3v20.6c0,0.6,0.3,1.2,0.7,1.7
			C4,29.7,4.6,30,5.3,30h14.5c0.6,0,1.2-0.3,1.7-0.7c0.4-0.4,0.7-1,0.7-1.7V7.1h1.3c0.7,0,1.3-0.6,1.3-1.3S24.2,4.4,23.5,4.4z
			 M9.5,2.6c0-0.1,0.2-0.3,0.4-0.4C10,2.1,10.2,2,10.3,2h4c0.1,0,0.3,0.1,0.5,0.2c0.2,0.1,0.3,0.3,0.4,0.4l0,0L16,4.4H8.8L9.5,2.6z
			 M20.1,27.6c0,0.1,0,0.2-0.1,0.2c-0.1,0.1-0.1,0.1-0.2,0.1H5.3c-0.1,0-0.2,0-0.2-0.1c-0.1-0.1-0.1-0.1-0.1-0.2V7.1h15.2V27.6z"/>
		<path class="st0" d="M7.9,25.6c0.6,0,1-0.5,1-1V10.1c0-0.6-0.5-1-1-1s-1,0.5-1,1v14.5C6.9,25.2,7.4,25.6,7.9,25.6z"/>
		<path class="st0" d="M16.7,25.6c0.6,0,1-0.5,1-1V10.1c0-0.6-0.5-1-1-1c-0.6,0-1,0.5-1,1v14.5C15.7,25.2,16.2,25.6,16.7,25.6z"/>
		<path class="st0" d="M12.3,25.6c0.6,0,1-0.5,1-1V10.1c0-0.6-0.5-1-1-1c-0.6,0-1,0.5-1,1v14.5C11.3,25.2,11.8,25.6,12.3,25.6z"/>
	</g>
</g>
</svg>
