<?xml version="1.0" encoding="utf-8"?>
<!-- Generator: Adobe Illustrator 19.0.1, SVG Export Plug-In . SVG Version: 6.00 Build 0)  -->
<svg version="1.1" id="Layer_1" xmlns="http://www.w3.org/2000/svg" xmlns:xlink="http://www.w3.org/1999/xlink" x="0px" y="0px"
	 viewBox="0 0 250 250" style="enable-background:new 0 0 250 250;" xml:space="preserve">
<style type="text/css">
	.st0{fill:#2AA8DF;}
</style>
<g>
	<path class="st0" d="M165.9,30c2.7,0,5.5,0,8.2,0c1.2,0.4,2.4,0.4,3.6,0.6c10.4,1.7,19.4,6.4,26.8,13.9c0.6,0.6,1.1,0.7,1.9,0.5
		c9.9-2,19.2-5.6,28-10.6c0.4-0.2,0.7-0.5,1.4-0.5C232,45,225.1,53.5,215.4,60c4.7-0.4,9.1-1.4,13.6-2.6c4.4-1.2,8.8-2.8,13.1-4.6
		c0,0.6-0.3,0.8-0.5,1.1c-6.1,8.8-13.4,16.4-22,22.8c-0.7,0.5-1.2,0.9-1.1,2c0.5,9.9-0.3,19.7-2.1,29.5
		c-3.7,19.9-11.3,38.2-22.7,54.9c-10.9,15.9-24.5,29-41,39c-15.4,9.3-32,15-49.8,17.5c-2.5,0.4-5,0.7-7.5,1c-9.3,0-18.7,0-28,0
		c-0.2-0.3-0.5-0.2-0.8-0.3c-3.5-0.5-7-0.9-10.4-1.6c-14.1-2.7-27.5-7.4-40.2-14.3c-2.7-1.5-5.4-3-7.9-4.8
		c12.6,1.3,25.1,0.4,37.3-3.1c12.2-3.4,23.3-9,33.5-17c-1.5-0.1-2.6-0.2-3.8-0.3c-19.8-2.6-33.3-13.2-40.6-31.7
		c-0.6-1.4-0.5-1.5,1-1.3c5.7,1,11.4,0.8,17-0.3c0.9-0.2,1.8-0.2,2.7-0.8c-26.6-6.2-38.8-29.8-38-47.7c3.3,1.7,6.7,3.2,10.3,4.2
		c3.6,1,7.2,1.6,11.3,1.7c-0.7-0.5-1.1-0.8-1.4-1.1C17.6,87.9,11.5,61.3,23,40.1c0.7-1.3,0.7-1.3,1.6-0.2c5.2,6.3,11,12.1,17.3,17.4
		c23.2,19.3,49.9,30,80.1,31.9c0.9,0.1,1-0.2,0.9-1c-1.3-6.3-1.3-12.5-0.2-18.8c3.4-19.3,19.5-35.3,38.9-38.6
		C163,30.5,164.5,30.5,165.9,30z"/>
</g>
</svg>
