<?xml version="1.0" encoding="utf-8"?>
<!-- Generator: Adobe Illustrator 20.0.0, SVG Export Plug-In . SVG Version: 6.00 Build 0)  -->
<svg version="1.1" id="Layer_1" xmlns="http://www.w3.org/2000/svg" xmlns:xlink="http://www.w3.org/1999/xlink" x="0px" y="0px"
	 viewBox="0 0 40 40" style="enable-background:new 0 0 40 40;" xml:space="preserve">
<style type="text/css">
	.st0{fill:#FFFFFF;}
</style>
<g>
	<path class="st0" d="M29.9,18.6c-0.3-3-2.9-5.6-6-5.6h-9.1l2.2-2.1c0.4-0.4,0.5-0.7,0.3-1.2C17.1,9.2,16.6,9,16,9l0,0l0,0
		c0,0-0.7,0-1,0.3l-4.5,4.5c-0.2,0.2-0.4,0.6-0.4,0.9c0,0.4,0.1,0.7,0.4,1l4.6,4.5c0.5,0.5,1.4,0.5,1.9,0c0.2-0.2,0.4-0.6,0.4-1
		s-0.1-0.7-0.4-1L14.8,16h9.1c1.7,0,3.1,1.3,3.2,2.9c0,0.2,0,3.8,0,4.1c0,1.8-1.4,3-3.2,3H13.1c-0.4,0-0.7,0.4-1,0.6
		c-0.3,0.3-0.4,0.7-0.4,1.1s0.2,0.7,0.4,0.9c0.3,0.3,0.6,0.4,0.9,0.4l0,0h10.9c3.3,0,5.9-2.6,5.9-5.9C29.9,23.1,29.9,18.8,29.9,18.6
		z"/>
</g>
</svg>
