<?xml version="1.0" encoding="utf-8"?>
<!-- Generator: Adobe Illustrator 19.0.1, SVG Export Plug-In . SVG Version: 6.00 Build 0)  -->
<svg version="1.1" id="Layer_1" xmlns="http://www.w3.org/2000/svg" xmlns:xlink="http://www.w3.org/1999/xlink" x="0px" y="0px"
	 viewBox="0 0 282 322" style="enable-background:new 0 0 282 322;" xml:space="preserve">
<style type="text/css">
	.st0{fill:none;stroke:#C1C1C1;stroke-width:15;stroke-miterlimit:10;}
	.st1{fill:#C1C1C1;}
</style>
<g>
	<path class="st0" d="M118.6,141.4"/>
</g>
<g>
	<path class="st1" d="M73.9,103.4c-16,0-29.1-13.1-29.1-29.1s13.1-29.1,29.1-29.1S103,58.2,103,74.3S89.9,103.4,73.9,103.4z
		 M73.9,58.6c-8.6,0-15.7,7-15.7,15.7s7,15.7,15.7,15.7s15.7-7,15.7-15.7S82.5,58.6,73.9,58.6z"/>
</g>
<g>
	
		<rect x="162.5" y="147.7" transform="matrix(0.6462 0.7631 -0.7631 0.6462 178.4822 -74.1207)" class="st1" width="13.4" height="15.6"/>
</g>
<path class="st1" d="M190.5,265.5c-2.6-2.6-6.2-2.6-8.9,0L149,298.8v-184c0-3.7-4.3-6.7-8-6.7c-3.7,0-8,3-8,6.7v184l-32.7-33.3
	c-2.6-2.6-6.6-2.6-9.2,0c-2.6,2.6-2.5,6.9,0.2,9.5l44.8,44.8c0.3,0.3,0.7,0.6,1.1,0.9c0.3,0.2,0.6,0.4,1,0.5c0.1,0,0.1,0.1,0.2,0.1
	c0.4,0.1,0.7,0.3,1.1,0.3c0,0,0.1,0.2,0.1,0.2c0.4,0.1,0.9,0.3,1.3,0.3c0,0,0,0,0,0c0,0,0-0.1,0-0.1c0,0,0-0.1,0.1-0.1
	c0.4,0,0.8-0.1,1.2-0.2c0,0,0.1,0.3,0.1,0.3c0.4-0.1,0.8,0,1.1,0c0,0,0,0,0,0c0,0,0-0.4,0-0.4c0.5-0.2,1-0.7,1.5-1.1
	c0.1-0.1,0.2-0.3,0.4-0.4c0.1-0.1,0.2-0.2,0.3-0.3l44.8-44.8C193.1,272.4,193.1,268.1,190.5,265.5z"/>
<path class="st1" d="M266.3,0H15.7C7,0,0,6.8,0,14.6v208.9c0,4,1.8,7.9,5,10.6c2.9,2.4,6.7,3.9,10.6,3.9H119v-14H21.5l70.2-88.5
	c1.4-1.8,3.5-2.9,5.8-3.1c2.3-0.2,4.5,0.5,6.3,2.1l13.7,12l8.8-10.1l-13.7-12c-4.5-4-10.3-5.8-16.3-5.3c-6,0.6-11.6,3.5-15.3,8.2
	L13,212.8V14.7c1-0.3,1.4-0.7,2.7-0.7h250.7c1.3,0,1.7,0.4,2.7,0.7v200.4l-68.4-68.6c-8-8-21.1-8.6-29.7-1.3l8.6,10.2
	c3.3-2.8,8.3-2.7,11.3,0.4l67.8,68.1H163v14h103.3c8.6,0,15.7-6.7,15.7-14.5V14.6C282,6.8,275,0,266.3,0z"/>
</svg>
