<?xml version="1.0" encoding="utf-8"?>
<!-- Generator: Adobe Illustrator 19.0.1, SVG Export Plug-In . SVG Version: 6.00 Build 0)  -->
<svg version="1.1" id="Layer_1" xmlns="http://www.w3.org/2000/svg" xmlns:xlink="http://www.w3.org/1999/xlink" x="0px" y="0px"
	 viewBox="0 0 30 30" style="enable-background:new 0 0 30 30;" xml:space="preserve">
<style type="text/css">
	.st0{display:none;}
	.st1{display:inline;fill:#D5D9DD;}
	.st2{fill:#D5D9DD;}
</style>
<g class="st0">
	<rect x="8" y="11" class="st1" width="3" height="1"/>
</g>
<g class="st0">
	<rect x="19" y="11" class="st1" width="3" height="1"/>
</g>
<g>
	<path class="st2" d="M-28.5,3.5h-12.9C-42.3,3.5-43,4.2-43,5V25c0,0.9,0.7,1.5,1.5,1.5h12.9c0.9,0,1.5-0.7,1.5-1.5V5
		C-27,4.2-27.7,3.5-28.5,3.5z M-28,25c0,0.3-0.2,0.5-0.5,0.5h-12.9c-0.3,0-0.5-0.2-0.5-0.5v-8.5h14V25z M-28,15.5h-14V5
		c0-0.3,0.2-0.5,0.5-0.5h12.9c0.3,0,0.5,0.2,0.5,0.5V15.5z"/>
	<path class="st2" d="M-35,6.2c-2.1,0-3.7,1.7-3.7,3.7s1.7,3.7,3.7,3.7s3.7-1.7,3.7-3.7S-32.9,6.2-35,6.2z M-35,12.7
		c-1.5,0-2.7-1.2-2.7-2.7c0-1.5,1.2-2.7,2.7-2.7s2.7,1.2,2.7,2.7C-32.3,11.5-33.5,12.7-35,12.7z"/>
	<path class="st2" d="M-35.4,10.5l-0.9-0.9l-0.7,0.7l1.2,1.2c0.1,0.1,0.2,0.2,0.3,0.2c0.3,0,0.8-0.5,2.7-2.4l-0.7-0.7
		C-34.1,9.2-34.9,10-35.4,10.5z"/>
	<rect x="-39" y="18.5" class="st2" width="9" height="1"/>
	<rect x="-39" y="20.5" class="st2" width="9" height="1"/>
	<rect x="-39" y="22.5" class="st2" width="5" height="1"/>
</g>
<g>
	<g>
		<path class="st2" d="M12.5,14.4h-6c-1,0-1.8-0.8-1.8-1.8v-6c0-1,0.8-1.8,1.8-1.8h6c1,0,1.8,0.8,1.8,1.8v6
			C14.3,13.6,13.5,14.4,12.5,14.4z M6.5,5.8c-0.4,0-0.8,0.4-0.8,0.8v6c0,0.4,0.4,0.8,0.8,0.8h6c0.4,0,0.8-0.4,0.8-0.8v-6
			c0-0.4-0.4-0.8-0.8-0.8H6.5z"/>
	</g>
	<g>
		<path class="st2" d="M23.5,14.4h-6c-1,0-1.8-0.8-1.8-1.8v-6c0-1,0.8-1.8,1.8-1.8h6c1,0,1.8,0.8,1.8,1.8v6
			C25.3,13.6,24.5,14.4,23.5,14.4z M17.5,5.8c-0.4,0-0.8,0.4-0.8,0.8v6c0,0.4,0.4,0.8,0.8,0.8h6c0.4,0,0.8-0.4,0.8-0.8v-6
			c0-0.4-0.4-0.8-0.8-0.8H17.5z"/>
	</g>
	<g>
		<path class="st2" d="M23.5,25.2h-6c-1,0-1.8-0.8-1.8-1.8v-6c0-1,0.8-1.8,1.8-1.8h6c1,0,1.8,0.8,1.8,1.8v6
			C25.3,24.4,24.5,25.2,23.5,25.2z M17.5,16.6c-0.4,0-0.8,0.4-0.8,0.8v6c0,0.4,0.4,0.8,0.8,0.8h6c0.4,0,0.8-0.4,0.8-0.8v-6
			c0-0.4-0.4-0.8-0.8-0.8H17.5z"/>
	</g>
	<g>
		<path class="st2" d="M12.5,25.2h-6c-1,0-1.8-0.8-1.8-1.8v-6c0-1,0.8-1.8,1.8-1.8h6c1,0,1.8,0.8,1.8,1.8v6
			C14.3,24.4,13.5,25.2,12.5,25.2z M6.5,16.6c-0.4,0-0.8,0.4-0.8,0.8v6c0,0.4,0.4,0.8,0.8,0.8h6c0.4,0,0.8-0.4,0.8-0.8v-6
			c0-0.4-0.4-0.8-0.8-0.8H6.5z"/>
	</g>
</g>
</svg>
