<?xml version="1.0" encoding="utf-8"?>
<!-- Generator: Adobe Illustrator 19.0.1, SVG Export Plug-In . SVG Version: 6.00 Build 0)  -->
<svg version="1.1" id="Layer_1" xmlns="http://www.w3.org/2000/svg" xmlns:xlink="http://www.w3.org/1999/xlink" x="0px" y="0px"
	 viewBox="0 0 250 250" style="enable-background:new 0 0 250 250;" xml:space="preserve">
<style type="text/css">
	.st0{fill:#595959;}
</style>
<path class="st0" d="M225,48.7c0-3.7-3-6.7-6.7-6.7H31.7C28,42,25,45,25,48.7v152.7c0,3.7,3,6.7,6.7,6.7h186.7c3.7,0,6.7-3,6.7-6.7
	V48.7z M214.8,52l-88.6,63.3c-0.6,0.2-1.2,0.3-1.7,0.1L35,52.6V52H214.8z M35,200V64.8l84,59l0.4,0.3c1.8,1,3.9,1.5,5.9,1.5
	c2,0,4.1-0.5,5.9-1.5l0.2-0.1L215,64.4V200H35z"/>
</svg>
