<?xml version="1.0" encoding="utf-8"?>
<!-- Generator: Adobe Illustrator 19.0.1, SVG Export Plug-In . SVG Version: 6.00 Build 0)  -->
<svg version="1.1" id="Layer_1" xmlns="http://www.w3.org/2000/svg" xmlns:xlink="http://www.w3.org/1999/xlink" x="0px" y="0px"
	 viewBox="0 0 250 250" style="enable-background:new 0 0 250 250;" xml:space="preserve">
<style type="text/css">
	.st0{fill:#595959;}
</style>
<path class="st0" d="M214.8,30H35.2C29.7,30,25,35.3,25,42.6v152.3v26.4c0,4,2.6,6.6,5.1,6.6c1.2,0,2.5-0.6,3.5-2l34.2-27.2
	c1.9-2.5,4.4-3.9,7.1-3.9l139.9,0c7.7,0,10.1-6,10.1-13.5V42.6C225,35.3,220.3,30,214.8,30z M215,181.4c0,1.8-0.2,3-0.4,3.6L75,185
	c-5.3,0-10.4,2.4-14.1,6.7L35,212.2v-17.3V42.6c0-1.6,0.6-2.6,1-2.6h178c0.4,0,1,1,1,2.6V181.4z"/>
</svg>
