<?xml version="1.0" encoding="utf-8"?>
<!-- Generator: Adobe Illustrator 19.0.1, SVG Export Plug-In . SVG Version: 6.00 Build 0)  -->
<svg version="1.1" id="Layer_1" xmlns="http://www.w3.org/2000/svg" xmlns:xlink="http://www.w3.org/1999/xlink" x="0px" y="0px"
	 viewBox="0 0 250 250" style="enable-background:new 0 0 250 250;" xml:space="preserve">
<style type="text/css">
	.st0{fill:#595959;}
</style>
<g>
	<path class="st0" d="M71.8,112.3c2.8,0,5-2.2,5-5v-75h71L173.5,58v49.2c0,2.8,2.2,5,5,5c2.8,0,5-2.2,5-5h0V55.9
		c0-1.3-0.5-2.6-1.5-3.5c-0.1-0.1-0.2-0.2-0.3-0.3l-27.2-27.2c-0.2-0.4-0.5-0.8-0.9-1.2c-0.9-0.9-2.1-1.4-3.3-1.5
		c-0.1,0-0.2,0-0.3,0H71.8c-1.3,0-2.6,0.5-3.5,1.5c-0.9,0.9-1.5,2.2-1.5,3.5v80C66.8,110,69,112.3,71.8,112.3z"/>
	<path class="st0" d="M215,206.6h-39.1v-20.1c0-1.3-0.5-2.6-1.5-3.5c-0.9-0.9-2.2-1.5-3.5-1.5H72.7c-1.3,0-2.6,0.5-3.5,1.5
		c-0.9,0.9-1.5,2.2-1.5,3.5v20.1H35v-85h13.3v13c0,1.3,0.5,2.6,1.5,3.5s2.2,1.5,3.5,1.5h143.9c1.3,0,2.6-0.5,3.5-1.5
		c0.9-0.9,1.5-2.2,1.5-3.5v-13H215L215,206.6L215,206.6z M223.5,113c-0.9-0.9-2.2-1.5-3.5-1.5h-22.8c-2.8,0-5,2.2-5,5
		c0,0.1,0,0.3,0,0.4c0,0,0,0,0,0v12.6H58.4v-12.8c0-2.2-1.4-4-3.4-4.7c-0.6-0.3-1.3-0.5-2.1-0.5H30c-1.3,0-2.6,0.5-3.5,1.5
		c-0.9,0.9-1.5,2.2-1.5,3.5v95.1c0,1.3,0.5,2.6,1.5,3.5c0.9,0.9,2.2,1.5,3.5,1.5h42.6c1.3,0,2.6-0.5,3.5-1.5
		c0.9-0.9,1.5-2.2,1.5-3.5v-20.1h88.2v20.1c0,1.3,0.5,2.6,1.5,3.5c0.9,0.9,2.2,1.5,3.5,1.5H220c1.3,0,2.6-0.5,3.5-1.5
		c0.9-0.9,1.5-2.2,1.5-3.5v-95.1C225,115.2,224.5,114,223.5,113z"/>
	<path class="st0" d="M196.1,170.6c-4.4,0-8,3.6-8,8c0,4.4,3.6,8,8,8c4.4,0,8-3.6,8-8C204,174.2,200.5,170.6,196.1,170.6z"/>
	<path class="st0" d="M154,65.5h-58c-2.8,0-5,2.2-5,5c0,2.8,2.2,5,5,5h58c2.8,0,5-2.2,5-5C159,67.7,156.8,65.5,154,65.5z"/>
	<path class="st0" d="M154,90.2h-58c-2.8,0-5,2.2-5,5s2.2,5,5,5h58c2.8,0,5-2.2,5-5C159,92.5,156.8,90.2,154,90.2z"/>
	<path class="st0" d="M150.6,213.7H92.1c-2.8,0-5,2.2-5,5c0,2.8,2.2,5,5,5h58.5c2.8,0,5-2.2,5-5C155.6,216,153.3,213.7,150.6,213.7z
		"/>
</g>
</svg>
