<?xml version="1.0" encoding="utf-8"?>
<!-- Generator: Adobe Illustrator 19.0.1, SVG Export Plug-In . SVG Version: 6.00 Build 0)  -->
<svg version="1.1" id="Layer_1" xmlns="http://www.w3.org/2000/svg" xmlns:xlink="http://www.w3.org/1999/xlink" x="0px" y="0px"
	 viewBox="0 0 20 20" style="enable-background:new 0 0 20 20;" xml:space="preserve">
<g style="opacity:0.93;">
	<path style="fill:#AFAFAF;" d="M10,20C4.49,20,0,15.51,0,10C0,4.49,4.49,0,10,0c5.51,0,10,4.49,10,10C20,15.51,15.51,20,10,20z
		 M10,1.05c-4.94,0-8.95,4.02-8.95,8.95s4.02,8.95,8.95,8.95s8.95-4.02,8.95-8.95S14.94,1.05,10,1.05z"/>
</g>
<polygon style="fill:#AFAFAF;" points="14.93,5.99 14.2,5.24 10.01,9.26 5.99,5.07 5.23,5.8 9.26,9.99 5.07,14.01 5.8,14.77 
	9.99,10.74 14.01,14.93 14.76,14.2 10.74,10.01 "/>
</svg>
