<?xml version="1.0" encoding="utf-8"?>
<!-- Generator: Adobe Illustrator 19.0.1, SVG Export Plug-In . SVG Version: 6.00 Build 0)  -->
<svg version="1.1" id="Layer_1" xmlns="http://www.w3.org/2000/svg" xmlns:xlink="http://www.w3.org/1999/xlink" x="0px" y="0px"
	 viewBox="0 0 411 480" style="enable-background:new 0 0 411 480;" xml:space="preserve">
<path style="fill:#A5ADB7;" d="M410.92,33.6H0.47V22.2c0-2.13,1.73-3.87,3.87-3.87h401.48c2.81,0,5.1,2.28,5.1,5.1V33.6z"/>
<rect x="0.47" y="33.33" style="fill:#D2D6DB;" width="410.45" height="19.27"/>
<circle style="fill:#FFFFFF;" cx="13.35" cy="25.97" r="3.97"/>
<circle style="fill:#FFFFFF;" cx="25.35" cy="25.97" r="3.97"/>
<circle style="fill:#FFFFFF;" cx="37.35" cy="25.97" r="3.97"/>
<polygon style="fill:#D2D6DB;" points="402,53 402,470 10,470 10,48.5 0.47,50.81 1,480 9.3,480 401.78,480 411,480 411,53 "/>
<path style="fill:#F6F8FA;" d="M312.72,48.5H98.67c-0.68,0-1.22-0.55-1.22-1.22v-9.05c0-0.68,0.55-1.22,1.22-1.22h214.05
	c0.68,0,1.22,0.55,1.22,1.22v9.05C313.95,47.95,313.4,48.5,312.72,48.5z"/>
<rect x="0" y="52.6" style="fill:#DBD9D9;" width="2.72" height="427.4"/>
<rect x="408.41" y="52.6" style="fill:#DBD9D9;" width="2.72" height="427.4"/>
<rect x="0" y="477" style="fill:#DBD9D9;" width="409.77" height="3"/>
</svg>
