<?xml version="1.0" encoding="utf-8"?>
<!-- Generator: Adobe Illustrator 19.0.1, SVG Export Plug-In . SVG Version: 6.00 Build 0)  -->
<svg version="1.1" id="Layer_1" xmlns="http://www.w3.org/2000/svg" xmlns:xlink="http://www.w3.org/1999/xlink" x="0px" y="0px"
	 viewBox="0 0 550 700" style="enable-background:new 0 0 550 700;" xml:space="preserve">
<path id="XMLID_88_" style="fill:#E2E3E7;" d="M540.94,0H8.77C3.93,0,0,3.82,0,8.54V700h15.4V29.69h518.78V700h15.45V8.47
	C549.63,3.79,545.74,0,540.94,0z M21.45,20.41c-3.02,0-5.46-2.38-5.46-5.32c0-2.94,2.45-5.32,5.46-5.32c3.02,0,5.46,2.38,5.46,5.32
	C26.91,18.02,24.47,20.41,21.45,20.41z M38.52,20.41c-3.02,0-5.46-2.38-5.46-5.32c0-2.94,2.45-5.32,5.46-5.32s5.46,2.38,5.46,5.32
	C43.99,18.02,41.54,20.41,38.52,20.41z M55.59,20.41c-3.02,0-5.46-2.38-5.46-5.32c0-2.94,2.45-5.32,5.46-5.32
	c3.02,0,5.46,2.38,5.46,5.32C61.06,18.02,58.61,20.41,55.59,20.41z M403.55,21.56H127.65V8.03h275.91V21.56z"/>
</svg>
