<?xml version="1.0" encoding="utf-8"?>
<!-- Generator: Adobe Illustrator 16.0.0, SVG Export Plug-In . SVG Version: 6.00 Build 0)  -->
<!DOCTYPE svg PUBLIC "-//W3C//DTD SVG 1.1//EN" "http://www.w3.org/Graphics/SVG/1.1/DTD/svg11.dtd">
<svg version="1.1" id="Layer_1" xmlns="http://www.w3.org/2000/svg" xmlns:xlink="http://www.w3.org/1999/xlink" x="0px" y="0px"
	 width="612px" height="792px" viewBox="0 0 612 792" enable-background="new 0 0 612 792" xml:space="preserve">
<path id="XMLID_32_" fill="#3C5A99" d="M571.548,97.463H40.451c-18.21,0-32.988,14.778-32.988,32.988v531.171
	c0,18.136,14.778,32.913,32.988,32.913h285.998V463.32h-77.843v-90.083h77.843v-66.425c0-77.097,47.094-119.116,115.907-119.116
	c32.988,0,61.274,2.463,69.559,3.582v80.605h-47.691c-37.392,0-44.631,17.763-44.631,43.885v57.542h89.263l-11.793,90.009h-77.619
	v231.216h152.179c18.211,0,32.988-14.777,32.988-32.988V130.452C604.536,112.241,589.759,97.463,571.548,97.463z"/>
</svg>
