<?xml version="1.0" encoding="utf-8"?>
<!-- Generator: Adobe Illustrator 16.0.0, SVG Export Plug-In . SVG Version: 6.00 Build 0)  -->
<!DOCTYPE svg PUBLIC "-//W3C//DTD SVG 1.1//EN" "http://www.w3.org/Graphics/SVG/1.1/DTD/svg11.dtd">
<svg version="1.1" id="Layer_1" xmlns="http://www.w3.org/2000/svg" xmlns:xlink="http://www.w3.org/1999/xlink" x="0px" y="0px"
	 width="82px" height="82px" viewBox="0 0 82 82" enable-background="new 0 0 82 82" xml:space="preserve">
<path id="XMLID_32_" fill="#3C5A99" d="M76.58,1H5.42C2.98,1,1,2.98,1,5.42v71.17C1,79.02,2.98,81,5.42,81h38.32V50.02H33.31V37.95
	h10.43v-8.9c0-10.33,6.31-15.96,15.529-15.96c4.42,0,8.211,0.33,9.32,0.48v10.8H62.2c-5.011,0-5.979,2.38-5.979,5.88v7.71H68.18
	L66.6,50.02H56.2V81h20.39c2.439,0,4.42-1.98,4.42-4.42V5.42C81,2.98,79.02,1,76.58,1z"/>
</svg>
