<?xml version="1.0" encoding="utf-8"?>
<!-- Generator: Adobe Illustrator 19.0.1, SVG Export Plug-In . SVG Version: 6.00 Build 0)  -->
<svg version="1.1" id="Layer_1" xmlns="http://www.w3.org/2000/svg" xmlns:xlink="http://www.w3.org/1999/xlink" x="0px" y="0px"
	 viewBox="0 0 20 16" style="enable-background:new 0 0 20 16;" xml:space="preserve">
<path style="fill:#939599;" d="M17.11,2.87H3.02c-0.22,0-0.39-0.18-0.39-0.39S2.8,2.09,3.02,2.09h14.09c0.22,0,0.39,0.18,0.39,0.39
	S17.32,2.87,17.11,2.87z"/>
<path style="fill:#939599;" d="M17.11,8.62H3.02c-0.22,0-0.39-0.18-0.39-0.39S2.8,7.83,3.02,7.83h14.09c0.22,0,0.39,0.18,0.39,0.39
	S17.32,8.62,17.11,8.62z"/>
<path style="fill:#939599;" d="M17.11,14.27H3.02c-0.22,0-0.39-0.18-0.39-0.39s0.18-0.39,0.39-0.39h14.09
	c0.22,0,0.39,0.18,0.39,0.39S17.32,14.27,17.11,14.27z"/>
<polyline style="fill:none;stroke:#939599;stroke-width:0.75;stroke-linecap:round;stroke-linejoin:round;stroke-miterlimit:10;" points="
	7.67,6.23 10.02,3.88 12.38,6.23 "/>
<polyline style="fill:none;stroke:#939599;stroke-width:0.75;stroke-linecap:round;stroke-linejoin:round;stroke-miterlimit:10;" points="
	12.38,10.01 10.02,12.36 7.67,10.01 "/>
</svg>
