<?xml version="1.0" encoding="utf-8"?>
<!-- Generator: Adobe Illustrator 19.0.1, SVG Export Plug-In . SVG Version: 6.00 Build 0)  -->
<svg version="1.1" id="Layer_1" xmlns="http://www.w3.org/2000/svg" xmlns:xlink="http://www.w3.org/1999/xlink" x="0px" y="0px"
	 viewBox="0 0 20 16" style="enable-background:new 0 0 20 16;" xml:space="preserve">
<g>
	<g>
		<path style="fill:#939599;" d="M15.11,3.87H1.02c-0.22,0-0.39-0.18-0.39-0.39S0.8,3.09,1.02,3.09h14.09
			c0.22,0,0.39,0.18,0.39,0.39S15.32,3.87,15.11,3.87z"/>
		<path style="fill:#939599;" d="M15.11,6.22H1.02c-0.22,0-0.39-0.18-0.39-0.39c0-0.22,0.18-0.39,0.39-0.39h14.09
			c0.22,0,0.39,0.18,0.39,0.39C15.5,6.04,15.32,6.22,15.11,6.22z"/>
		<path style="fill:#939599;" d="M10.41,8.57H1.02c-0.22,0-0.39-0.18-0.39-0.39c0-0.22,0.18-0.39,0.39-0.39h9.39
			c0.22,0,0.39,0.18,0.39,0.39C10.8,8.39,10.63,8.57,10.41,8.57z"/>
		<path style="fill:#939599;" d="M10.41,10.92H1.02c-0.22,0-0.39-0.18-0.39-0.39s0.18-0.39,0.39-0.39h9.39
			c0.22,0,0.39,0.18,0.39,0.39S10.63,10.92,10.41,10.92z"/>
		<path style="fill:#939599;" d="M15.11,13.27H1.02c-0.22,0-0.39-0.18-0.39-0.39s0.18-0.39,0.39-0.39h14.09
			c0.22,0,0.39,0.18,0.39,0.39S15.32,13.27,15.11,13.27z"/>
		<path style="fill:#939599;" d="M16.79,12.64c-0.07,0-0.14-0.02-0.2-0.06c-0.19-0.11-0.25-0.35-0.14-0.54l1.74-2.93l-1.74-2.93
			C16.34,6,16.4,5.76,16.59,5.64c0.19-0.11,0.43-0.05,0.54,0.14l1.86,3.13c0.07,0.12,0.07,0.28,0,0.4l-1.86,3.13
			C17.05,12.57,16.92,12.64,16.79,12.64z"/>
	</g>
</g>
</svg>
