<?xml version="1.0" encoding="utf-8"?>
<!-- Generator: Adobe Illustrator 19.0.1, SVG Export Plug-In . SVG Version: 6.00 Build 0)  -->
<svg version="1.1" id="Layer_1" xmlns="http://www.w3.org/2000/svg" xmlns:xlink="http://www.w3.org/1999/xlink" x="0px" y="0px"
	 viewBox="0 0 42 60" style="enable-background:new 0 0 42 60;" xml:space="preserve">
<g>
	<path style="fill:#ED7923;" d="M27.8,5.1c-0.5,1.5-0.2,3.2,0.9,4.5s2.7,1.8,4.3,1.5L27.8,5.1z"/>
	<path style="fill:#ED7923;" d="M7.9,10.3c1.5,0.5,3.2,0.2,4.5-0.9s1.8-2.7,1.5-4.3L7.9,10.3z"/>
	<path style="fill:#2D4355;" d="M20.7,7.4c-5.3,0-9.6,3.3-9.6,7.3c0,0.3,1.6,19.8,1.6,19.8h16.7c0,0,1-19.7,1-19.8
		C30.3,10.7,26,7.4,20.7,7.4z M21,21.2c-0.9,0-1.7-0.7-1.7-1.7s0.7-1.7,1.7-1.7c0.9,0,1.7,0.7,1.7,1.7S21.9,21.2,21,21.2z
		 M28.4,33.6h-6.5V23.4c0-0.1,0-0.1,0-0.2c1.7-0.4,3-2,3-3.8c0-2.2-1.8-3.9-3.9-3.9c-2.2,0-3.9,1.8-3.9,3.9c0,1.9,1.3,3.4,3,3.8
		c0,0.1,0,0.1,0,0.2v10.2h-6.5c-0.5-5.8-1.5-18.2-1.5-18.9c0-3.5,3.9-6.3,8.7-6.3c4.8,0,8.7,2.8,8.7,6.3
		C29.3,15.2,28.8,26.7,28.4,33.6z"/>
	<g>
		<g>
			<path style="fill:#2D4355;" d="M21.8,45.5h-1.4c-0.8,0-1.4-0.1-1.4-0.1v-0.4c0-0.1,0.6-0.1,1.4-0.1h1.4c0.8,0,1.4,0.1,1.4,0.1
				v0.4C23.3,45.4,22.6,45.5,21.8,45.5z"/>
			<path style="fill:#2D4355;" d="M21.8,46.5h-1.4c-0.8,0-1.4-0.1-1.4-0.1v-0.4c0-0.1,0.6-0.1,1.4-0.1h1.4c0.8,0,1.4,0.1,1.4,0.1
				v0.4C23.3,46.4,22.6,46.5,21.8,46.5z"/>
			<path style="fill:#2D4355;" d="M21.8,47.5h-1.4c-0.8,0-1.4-0.1-1.4-0.1v-0.4c0-0.1,0.6-0.1,1.4-0.1h1.4c0.8,0,1.4,0.1,1.4,0.1
				v0.4C23.3,47.4,22.6,47.5,21.8,47.5z"/>
		</g>
	</g>
	<g>
		<path style="fill:#5CC0A2;" d="M4.8,37.3C4.9,37.7,5,38,5.2,38.4l0,0l-1.4,0.9c-0.2-0.5-0.4-1-0.6-1.6c-0.9-3.8,1.4-7.6,5.2-8.6
			l0.4,1.6C5.9,31.4,4.1,34.4,4.8,37.3z"/>
	</g>
	<circle style="fill:#F5BE2A;" cx="10.5" cy="29.5" r="1.2"/>
	<path style="fill:#5CC0A2;" d="M29.2,35.3H12.8c-1,0-1.9,0.8-1.9,1.9v5.1c0,1,0.8,1.9,1.9,1.9h16.4c1,0,1.9-0.8,1.9-1.9v-5.1
		C31,36.2,30.2,35.3,29.2,35.3z M20.5,41c0,0.8-0.5,1.4-1.2,1.4h-2.9c-0.7,0-1.2-0.6-1.2-1.4v-2.3c0-0.8,0.5-1.4,1.2-1.4h2.9
		c0.7,0,1.2,0.6,1.2,1.4V41z M26.7,41.7c0,0.3-0.5,0.6-1.2,0.6h-2.9c-0.7,0-1.2-0.3-1.2-0.6v-1c0-0.3,0.5-0.6,1.2-0.6h2.9
		c0.7,0,1.2,0.3,1.2,0.6V41.7z M26.7,38.9c0,0.3-0.5,0.6-1.2,0.6h-2.9c-0.7,0-1.2-0.3-1.2-0.6v-1c0-0.3,0.5-0.6,1.2-0.6h2.9
		c0.7,0,1.2,0.3,1.2,0.6V38.9z"/>
	<path style="fill:#2D4355;" d="M29.5,49c0.9,0,1.6,0.7,1.6,1.6v2c0,0.9-0.7,1.6-1.6,1.6H13.3c-0.9,0-1.6-0.7-1.6-1.6v-2
		c0-0.9,0.7-1.6,1.6-1.6H29.5 M29.5,48.3H13.3c-1.3,0-2.3,1-2.3,2.3v2c0,1.3,1,2.3,2.3,2.3h16.2c1.3,0,2.3-1,2.3-2.3v-2
		C31.8,49.3,30.7,48.3,29.5,48.3L29.5,48.3z"/>
	<circle style="fill:#ED7923;" cx="28.3" cy="51.6" r="1.9"/>
	<circle style="fill:#ED7923;" cx="21.2" cy="51.6" r="1.9"/>
	<circle style="fill:#ED7923;" cx="14.4" cy="51.6" r="1.9"/>
	<circle style="fill:#F5BE2A;" cx="31.4" cy="29.6" r="1.2"/>
	<g>
		<path style="fill:#5CC0A2;" d="M37.2,37.1c-0.1,0.4-0.2,0.7-0.4,1.1l0,0l1.4,0.9c0.2-0.5,0.4-1,0.6-1.6c0.9-3.8-1.4-7.6-5.2-8.5
			l-0.4,1.6C36.1,31.3,37.9,34.2,37.2,37.1z"/>
	</g>
	<circle style="fill:#F5BE2A;" cx="36.5" cy="40.3" r="1.6"/>
	<circle style="fill:#F5BE2A;" cx="5.8" cy="40.3" r="1.6"/>
</g>
</svg>
