<?xml version="1.0" encoding="UTF-8" standalone="no"?>
<svg
   xmlns:dc="http://purl.org/dc/elements/1.1/"
   xmlns:cc="http://creativecommons.org/ns#"
   xmlns:rdf="http://www.w3.org/1999/02/22-rdf-syntax-ns#"
   xmlns:svg="http://www.w3.org/2000/svg"
   xmlns="http://www.w3.org/2000/svg"
   xml:space="preserve"
   style="enable-background:new 0 0 42 60;"
   viewBox="0 0 42 60"
   y="0px"
   x="0px"
   id="Layer_1"
   version="1.1"><metadata
     id="metadata51"><rdf:RDF><cc:Work
         rdf:about=""><dc:format>image/svg+xml</dc:format><dc:type
           rdf:resource="http://purl.org/dc/dcmitype/StillImage" /><dc:title></dc:title></cc:Work></rdf:RDF></metadata><defs
     id="defs49" /><g
     style="fill:#000004"
     id="g3"><path
       id="path5"
       d="M27.8,5.1c-0.5,1.5-0.2,3.2,0.9,4.5s2.7,1.8,4.3,1.5L27.8,5.1z"
       style="fill:#000004" /><path
       id="path7"
       d="M7.9,10.3c1.5,0.5,3.2,0.2,4.5-0.9s1.8-2.7,1.5-4.3L7.9,10.3z"
       style="fill:#000004" /><path
       id="path9"
       d="M20.7,7.4c-5.3,0-9.6,3.3-9.6,7.3c0,0.3,1.6,19.8,1.6,19.8h16.7c0,0,1-19.7,1-19.8   C30.3,10.7,26,7.4,20.7,7.4z M21,21.2c-0.9,0-1.7-0.7-1.7-1.7s0.7-1.7,1.7-1.7c0.9,0,1.7,0.7,1.7,1.7S21.9,21.2,21,21.2z    M28.4,33.6h-6.5V23.4c0-0.1,0-0.1,0-0.2c1.7-0.4,3-2,3-3.8c0-2.2-1.8-3.9-3.9-3.9c-2.2,0-3.9,1.8-3.9,3.9c0,1.9,1.3,3.4,3,3.8   c0,0.1,0,0.1,0,0.2v10.2h-6.5c-0.5-5.8-1.5-18.2-1.5-18.9c0-3.5,3.9-6.3,8.7-6.3c4.8,0,8.7,2.8,8.7,6.3   C29.3,15.2,28.8,26.7,28.4,33.6z"
       style="fill:#000004" /><g
       style="fill:#000004"
       id="g11"><g
         style="fill:#000004"
         id="g13"><path
           id="path15"
           d="M21.8,45.5h-1.4c-0.8,0-1.4-0.1-1.4-0.1v-0.4c0-0.1,0.6-0.1,1.4-0.1h1.4c0.8,0,1.4,0.1,1.4,0.1     v0.4C23.3,45.4,22.6,45.5,21.8,45.5z"
           style="fill:#000004" /><path
           id="path17"
           d="M21.8,46.5h-1.4c-0.8,0-1.4-0.1-1.4-0.1v-0.4c0-0.1,0.6-0.1,1.4-0.1h1.4c0.8,0,1.4,0.1,1.4,0.1     v0.4C23.3,46.4,22.6,46.5,21.8,46.5z"
           style="fill:#000004" /><path
           id="path19"
           d="M21.8,47.5h-1.4c-0.8,0-1.4-0.1-1.4-0.1v-0.4c0-0.1,0.6-0.1,1.4-0.1h1.4c0.8,0,1.4,0.1,1.4,0.1     v0.4C23.3,47.4,22.6,47.5,21.8,47.5z"
           style="fill:#000004" /></g></g><g
       style="fill:#000004"
       id="g21"><path
         id="path23"
         d="M4.8,37.3C4.9,37.7,5,38,5.2,38.4l0,0l-1.4,0.9c-0.2-0.5-0.4-1-0.6-1.6c-0.9-3.8,1.4-7.6,5.2-8.6    l0.4,1.6C5.9,31.4,4.1,34.4,4.8,37.3z"
         style="fill:#000004" /></g><circle
       id="circle25"
       r="1.2"
       cy="29.5"
       cx="10.5"
       style="fill:#000004" /><path
       id="path27"
       d="M29.2,35.3H12.8c-1,0-1.9,0.8-1.9,1.9v5.1c0,1,0.8,1.9,1.9,1.9h16.4c1,0,1.9-0.8,1.9-1.9v-5.1   C31,36.2,30.2,35.3,29.2,35.3z M20.5,41c0,0.8-0.5,1.4-1.2,1.4h-2.9c-0.7,0-1.2-0.6-1.2-1.4v-2.3c0-0.8,0.5-1.4,1.2-1.4h2.9   c0.7,0,1.2,0.6,1.2,1.4V41z M26.7,41.7c0,0.3-0.5,0.6-1.2,0.6h-2.9c-0.7,0-1.2-0.3-1.2-0.6v-1c0-0.3,0.5-0.6,1.2-0.6h2.9   c0.7,0,1.2,0.3,1.2,0.6V41.7z M26.7,38.9c0,0.3-0.5,0.6-1.2,0.6h-2.9c-0.7,0-1.2-0.3-1.2-0.6v-1c0-0.3,0.5-0.6,1.2-0.6h2.9   c0.7,0,1.2,0.3,1.2,0.6V38.9z"
       style="fill:#000004" /><path
       id="path29"
       d="M29.5,49c0.9,0,1.6,0.7,1.6,1.6v2c0,0.9-0.7,1.6-1.6,1.6H13.3c-0.9,0-1.6-0.7-1.6-1.6v-2   c0-0.9,0.7-1.6,1.6-1.6H29.5 M29.5,48.3H13.3c-1.3,0-2.3,1-2.3,2.3v2c0,1.3,1,2.3,2.3,2.3h16.2c1.3,0,2.3-1,2.3-2.3v-2   C31.8,49.3,30.7,48.3,29.5,48.3L29.5,48.3z"
       style="fill:#000004" /><circle
       id="circle31"
       r="1.9"
       cy="51.6"
       cx="28.3"
       style="fill:#000004" /><circle
       id="circle33"
       r="1.9"
       cy="51.6"
       cx="21.2"
       style="fill:#000004" /><circle
       id="circle35"
       r="1.9"
       cy="51.6"
       cx="14.4"
       style="fill:#000004" /><circle
       id="circle37"
       r="1.2"
       cy="29.6"
       cx="31.4"
       style="fill:#000004" /><g
       style="fill:#000004"
       id="g39"><path
         id="path41"
         d="M37.2,37.1c-0.1,0.4-0.2,0.7-0.4,1.1l0,0l1.4,0.9c0.2-0.5,0.4-1,0.6-1.6c0.9-3.8-1.4-7.6-5.2-8.5    l-0.4,1.6C36.1,31.3,37.9,34.2,37.2,37.1z"
         style="fill:#000004" /></g><circle
       id="circle43"
       r="1.6"
       cy="40.3"
       cx="36.5"
       style="fill:#000004" /><circle
       id="circle45"
       r="1.6"
       cy="40.3"
       cx="5.8"
       style="fill:#000004" /></g><path
     id="path3379"
     d="m 12.40678,44.011025 c -1.174597,-0.447135 -1.271187,-0.77187 -1.271187,-4.273737 0,-3.085423 0.04274,-3.392098 0.534795,-3.837715 0.498138,-0.451121 1.086283,-0.489593 8.580508,-0.561272 4.425143,-0.04232 8.417988,-0.0085 8.87299,0.07527 1.603612,0.29507 1.842216,0.857638 1.842216,4.343493 0,2.674613 -0.06691,3.184532 -0.485765,3.702061 l -0.485765,0.600199 -8.603218,0.04844 c -4.73177,0.02664 -8.774829,-0.01689 -8.984574,-0.09673 z m 7.830508,-1.90933 c 0.184755,-0.184755 0.305085,-1.081542 0.305085,-2.273719 0,-2.426956 -0.322275,-2.760179 -2.669492,-2.760179 -2.347216,0 -2.669491,0.333223 -2.669491,2.760179 0,1.192177 0.12033,2.088964 0.305085,2.273719 0.409962,0.409963 4.31885,0.409963 4.728813,0 z m 6.169256,0.0419 c 0.511109,-0.273537 0.643509,-1.13759 0.265682,-1.73386 -0.277276,-0.437584 -3.150284,-0.679841 -4.350192,-0.366815 -0.765714,0.199755 -0.901327,0.350489 -0.97225,1.080657 -0.04926,0.507155 0.05302,0.934395 0.254237,1.061969 0.480421,0.304594 4.21597,0.271963 4.802523,-0.04195 z m 0,-2.79661 c 0.511109,-0.273537 0.643509,-1.13759 0.265682,-1.73386 -0.277276,-0.437585 -3.150284,-0.679841 -4.350192,-0.366815 -0.765714,0.199755 -0.901327,0.350489 -0.97225,1.080657 -0.04926,0.507155 0.05302,0.934395 0.254237,1.061969 0.480421,0.304594 4.21597,0.271963 4.802523,-0.04195 z"
     style="fill:#ffffff" /><path
     id="path3381"
     d=""
     style="fill:#ffffff" /><path
     id="path3383"
     d="m 3.5069777,38.207329 c -0.462503,-1.401398 -0.3458571,-3.498307 0.2748679,-4.941221 0.5949682,-1.383041 2.3247472,-3.15032 3.6177851,-3.696216 0.7196153,-0.303807 0.8319389,-0.294487 0.9850426,0.08174 0.3045887,0.748468 0.2217249,1.02197 -0.3634869,1.199732 -1.1001884,0.33419 -2.1907131,1.393153 -2.875007,2.7918 -0.5734955,1.172182 -0.6665202,1.633661 -0.5513532,2.735163 0.076198,0.728787 0.1775595,1.477277 0.2252477,1.66331 0.047688,0.186033 -0.1596542,0.507266 -0.4607608,0.71385 -0.5204354,0.357063 -0.5625195,0.329998 -0.8523354,-0.548153 z"
     style="fill:#ffffff" /><path
     id="path3385"
     d="m 9.6202948,30.088471 c -0.6502894,-0.78355 0.3400814,-1.904637 1.3426852,-1.519902 1.029339,0.394995 0.663166,1.889058 -0.46298,1.889058 -0.315333,0 -0.7112006,-0.16612 -0.8797052,-0.369156 z"
     style="fill:#ffffff" /><path
     id="path3387"
     d="m 4.8952234,41.274268 c -0.3432203,-0.34322 -0.624037,-0.800847 -0.624037,-1.016949 0,-0.557091 0.9226691,-1.409861 1.5254238,-1.409861 0.6027546,0 1.5254237,0.85277 1.5254237,1.409861 0,0.448788 -1.1082409,1.640986 -1.5254237,1.640986 -0.1525424,0 -0.5581664,-0.280816 -0.9013868,-0.624037 z"
     style="fill:#ffffff" /><path
     id="path3389"
     d="m 13.169492,52.830508 c -1.046179,-1.046178 -0.180778,-3.050847 1.317028,-3.050847 0.627418,0 1.733819,1.106401 1.733819,1.733819 0,1.497806 -2.004669,2.363207 -3.050847,1.317028 z"
     style="fill:#ffffff" /><path
     id="path3391"
     d="m 20.033898,52.830508 c -0.279661,-0.279661 -0.508474,-0.843523 -0.508474,-1.253026 0,-1.888733 2.641905,-2.398046 3.310962,-0.638295 0.653037,1.717619 -1.513831,3.179979 -2.802488,1.891321 z"
     style="fill:#ffffff" /><path
     id="path3393"
     d="m 27.209112,52.943211 c -1.205699,-0.844504 -0.408506,-3.16355 1.087498,-3.16355 1.552091,0 2.294216,2.098295 1.101504,3.114407 -0.646168,0.550492 -1.44754,0.568483 -2.189002,0.04914 z"
     style="fill:#ffffff" /><path
     id="path3395"
     d="m 12.497542,54.617252 c -0.988214,-0.407758 -1.361949,-1.265584 -1.361949,-3.126056 0,-1.502741 0.08343,-1.818075 0.624037,-2.358684 l 0.624037,-0.624037 9.01438,0 9.01438,0 0.684045,0.812941 c 0.624834,0.742574 0.67558,0.962753 0.586248,2.543696 -0.07755,1.372401 -0.215902,1.848921 -0.668214,2.301466 -0.566749,0.567039 -0.626386,0.571047 -9.271275,0.623096 -4.785472,0.02881 -8.946032,-0.04878 -9.245689,-0.172422 z M 30.55046,53.829005 c 0.597368,-0.46989 0.669879,-0.70076 0.669879,-2.132851 0,-1.202379 -0.122128,-1.756746 -0.486012,-2.206124 l -0.486012,-0.600199 -8.766957,0 c -10.379995,0 -9.83729,-0.149445 -9.83729,2.708895 0,2.91308 -0.544231,2.757206 9.626731,2.757206 8.325319,0 8.631914,-0.01741 9.279661,-0.526927 z"
     style="fill:#ffffff" /><path
     id="path3397"
     d="m 19.224923,47.383586 c -0.272459,-0.0712 -0.188049,-0.35885 0.123594,-0.421179 0.364053,-0.07281 2.162756,-0.07129 3.112318,0.0026 0.62173,0.0484 0.741563,0.08293 0.741563,0.213694 0,0.08578 -0.09101,0.180356 -0.202244,0.210166 -0.230803,0.06185 -3.536016,0.05721 -3.775231,-0.0053 z"
     style="fill:#ffffff" /><path
     id="path3399"
     d="m 19.269866,46.39336 c -0.266599,-0.05135 -0.266599,-0.347783 0,-0.419228 0.268139,-0.07186 2.55859,-0.07053 3.325799,0.0019 0.492355,0.0465 0.606733,0.08652 0.606733,0.212316 0,0.109298 -0.09941,0.171445 -0.337074,0.210729 -0.37033,0.06121 -3.2719,0.05658 -3.595458,-0.0057 z"
     style="fill:#ffffff" /><path
     id="path3401"
     d="m 19.359752,45.403022 c -0.209931,-0.02605 -0.292131,-0.08253 -0.292131,-0.200714 0,-0.09045 0.06398,-0.189013 0.142182,-0.219022 0.18713,-0.07181 2.915955,-0.06895 3.520692,0.0037 0.364571,0.04379 0.471903,0.09188 0.471903,0.211415 0,0.119539 -0.107332,0.167624 -0.471903,0.211414 -0.497421,0.05975 -2.873171,0.05497 -3.370743,-0.0068 z"
     style="fill:#ffffff" /><path
     id="path3403"
     d="m 35.966275,41.771849 c -0.287137,-0.114161 -0.698899,-0.504038 -0.861946,-0.816134 -0.292461,-0.559816 -0.08565,-1.439586 0.442044,-1.880468 0.723948,-0.604849 1.899339,-0.326063 2.357053,0.559058 0.165914,0.320842 0.167696,1.006984 0.0034,1.32141 -0.378305,0.724133 -1.249954,1.090715 -1.940583,0.816134 z"
     style="fill:#ffffff" /><path
     id="path3405"
     d="m 37.477242,38.589549 -0.601365,-0.394145 0.166815,-0.475985 c 0.412262,-1.176334 0.443376,-2.373904 0.09128,-3.513427 -0.466702,-1.510441 -1.772829,-2.877575 -3.28003,-3.433234 -0.247187,-0.09113 -0.482713,-0.19431 -0.52339,-0.229287 -0.04068,-0.03498 -0.03057,-0.230537 0.02247,-0.434576 0.05304,-0.204039 0.138195,-0.53187 0.18924,-0.728514 l 0.09281,-0.357535 0.717114,0.261715 c 2.776825,1.013415 4.580996,3.600731 4.578307,6.565633 -4.22e-4,0.469657 -0.05328,1.076391 -0.117453,1.348297 -0.142657,0.604445 -0.59307,1.800069 -0.674878,1.791466 -0.03276,-0.0034 -0.33017,-0.183628 -0.660921,-0.400408 z"
     style="fill:#ffffff" /><path
     id="path3407"
     d="m 30.743682,30.521732 c -0.42103,-0.282505 -0.602105,-0.838602 -0.424775,-1.304522 0.281395,-0.73934 1.230696,-0.979719 1.821281,-0.461179 0.538682,0.472969 0.542502,1.137421 0.0096,1.67032 -0.250557,0.250557 -0.366621,0.300315 -0.700501,0.300315 -0.26733,0 -0.50158,-0.06803 -0.705608,-0.204934 z"
     style="fill:#ffffff" /><path
     id="path3409"
     d="m 12.735003,34.299653 c -0.03823,-0.122983 -1.339716,-16.19045 -1.505334,-18.584025 -0.09167,-1.324785 -0.08586,-1.557852 0.05436,-2.183061 0.997816,-4.4489615 6.962258,-7.1466725 12.546726,-5.6748712 1.836805,0.4840947 3.433095,1.4019101 4.633348,2.6640262 1.083315,1.139152 1.64527,2.225261 1.817861,3.513443 0.05678,0.423806 -0.05953,3.331546 -0.419262,10.481679 l -0.497845,9.895167 -8.297464,0 c -6.559421,0 -8.30478,-0.02354 -8.332389,-0.112358 z m 7.411256,-5.912855 c 0,-4.889344 -0.0099,-5.219291 -0.157301,-5.264995 -1.086558,-0.336804 -1.977847,-1.086435 -2.462679,-2.071267 -0.288994,-0.58703 -0.30133,-0.654484 -0.30133,-1.647673 0,-0.989379 0.01325,-1.062681 0.297007,-1.642913 0.559146,-1.143361 1.619551,-1.934253 2.884138,-2.151106 1.622672,-0.278257 3.335644,0.627803 4.066817,2.151106 0.543721,1.132769 0.451832,2.595864 -0.229618,3.656107 -0.504059,0.784245 -1.365186,1.442703 -2.23189,1.706608 -0.147453,0.0449 -0.157301,0.37446 -0.157301,5.264133 l 0,5.216235 3.275348,0 3.275347,0 0.04777,-0.382017 c 0.02627,-0.21011 0.151244,-2.424688 0.277711,-4.921284 0.373175,-7.366935 0.581932,-11.118322 0.685271,-12.314444 0.128627,-1.48881 0.108151,-2.043673 -0.100317,-2.718362 C 28.354843,10.158695 24.03424,7.9749262 19.719298,8.4168365 17.413631,8.652969 15.618552,9.3533263 14.1345,10.595769 c -0.700362,0.586339 -1.447711,1.589241 -1.723404,2.312712 -0.404394,1.061209 -0.407402,1.415035 -0.05099,5.998117 0.499687,6.425469 1.128304,14.076866 1.183419,14.404304 l 0.04917,0.292131 3.276782,0 3.276783,0 0,-5.216235 z m 1.80908,-7.445632 c 0.895551,-0.567942 1.042589,-1.769283 0.317612,-2.594986 -0.347906,-0.396243 -0.733667,-0.563755 -1.292355,-0.561189 -1.36552,0.0063 -2.111412,1.276521 -1.502753,2.559175 0.393851,0.829979 1.637556,1.129674 2.477496,0.597 z"
     style="fill:#ffffff" /><path
     id="path3411"
     d="M 30.942038,10.989172 C 28.926465,10.447154 27.452988,8.3170862 27.632826,6.2053521 27.735134,5.004 27.557106,4.8813636 30.285635,8.0327678 c 1.348137,1.5570739 2.474262,2.8912552 2.502502,2.9648472 0.04289,0.111772 -0.06494,0.13283 -0.654891,0.127889 -0.38843,-0.0033 -0.924474,-0.0646 -1.191208,-0.136332 z"
     style="fill:#ffffff" /><path
     id="path3413"
     d="M 8.3830122,10.401322 C 8.0837733,10.329944 8.0153345,10.282707 8.0952388,10.202699 8.1528991,10.144963 9.462143,9.0017266 11.00467,7.662173 c 1.737143,-1.5085614 2.829729,-2.3980604 2.870632,-2.3370478 0.113188,0.1688324 0.0751,1.1601073 -0.06529,1.6990854 -0.512068,1.9659601 -2.224724,3.3441214 -4.2703558,3.4363244 -0.4202192,0.01894 -0.9407094,-0.0077 -1.156645,-0.05921 z"
     style="fill:#ffffff" /><path
     id="path3415"
     d="M 5.2878285,41.551476 C 4.82312,41.210575 4.3262428,40.517167 4.3262428,40.209553 c 0,-0.46864 0.949817,-1.303219 1.4831662,-1.303219 0.4753466,0 1.3210947,0.715105 1.4491441,1.225295 0.032767,0.130555 -0.019381,0.322892 -0.1408199,0.519384 -0.2224669,0.359959 -1.1373626,1.222648 -1.293136,1.219346 -0.057813,-0.0012 -0.2993588,-0.144723 -0.5367687,-0.318883 z"
     style="fill:#ffffff" /><path
     id="path3417"
     d="M 5.237956,41.514727 C 4.7685867,41.143712 4.3262428,40.504273 4.3262428,40.196782 c 0,-0.254364 0.3944815,-0.752427 0.8248999,-1.041499 0.6129508,-0.411663 1.1074509,-0.304593 1.7188662,0.372171 0.4351095,0.481614 0.4901588,0.731292 0.2477243,1.123559 -0.230709,0.373295 -1.1386814,1.221574 -1.307536,1.221574 -0.065733,0 -0.3232414,-0.161037 -0.5722412,-0.35786 z"
     style="fill:#ffffff" /><path
     id="path3419"
     d="M 5.237956,41.514727 C 4.778258,41.151357 4.3262428,40.50568 4.3262428,40.2124 c 0,-0.28133 0.3524678,-0.745118 0.7829942,-1.030287 0.6618339,-0.43838 1.1369057,-0.345204 1.7607719,0.345341 0.4321263,0.478312 0.4898136,0.73185 0.2535118,1.114195 -0.2414998,0.390754 -1.1292989,1.230938 -1.3006992,1.230938 -0.072676,0 -0.3358657,-0.161037 -0.5848655,-0.35786 z"
     style="fill:#ffffff" /><path
     id="path3421"
     d="M 3.6697761,38.524316 C 3.3751517,37.7293 3.305765,37.301923 3.3012906,36.254683 c -0.00971,-2.271709 0.5828864,-3.657456 2.2512682,-5.264477 0.8449797,-0.813902 1.377517,-1.188517 2.061795,-1.450375 0.49821,-0.190655 0.5127084,-0.191229 0.6341564,-0.02514 0.1959495,0.267977 0.306581,0.766541 0.2100992,0.946819 -0.04669,0.08724 -0.4239661,0.322741 -0.8383925,0.523335 -1.0414353,0.504083 -1.8577752,1.373752 -2.4893739,2.651995 -0.6996307,1.415928 -0.7345616,1.801672 -0.385662,4.258888 0.05046,0.355377 0.030614,0.405003 -0.2785905,0.69662 -0.4469727,0.421549 -0.6208833,0.406701 -0.7968144,-0.06803 z"
     style="fill:#ffffff" /><path
     id="path3423"
     d="M 3.6697761,38.524316 C 3.2899298,37.499337 3.1815242,36.421065 3.3375862,35.220141 c 0.2166024,-1.666793 0.6725118,-2.606784 1.8875212,-3.89168 0.8729324,-0.923143 1.78529,-1.602142 2.4489646,-1.822579 0.4368387,-0.145094 0.462336,-0.144499 0.5778655,0.0135 0.1940688,0.265405 0.3024816,0.76311 0.2056403,0.944059 -0.047257,0.0883 -0.3860362,0.304896 -0.7528427,0.481323 -1.1488306,0.552565 -2.0234658,1.508795 -2.7182721,2.97186 -0.4754154,1.00109 -0.5410233,1.55995 -0.3564161,3.036021 0.1684865,1.347176 0.1513556,1.449816 -0.2950254,1.767668 -0.3791999,0.270014 -0.5064404,0.232527 -0.6652454,-0.195994 z"
     style="fill:#ffffff" /></svg>