<?xml version="1.0" encoding="utf-8"?>
<!-- Generator: Adobe Illustrator 19.0.1, SVG Export Plug-In . SVG Version: 6.00 Build 0)  -->
<svg version="1.1" id="Layer_1" xmlns="http://www.w3.org/2000/svg" xmlns:xlink="http://www.w3.org/1999/xlink" x="0px" y="0px"
	 viewBox="0 0 285 510" style="enable-background:new 0 0 285 510;" xml:space="preserve">
<path style="fill:#D2D6DB;" d="M285,27.28C285,13.32,273.68,2,259.72,2H25.28C11.32,2,0,13.32,0,27.28v451.43
	C0,492.68,11.32,504,25.28,504h234.43c13.96,0,25.28-11.32,25.28-25.28V27.28z M269,441H16V42h253V441z"/>
<path style="fill:#F6F8FA;" d="M165.83,26.75H77.25c-2.6,0-4.71-2.11-4.71-4.71v0c0-2.6,2.11-4.71,4.71-4.71h88.59
	c2.6,0,4.71,2.11,4.71,4.71v0C170.54,24.64,168.43,26.75,165.83,26.75z"/>
<circle style="fill:#F6F8FA;" cx="189.46" cy="22.04" r="4.71"/>
<circle style="fill:#F6F8FA;" cx="142.5" cy="473" r="19.5"/>
<circle style="fill:none;stroke:#A5ADB7;stroke-miterlimit:10;" cx="142.5" cy="473" r="17.12"/>
</svg>
