<?xml version="1.0" encoding="utf-8"?>
<!-- Generator: Adobe Illustrator 16.0.0, SVG Export Plug-In . SVG Version: 6.00 Build 0)  -->
<!DOCTYPE svg PUBLIC "-//W3C//DTD SVG 1.1//EN" "http://www.w3.org/Graphics/SVG/1.1/DTD/svg11.dtd">
<svg version="1.1" id="Layer_1" xmlns="http://www.w3.org/2000/svg" xmlns:xlink="http://www.w3.org/1999/xlink" x="0px" y="0px"
	 width="82px" height="82px" viewBox="0 0 82 82" enable-background="new 0 0 82 82" xml:space="preserve">
<path fill="#5FA9DD" d="M76.58,1H5.42C2.98,1,1,2.98,1,5.42v71.17C1,79.02,2.98,81,5.42,81h71.17c2.439,0,4.42-1.98,4.42-4.42V5.42
	C81,2.98,79.02,1,76.58,1z M59.641,32.04c0.02,0.37,0.029,0.75,0.029,1.13c0,11.551-8.79,24.88-24.88,24.88
	c-4.94,0-9.53-1.45-13.4-3.93c0.68,0.08,1.38,0.12,2.09,0.12c4.1,0,7.87-1.4,10.86-3.74c-3.83-0.07-7.06-2.6-8.17-6.07
	c0.53,0.1,1.08,0.16,1.65,0.16c0.8,0,1.57-0.109,2.3-0.311c-4-0.799-7.01-4.339-7.01-8.569c0-0.04,0-0.07,0-0.11
	c1.18,0.65,2.53,1.05,3.96,1.09c-2.35-1.57-3.89-4.24-3.89-7.28c0-1.6,0.43-3.1,1.18-4.4c4.31,5.29,10.76,8.77,18.02,9.14
	c-0.149-0.64-0.229-1.31-0.229-1.99c0-4.83,3.91-8.74,8.74-8.74c2.51,0,4.789,1.06,6.379,2.76c1.99-0.39,3.86-1.12,5.551-2.12
	c-0.65,2.04-2.041,3.76-3.84,4.84c1.77-0.21,3.449-0.68,5.02-1.38C62.83,29.27,61.35,30.81,59.641,32.04z"/>
</svg>
