<?xml version="1.0" encoding="utf-8"?>
<!-- Generator: Adobe Illustrator 19.0.1, SVG Export Plug-In . SVG Version: 6.00 Build 0)  -->
<svg version="1.1" id="Layer_1" xmlns="http://www.w3.org/2000/svg" xmlns:xlink="http://www.w3.org/1999/xlink" x="0px" y="0px"
	 viewBox="0 0 82 82" style="enable-background:new 0 0 82 82;" xml:space="preserve">
<path style="fill:#C5C2C2;" d="M76.58,1H5.42C2.98,1,1,2.98,1,5.42v71.17C1,79.02,2.98,81,5.42,81h71.17c2.44,0,4.42-1.98,4.42-4.42
	V5.42C81,2.98,79.02,1,76.58,1z M59.64,32.04c0.02,0.37,0.03,0.75,0.03,1.13c0,11.55-8.79,24.88-24.88,24.88
	c-4.94,0-9.53-1.45-13.4-3.93c0.68,0.08,1.38,0.12,2.09,0.12c4.1,0,7.87-1.4,10.86-3.74c-3.83-0.07-7.06-2.6-8.17-6.07
	c0.53,0.1,1.08,0.16,1.65,0.16c0.8,0,1.57-0.11,2.3-0.31c-4-0.8-7.01-4.34-7.01-8.57c0-0.04,0-0.07,0-0.11
	c1.18,0.65,2.53,1.05,3.96,1.09c-2.35-1.57-3.89-4.24-3.89-7.28c0-1.6,0.43-3.1,1.18-4.4c4.31,5.29,10.76,8.77,18.02,9.14
	c-0.15-0.64-0.23-1.31-0.23-1.99c0-4.83,3.91-8.74,8.74-8.74c2.51,0,4.79,1.06,6.38,2.76c1.99-0.39,3.86-1.12,5.55-2.12
	c-0.65,2.04-2.04,3.76-3.84,4.84c1.77-0.21,3.45-0.68,5.02-1.38C62.83,29.27,61.35,30.81,59.64,32.04z"/>
</svg>
