<?xml version="1.0" encoding="utf-8"?>
<!-- Generator: Adobe Illustrator 16.0.0, SVG Export Plug-In . SVG Version: 6.00 Build 0)  -->
<!DOCTYPE svg PUBLIC "-//W3C//DTD SVG 1.1//EN" "http://www.w3.org/Graphics/SVG/1.1/DTD/svg11.dtd">
<svg version="1.1" id="Layer_1" xmlns="http://www.w3.org/2000/svg" xmlns:xlink="http://www.w3.org/1999/xlink" x="0px" y="0px"
	 width="612px" height="792px" viewBox="0 0 612 792" enable-background="new 0 0 612 792" xml:space="preserve">
<path fill="#5FA9DD" d="M571.548,97.463H40.451c-18.21,0-32.988,14.778-32.988,32.988v531.171c0,18.136,14.778,32.913,32.988,32.913
	h531.171c18.211,0,32.988-14.777,32.988-32.988V130.452C604.536,112.241,589.759,97.463,571.548,97.463z M445.117,329.128
	c0.149,2.761,0.225,5.598,0.225,8.434c0,86.202-65.604,185.689-185.689,185.689c-36.87,0-71.127-10.821-100.01-29.331
	c5.075,0.598,10.299,0.896,15.599,0.896c30.6,0,58.736-10.448,81.052-27.913c-28.584-0.522-52.691-19.404-60.976-45.303
	c3.955,0.746,8.061,1.194,12.314,1.194c5.971,0,11.718-0.821,17.166-2.313c-29.854-5.971-52.318-32.392-52.318-63.962
	c0-0.298,0-0.522,0-0.821c8.807,4.851,18.882,7.836,29.555,8.135c-17.539-11.717-29.032-31.645-29.032-54.333
	c0-11.941,3.209-23.137,8.807-32.839c32.167,39.481,80.307,65.454,134.49,68.215c-1.119-4.776-1.717-9.777-1.717-14.852
	c0-36.048,29.183-65.23,65.23-65.23c18.733,0,35.75,7.911,47.617,20.599c14.852-2.911,28.809-8.359,41.422-15.822
	c-4.852,15.225-15.226,28.063-28.66,36.123c13.211-1.567,25.749-5.075,37.467-10.3C468.926,308.454,457.88,319.948,445.117,329.128z
	"/>
</svg>
