<?xml version="1.0" encoding="utf-8"?>
<!-- Generator: Adobe Illustrator 19.0.1, SVG Export Plug-In . SVG Version: 6.00 Build 0)  -->
<svg version="1.1" id="Layer_1" xmlns="http://www.w3.org/2000/svg" xmlns:xlink="http://www.w3.org/1999/xlink" x="0px" y="0px"
	 viewBox="0 0 30 30" style="enable-background:new 0 0 30 30;" xml:space="preserve">
<g>
	<rect x="12.66" y="3.34" style="fill:#FFFFFF;" width="4.68" height="2.1"/>
	<path style="fill:#FFFFFF;" d="M25.29,3.34h-1.6v2.1h1.29V25.4H5.02V5.44h1.29v-2.1h-1.6c-0.99,0-1.79,0.8-1.79,1.79v20.59
		c0,0.99,0.8,1.79,1.79,1.79h20.59c0.99,0,1.79-0.8,1.79-1.79V5.12C27.08,4.14,26.28,3.34,25.29,3.34z"/>
	<path style="fill:#FFFFFF;" d="M8.38,7.28h2.21c0.99,0,1.79-0.8,1.79-1.79V3.29c0-0.99-0.8-1.79-1.79-1.79H8.38
		C7.4,1.5,6.6,2.3,6.6,3.29v2.21C6.6,6.48,7.4,7.28,8.38,7.28z M8.7,5.18V3.6h1.57v1.57H8.7z"/>
	<path style="fill:#FFFFFF;" d="M19.41,7.28h2.21c0.99,0,1.79-0.8,1.79-1.79V3.29c0-0.99-0.8-1.79-1.79-1.79h-2.21
		c-0.99,0-1.79,0.8-1.79,1.79v2.21C17.62,6.48,18.43,7.28,19.41,7.28z M19.73,5.18V3.6h1.57v1.57H19.73z"/>
	<rect x="5.31" y="8.85" style="fill:#FFFFFF;" width="19.38" height="2.1"/>
	<path style="fill:#FFFFFF;" d="M19.04,14.58l-4.1,4.1l-3.98-3.98c-0.41-0.41-1.08-0.41-1.49,0c-0.41,0.41-0.41,1.08,0,1.49
		l5.47,5.47l5.59-5.59c0.2-0.2,0.31-0.46,0.31-0.74c0-0.28-0.11-0.55-0.31-0.74C20.11,14.17,19.45,14.17,19.04,14.58z M9.82,15.83
		L9.82,15.83L9.82,15.83L9.82,15.83z"/>
</g>
</svg>
