<?xml version="1.0" encoding="utf-8"?>
<!-- Generator: Adobe Illustrator 19.0.1, SVG Export Plug-In . SVG Version: 6.00 Build 0)  -->
<svg version="1.1" id="Layer_1" xmlns="http://www.w3.org/2000/svg" xmlns:xlink="http://www.w3.org/1999/xlink" x="0px" y="0px"
	 viewBox="0 0 150 150" style="enable-background:new 0 0 150 150;" xml:space="preserve">
<style type="text/css">
	.st0{fill:#1687E7;}
	.st1{fill:#2DCFFC;}
	.st2{fill:#33D383;}
	.st3{fill:#1EADFC;}
	.st4{fill:#FC8231;}
	.st5{fill:#FC703A;}
	.st6{fill:#5CC1A4;}
	.st7{fill:#F27821;}
	.st8{fill:#2C4355;}
	.st9{fill:#269E62;}
	.st10{fill:#FECF37;}
	.st11{fill:#F9B60D;}
	.st12{fill:#229BBD;}
	.st13{fill:#F6F8FB;}
	.st14{fill:#ECF0F2;}
	.st15{fill:#D1D9E0;}
	.st16{fill:#AFB0B4;}
	.st17{fill:#5C5B5E;}
	.st18{fill:#FFFFFF;}
</style>
<circle class="st1" cx="74.4" cy="74" r="70.1"/>
<g>
	<g>
		<path class="st18" d="M109.4,64.5v43.6h-70V64.5L72,87.9l2.3,1.6l2.3-1.6L109.4,64.5 M110.7,58.8L74.3,84.8L38.1,58.8
			c-1.4,0-2.6,1.2-2.6,2.6v48c0,1.4,1.2,2.6,2.6,2.6h72.6c1.4,0,2.6-1.2,2.6-2.6v-48C113.3,60,112.2,58.8,110.7,58.8L110.7,58.8z"/>
	</g>
	<g>
		<path class="st18" d="M50.9,69.6H47V35.5c0-2.5,2-4.5,4.5-4.5h46.2c2.5,0,4.5,2,4.5,4.5v33.1h-3.9V35.5c0-0.4-0.3-0.6-0.6-0.6
			H51.6c-0.4,0-0.6,0.3-0.6,0.6V69.6z"/>
	</g>
	<g>
		<path class="st18" d="M74.4,54.3c-4.6,0-8.4-3.8-8.4-8.4s3.8-8.4,8.4-8.4c4.6,0,8.4,3.8,8.4,8.4S79.1,54.3,74.4,54.3z M74.4,41.3
			c-2.5,0-4.5,2-4.5,4.5c0,2.5,2,4.5,4.5,4.5c2.5,0,4.5-2,4.5-4.5C79,43.3,76.9,41.3,74.4,41.3z"/>
	</g>
	<g>
		<rect x="55" y="56.9" class="st18" width="38.9" height="3.9"/>
	</g>
	<g>
		<rect x="55" y="63.4" class="st18" width="19.5" height="3.9"/>
	</g>
</g>
</svg>
