<?xml version="1.0" encoding="utf-8"?>
<!-- Generator: Adobe Illustrator 19.0.1, SVG Export Plug-In . SVG Version: 6.00 Build 0)  -->
<svg version="1.1" id="Layer_1" xmlns="http://www.w3.org/2000/svg" xmlns:xlink="http://www.w3.org/1999/xlink" x="0px" y="0px"
	 viewBox="0 0 60 70" style="enable-background:new 0 0 60 70;" xml:space="preserve">
<style type="text/css">
	.st0{fill:#F9F9F9;}
	.st1{fill:#F07922;}
	.st2{fill:#5DC2A4;}
	.st3{fill:#F9C02D;}
</style>
<path class="st0" d="M29.7,5.2c6.7,0,12,4,12,8.8c0,0.7-0.9,16.9-1.2,26.3H19.8c-0.7-8.2-2.1-25.4-2.2-26.4C17.7,9,23,5.2,29.7,5.2
	 M29.7,3.8c-7.4,0-13.4,4.6-13.4,10.2c0,0.4,2.2,27.6,2.2,27.6h23.2c0,0,1.4-27.4,1.4-27.6C43.1,8.3,37,3.8,29.7,3.8L29.7,3.8z"/>
<path class="st0" d="M30.1,24.6L30.1,24.6c-0.7,0-1.4,0.6-1.4,1.4v14.7c0,0.7,0.6,0,1.4,0l0,0c0.7,0,1.4,0.7,1.4,0V26
	C31.5,25.3,30.8,24.6,30.1,24.6z"/>
<path class="st1" d="M39.6,0.6c-0.7,2.1-0.4,4.5,1.2,6.2c1.6,1.7,3.8,2.5,5.9,2.1L39.6,0.6z"/>
<path class="st1" d="M11.9,7.9c2.1,0.7,4.5,0.4,6.2-1.2c1.7-1.5,2.5-3.8,2.1-5.9L11.9,7.9z"/>
<path class="st0" d="M30.1,15c-3,0-5.5,2.5-5.5,5.5s2.5,5.5,5.5,5.5c3,0,5.5-2.5,5.5-5.5C35.5,17.3,33.1,15,30.1,15z M30.1,23
	c-1.2,0-2.4-1-2.4-2.4c0-1.4,1-2.4,2.4-2.4c1.2,0,2.4,1,2.4,2.4C32.4,22,31.3,23,30.1,23z"/>
<g>
	<path class="st0" d="M31.3,56.7h-1.9c-1.1,0-2-0.1-2-0.2V56c0-0.1,0.9-0.2,2-0.2h1.9c1.1,0,2,0.1,2,0.2v0.6
		C33.3,56.6,32.3,56.7,31.3,56.7z"/>
	<path class="st0" d="M31.3,58.1h-1.9c-1.1,0-2-0.1-2-0.2v-0.6c0-0.1,0.9-0.2,2-0.2h1.9c1.1,0,2,0.1,2,0.2v0.6
		C33.3,58.1,32.3,58.1,31.3,58.1z"/>
	<path class="st0" d="M31.3,59.6h-1.9c-1.1,0-2-0.1-2-0.2v-0.6c0-0.1,0.9-0.2,2-0.2h1.9c1.1,0,2,0.1,2,0.2v0.6
		C33.3,59.5,32.3,59.6,31.3,59.6z"/>
</g>
<g>
	<path class="st2" d="M7.7,45.3c0.1,0.5,0.4,1,0.5,1.5l0,0l-2,1.2c-0.4-0.6-0.6-1.4-0.7-2.2c-1.2-5.3,2-10.7,7.3-11.9l0.5,2.2
		C9.1,37.3,6.7,41.4,7.7,45.3z"/>
</g>
<circle class="st3" cx="15.5" cy="34.6" r="1.7"/>
<path class="st2" d="M41.5,42.6H18.7c-1.5,0-2.6,1.1-2.6,2.6v7.1c0,1.5,1.1,2.6,2.6,2.6h22.8c1.5,0,2.6-1.1,2.6-2.6v-7.1
	C44.1,43.9,43,42.6,41.5,42.6z M29.5,50.5c0,1.1-0.7,1.9-1.7,1.9h-4c-1,0-1.7-0.9-1.7-1.9v-3.2c0-1.1,0.7-1.9,1.7-1.9h4
	c1,0,1.7,0.9,1.7,1.9V50.5z M38.1,51.5c0,0.5-0.7,0.9-1.7,0.9h-4c-1,0-1.7-0.4-1.7-0.9v-1.4c0-0.5,0.7-0.9,1.7-0.9h4
	c1,0,1.7,0.4,1.7,0.9C38.1,50.2,38.1,51.5,38.1,51.5z M38.1,47.7c0,0.5-0.7,0.9-1.7,0.9h-4c-1,0-1.7-0.4-1.7-0.9v-1.4
	c0-0.5,0.7-0.9,1.7-0.9h4c1,0,1.7,0.4,1.7,0.9C38.1,46.3,38.1,47.7,38.1,47.7z"/>
<path class="st0" d="M41.9,61.6c1.2,0,2.2,1,2.2,2.2v2.9c0,1.2-1,2.2-2.2,2.2H19.4c-1.2,0-2.2-1-2.2-2.2v-2.9c0-1.2,1-2.2,2.2-2.2
	H41.9 M41.9,60.7H19.4c-1.7,0-3.2,1.5-3.2,3.2v2.9c0,1.7,1.5,3.2,3.2,3.2H42c1.7,0,3.2-1.5,3.2-3.2v-2.9
	C45.1,62.1,43.7,60.7,41.9,60.7L41.9,60.7z"/>
<circle class="st1" cx="40.3" cy="65.3" r="2.6"/>
<circle class="st1" cx="30.3" cy="65.3" r="2.6"/>
<circle class="st1" cx="20.9" cy="65.3" r="2.6"/>
<circle class="st3" cx="44.6" cy="34.7" r="1.7"/>
<g>
	<path class="st2" d="M52.6,45.2c-0.1,0.5-0.2,1-0.5,1.5l0,0l2,1.2c0.4-0.6,0.6-1.4,0.7-2.2c1.2-5.3-2-10.7-7.3-11.9L47.1,36
		C51,37,53.6,41.1,52.6,45.2z"/>
</g>
<circle class="st3" cx="51.8" cy="49.6" r="2.2"/>
<circle class="st3" cx="8.9" cy="49.6" r="2.2"/>
</svg>
