<?xml version="1.0" encoding="utf-8"?>
<!-- Generator: Adobe Illustrator 19.0.1, SVG Export Plug-In . SVG Version: 6.00 Build 0)  -->
<svg version="1.1" id="Layer_1" xmlns="http://www.w3.org/2000/svg" xmlns:xlink="http://www.w3.org/1999/xlink" x="0px" y="0px"
	 viewBox="0 0 252 72" style="enable-background:new 0 0 252 72;" xml:space="preserve">
<style type="text/css">
	.st0{fill:#2D4455;}
	.st1{fill:#F07922;}
	.st2{fill:#5DC2A4;}
	.st3{fill:#F9C02D;}
</style>
<g>
	<path class="st0" d="M26.8,12c5.4,0,9.7,3.2,9.7,7.1c0,0.6-0.7,13.6-1,21.2H18.8C18.2,33.7,17.1,19.8,17,19
		C17.1,15.1,21.4,12,26.8,12 M26.8,10.9c-6,0-10.8,3.7-10.8,8.2c0,0.3,1.8,22.3,1.8,22.3h18.7c0,0,1.1-22.1,1.1-22.3
		C37.6,14.5,32.7,10.9,26.8,10.9L26.8,10.9z"/>
	<path class="st0" d="M27.1,27.7L27.1,27.7c-0.6,0-1.1,0.5-1.1,1.1v10.8c0,0.6,0.5,1.1,1.1,1.1h0c0.6,0,1.1-0.5,1.1-1.1V28.8
		C28.2,28.2,27.7,27.7,27.1,27.7z"/>
	<path class="st1" d="M34.8,8.3c-0.6,1.7-0.3,3.6,1,5s3.1,2,4.8,1.7L34.8,8.3z"/>
	<path class="st1" d="M12.4,14.2c1.7,0.6,3.6,0.3,5-1c1.4-1.2,2-3.1,1.7-4.8L12.4,14.2z"/>
	<path class="st0" d="M27.1,19.9c-2.4,0-4.4,2-4.4,4.4c0,2.4,2,4.4,4.4,4.4s4.4-2,4.4-4.4C31.5,21.8,29.5,19.9,27.1,19.9z
		 M27.1,26.4c-1,0-1.9-0.8-1.9-1.9s0.8-1.9,1.9-1.9c1,0,1.9,0.8,1.9,1.9S28.1,26.4,27.1,26.4z"/>
	<g>
		<path class="st0" d="M28.1,53.6h-1.5c-0.9,0-1.6-0.1-1.6-0.2V53c0-0.1,0.7-0.2,1.6-0.2h1.5c0.9,0,1.6,0.1,1.6,0.2v0.5
			C29.7,53.5,28.9,53.6,28.1,53.6z"/>
		<path class="st0" d="M28.1,54.7h-1.5c-0.9,0-1.6-0.1-1.6-0.2v-0.5c0-0.1,0.7-0.2,1.6-0.2h1.5c0.9,0,1.6,0.1,1.6,0.2v0.5
			C29.7,54.7,28.9,54.7,28.1,54.7z"/>
		<path class="st0" d="M28.1,55.9h-1.5c-0.9,0-1.6-0.1-1.6-0.2v-0.5c0-0.1,0.7-0.2,1.6-0.2h1.5c0.9,0,1.6,0.1,1.6,0.2v0.5
			C29.7,55.8,28.9,55.9,28.1,55.9z"/>
	</g>
	<g>
		<path class="st2" d="M9,44.4c0.1,0.4,0.3,0.8,0.4,1.2l0,0l-1.6,1c-0.3-0.5-0.5-1.1-0.6-1.8c-1-4.3,1.6-8.6,5.9-9.6l0.4,1.8
			C10.2,37.9,8.2,41.2,9,44.4z"/>
	</g>
	<circle class="st3" cx="15.3" cy="35.7" r="1.4"/>
	<path class="st2" d="M36.3,42.2H17.9c-1.2,0-2.1,0.9-2.1,2.1v5.7c0,1.2,0.9,2.1,2.1,2.1h18.4c1.2,0,2.1-0.9,2.1-2.1v-5.7
		C38.4,43.2,37.5,42.2,36.3,42.2z M26.6,48.6c0,0.9-0.6,1.5-1.4,1.5H22c-0.8,0-1.4-0.7-1.4-1.5V46c0-0.9,0.6-1.5,1.4-1.5h3.2
		c0.8,0,1.4,0.7,1.4,1.5V48.6z M33.6,49.4c0,0.4-0.6,0.7-1.4,0.7H29c-0.8,0-1.4-0.3-1.4-0.7v-1.1c0-0.4,0.6-0.7,1.4-0.7h3.2
		c0.8,0,1.4,0.3,1.4,0.7V49.4z M33.6,46.3c0,0.4-0.6,0.7-1.4,0.7H29c-0.8,0-1.4-0.3-1.4-0.7v-1.1c0-0.4,0.6-0.7,1.4-0.7h3.2
		c0.8,0,1.4,0.3,1.4,0.7V46.3z"/>
	<path class="st0" d="M36.6,57.5c1,0,1.8,0.8,1.8,1.8v2.3c0,1-0.8,1.8-1.8,1.8H18.5c-1,0-1.8-0.8-1.8-1.8v-2.3c0-1,0.8-1.8,1.8-1.8
		H36.6 M36.6,56.8H18.5c-1.4,0-2.6,1.2-2.6,2.6v2.3c0,1.4,1.2,2.6,2.6,2.6h18.2c1.4,0,2.6-1.2,2.6-2.6v-2.3
		C39.2,57.9,38.1,56.8,36.6,56.8L36.6,56.8z"/>
	<circle class="st1" cx="35.3" cy="60.5" r="2.1"/>
	<circle class="st1" cx="27.3" cy="60.5" r="2.1"/>
	<circle class="st1" cx="19.7" cy="60.5" r="2.1"/>
	<circle class="st3" cx="38.8" cy="35.8" r="1.4"/>
	<g>
		<path class="st2" d="M45.3,44.3c-0.1,0.4-0.2,0.8-0.4,1.2l0,0l1.6,1c0.3-0.5,0.5-1.1,0.6-1.8c1-4.3-1.6-8.6-5.9-9.6l-0.4,1.8
			C44,37.7,46.1,41,45.3,44.3z"/>
	</g>
	<circle class="st3" cx="44.6" cy="47.8" r="1.8"/>
	<circle class="st3" cx="10" cy="47.8" r="1.8"/>
</g>
<path class="st0" d="M63.2,45.6H66V29.2h-2.9v-4.7h12c2,0,3.3,0.1,4.7,0.5c2.7,0.9,4.5,3.2,4.5,6.2c0,2.2-1,4.4-3.1,5.5v0.1
	c3.1,0.9,4.1,3.5,4.1,5.9c0,3.9-2.7,6.4-5.7,7.2c-1.4,0.3-2.5,0.4-3.9,0.4H63.2V45.6z M75.7,34.5c1.6,0,2.3-1.1,2.3-2.5
	c0-0.9-0.4-1.9-1.2-2.2c-0.5-0.2-0.9-0.2-1.6-0.2h-2.7v4.9H75.7z M76.2,45.2c0.5,0,0.9-0.1,1.2-0.2c1-0.4,1.5-1.6,1.5-2.8
	c0-1.5-0.9-2.7-2.7-2.7h-3.7v5.7H76.2z"/>
<path class="st0" d="M88.6,45.6h2.9V29.2h-2.9v-4.7h11.6c1.9,0,3.7,0.1,5.2,0.5c3.1,0.9,5.2,3.5,5.2,7.2c0,3.4-1.6,5.7-4.2,7.1v0.1
	c0,0,1,0.4,1.6,1.5l2,3.8c0.3,0.6,0.8,0.8,1.7,0.8h0.9v4.7h-4.3c-2.1,0-2.9-0.5-3.6-1.9l-3.1-6c-0.4-0.8-0.9-1.1-2.2-1.1H98v4.4h2.7
	v4.7h-12V45.6z M100.9,36.2c2,0,3.3-1,3.3-3.3c0-1.2-0.3-2.3-1.4-2.8c-0.6-0.3-1.4-0.4-2.5-0.4H98v6.6H100.9z"/>
<path class="st0" d="M115.3,45.6h2.9V29.2h-2.9v-4.7h9.4l8.1,13.7c0.6,1,1.1,2.6,1.1,2.6h0.1c0,0-0.2-1.7-0.2-2.9v-8.7h-3v-4.7h12.4
	v4.7h-2.9v21.1h-6.5l-8.1-13.6c-0.6-1-1.1-2.6-1.1-2.6h-0.1c0,0,0.2,1.7,0.2,2.9v8.6h3v4.7h-12.4V45.6z"/>
<path class="st0" d="M146.2,45.6h2.9V29.2h-2.9v-4.7h11.3c2,0,3.7,0.1,5.3,0.5c5.1,1.4,8.6,5.9,8.6,12.3c0,5.9-3,10.3-7.7,12
	c-1.9,0.7-3.8,0.9-6.2,0.9h-11.4V45.6z M157.4,45.2c1.6,0,2.8-0.2,3.9-0.7c2.2-1.1,3.5-3.7,3.5-7.1c0-3.8-1.6-6.3-4-7.3
	c-1.1-0.5-2.2-0.5-3.5-0.5h-1.9v15.7H157.4z"/>
<path class="st1" d="M173.2,48.2h3.3V27h-3.3v-2.1h11.4c1.8,0,3.2,0.3,4.4,0.9c1.8,0.9,3.1,2.9,3.1,5.5c0,2.6-1.3,4.5-3.2,5.5v0.1
	c2.6,0.8,4.3,3.2,4.3,6.2c0,3.1-1.8,5.7-4.3,6.6c-1.2,0.4-2.4,0.5-3.8,0.5h-11.8V48.2z M185.2,35.9c2.6,0,4.3-1.8,4.3-4.4
	c0-1.7-0.7-3-1.8-3.7c-0.8-0.5-1.8-0.6-3-0.6H179v8.8H185.2z M185.1,48.1c0.8,0,1.8-0.1,2.6-0.4c1.7-0.7,2.8-2.4,2.8-4.6
	c0-3.1-2.1-5-5-5H179v10H185.1z"/>
<path class="st1" d="M208.6,24.5c7.2,0,12.9,5.7,12.9,12.9c0,7.4-5.7,13.3-12.9,13.3c-7.2,0-12.9-5.8-12.9-13.3
	C195.7,30.2,201.5,24.5,208.6,24.5z M208.6,48.4c5.7,0,10.3-4.8,10.3-11c0-6.1-4.6-10.6-10.3-10.6c-5.7,0-10.3,4.6-10.3,10.6
	C198.4,43.6,203,48.4,208.6,48.4z"/>
<path class="st1" d="M229.1,48.2h3.3V27.1h-7.1v4.1h-2.3v-6.3h21.3v6.3H242v-4.1H235v21.1h3.3v2.1h-9.1V48.2z"/>
</svg>
