<?xml version="1.0" encoding="utf-8"?>
<!-- Generator: Adobe Illustrator 19.0.1, SVG Export Plug-In . SVG Version: 6.00 Build 0)  -->
<svg version="1.1" id="Layer_1" xmlns="http://www.w3.org/2000/svg" xmlns:xlink="http://www.w3.org/1999/xlink" x="0px" y="0px"
	 viewBox="0 0 45 45" style="enable-background:new 0 0 45 45;" xml:space="preserve">
<style type="text/css">
	.st0{fill:#FFFFFF;}
</style>
<path class="st0" d="M39.8,34.9L27.4,22.5l12.4-12.4c1.3-1.4,1.3-3.6,0-4.9l0,0c-1.4-1.4-3.6-1.4-4.9,0L22.5,17.6L10.1,5.2
	c-1.4-1.4-3.6-1.4-4.9,0s-1.4,3.6,0,4.9l12.4,12.4L5.2,34.9c-0.7,0.7-1,1.5-1,2.5s0.4,1.8,1,2.5c1.3,1.3,3.6,1.3,4.9,0l12.4-12.4
	l12.4,12.4c0.7,0.7,1.5,1,2.5,1c0.9,0,1.8-0.4,2.5-1C41.2,38.5,41.2,36.3,39.8,34.9z"/>
</svg>
