<?xml version="1.0" encoding="utf-8"?>
<!-- Generator: Adobe Illustrator 19.0.1, SVG Export Plug-In . SVG Version: 6.00 Build 0)  -->
<svg version="1.1" id="Layer_1" xmlns="http://www.w3.org/2000/svg" xmlns:xlink="http://www.w3.org/1999/xlink" x="0px" y="0px"
	 viewBox="0 0 45 45" style="enable-background:new 0 0 45 45;" xml:space="preserve">
<style type="text/css">
	.st0{fill:#D5D9DD;}
</style>
<g id="Your_Icon">
	<g>
		<path class="st0" d="M37.6,8h-5.1h-2.1l-1.4-3.4l0,0c-0.3-0.8-1-1.4-1.5-1.8c-1-0.5-1.6-0.8-2.5-0.8h-5.5c-1,0-1.8,0.3-2.5,0.8
			c-0.5,0.4-1.1,1-1.5,1.8L14.6,8l0,0h-1.9H7.4c-1,0-1.8,0.8-1.8,1.8s0.8,1.8,1.8,1.8h1.8v28.2c0,0.8,0.4,1.6,1,2.3
			c0.7,0.5,1.5,1,2.5,1h19.8c0.8,0,1.6-0.4,2.3-1c0.5-0.5,1-1.4,1-2.3V11.7h1.8c1,0,1.8-0.8,1.8-1.8S38.5,8,37.6,8z M18.4,5.5
			c0-0.1,0.3-0.4,0.5-0.5c0.1-0.1,0.4-0.3,0.5-0.3H25c0.1,0,0.4,0.1,0.7,0.3s0.4,0.4,0.5,0.5l0,0L27.3,8h-9.9L18.4,5.5z M32.9,39.7
			c0,0.1,0,0.3-0.1,0.3c-0.1,0.1-0.1,0.1-0.3,0.1H12.6c-0.1,0-0.3,0-0.3-0.1c-0.1-0.1-0.1-0.1-0.1-0.3V11.7H33v28.1H32.9z"/>
		<path class="st0" d="M16.2,37c0.8,0,1.4-0.7,1.4-1.4V15.8c0-0.8-0.7-1.4-1.4-1.4s-1.4,0.7-1.4,1.4v19.8C14.8,36.5,15.5,37,16.2,37
			z"/>
		<path class="st0" d="M28.2,37c0.8,0,1.4-0.7,1.4-1.4V15.8c0-0.8-0.7-1.4-1.4-1.4c-0.8,0-1.4,0.7-1.4,1.4v19.8
			C26.9,36.5,27.6,37,28.2,37z"/>
		<path class="st0" d="M22.2,37c0.8,0,1.4-0.7,1.4-1.4V15.8c0-0.8-0.7-1.4-1.4-1.4c-0.8,0-1.4,0.7-1.4,1.4v19.8
			C20.9,36.5,21.5,37,22.2,37z"/>
	</g>
</g>
</svg>
