<?xml version="1.0" encoding="utf-8"?>
<!-- Generator: Adobe Illustrator 16.0.0, SVG Export Plug-In . SVG Version: 6.00 Build 0)  -->
<!DOCTYPE svg PUBLIC "-//W3C//DTD SVG 1.1//EN" "http://www.w3.org/Graphics/SVG/1.1/DTD/svg11.dtd">
<svg version="1.1" id="Layer_1" xmlns="http://www.w3.org/2000/svg" xmlns:xlink="http://www.w3.org/1999/xlink" x="0px" y="0px"
	 width="29px" height="29px" viewBox="0 0 29 29" enable-background="new 0 0 29 29" xml:space="preserve">
<g id="XMLID_116_">
	<g>
		<path fill="#2F4557" d="M22.33,28.061H0.84V6.57h10.67c0.33,0,0.59,0.27,0.59,0.59c0,0.32-0.27,0.59-0.59,0.59H2.03v19.109h19.111
			v-9.58c0-0.329,0.27-0.59,0.59-0.59c0.319,0,0.59,0.271,0.59,0.59v10.781H22.33z"/>
	</g>
	<g>
		<path fill="#2F4557" d="M8.47,21.23c-0.15,0-0.31-0.061-0.42-0.17c-0.17-0.17-0.22-0.42-0.13-0.641l2.34-5.79
			c0.03-0.07,0.07-0.14,0.13-0.2l13.299-13.3c0.23-0.23,0.61-0.23,0.84,0l3.451,3.45C28.09,4.69,28.15,4.84,28.15,5
			s-0.061,0.31-0.17,0.42l-13.3,13.301c-0.06,0.059-0.12,0.1-0.2,0.129l-5.79,2.34C8.62,21.21,8.55,21.23,8.47,21.23z M11.32,15.18
			l-1.77,4.381l4.38-1.771l12.8-12.8l-2.601-2.6L11.32,15.18z"/>
	</g>
	<g>
		<path fill="#2F4557" d="M25.4,7.74c-0.15,0-0.301-0.06-0.42-0.17l-3.451-3.45c-0.229-0.23-0.229-0.61,0-0.84
			c0.23-0.23,0.611-0.23,0.841,0l3.45,3.45c0.229,0.23,0.229,0.61,0,0.84C25.71,7.68,25.55,7.74,25.4,7.74z"/>
	</g>
	<g>
		<path fill="#2F4557" d="M14.26,18.88c-0.29,0-0.55-0.21-0.59-0.51c-0.38-2.74-2.79-2.931-2.89-2.931
			c-0.33-0.02-0.58-0.299-0.56-0.629c0.02-0.33,0.29-0.58,0.63-0.56c1.2,0.07,3.58,0.98,4,3.96c0.05,0.33-0.18,0.63-0.51,0.67
			C14.32,18.88,14.29,18.88,14.26,18.88z"/>
	</g>
</g>
</svg>
