<?xml version="1.0" encoding="utf-8"?>
<!-- Generator: Adobe Illustrator 19.0.1, SVG Export Plug-In . SVG Version: 6.00 Build 0)  -->
<svg version="1.1" id="Layer_1" xmlns="http://www.w3.org/2000/svg" xmlns:xlink="http://www.w3.org/1999/xlink" x="0px" y="0px"
	 viewBox="0 0 29 29" style="enable-background:new 0 0 29 29;" xml:space="preserve">
<g id="XMLID_116_">
	<g>
		<path style="fill:#5E5E5E;" d="M22.33,28.06H0.84V6.57h10.67c0.33,0,0.59,0.27,0.59,0.59s-0.27,0.59-0.59,0.59H2.03v19.11h19.11
			v-9.58c0-0.33,0.27-0.59,0.59-0.59s0.59,0.27,0.59,0.59V28.06z"/>
	</g>
	<g>
		<path style="fill:#5E5E5E;" d="M8.47,21.23c-0.15,0-0.31-0.06-0.42-0.17c-0.17-0.17-0.22-0.42-0.13-0.64l2.34-5.79
			c0.03-0.07,0.07-0.14,0.13-0.2l13.3-13.3c0.23-0.23,0.61-0.23,0.84,0l3.45,3.45c0.11,0.11,0.17,0.26,0.17,0.42
			c0,0.16-0.06,0.31-0.17,0.42l-13.3,13.3c-0.06,0.06-0.12,0.1-0.2,0.13l-5.79,2.34C8.62,21.21,8.55,21.23,8.47,21.23z M11.32,15.18
			l-1.77,4.38l4.38-1.77l12.8-12.8l-2.6-2.6L11.32,15.18z"/>
	</g>
	<g>
		<path style="fill:#5E5E5E;" d="M25.4,7.74c-0.15,0-0.3-0.06-0.42-0.17l-3.45-3.45c-0.23-0.23-0.23-0.61,0-0.84
			c0.23-0.23,0.61-0.23,0.84,0l3.45,3.45c0.23,0.23,0.23,0.61,0,0.84C25.71,7.68,25.55,7.74,25.4,7.74z"/>
	</g>
	<g>
		<path style="fill:#5E5E5E;" d="M14.26,18.88c-0.29,0-0.55-0.21-0.59-0.51c-0.38-2.74-2.79-2.93-2.89-2.93
			c-0.33-0.02-0.58-0.3-0.56-0.63c0.02-0.33,0.29-0.58,0.63-0.56c1.2,0.07,3.58,0.98,4,3.96c0.05,0.33-0.18,0.63-0.51,0.67
			C14.32,18.88,14.29,18.88,14.26,18.88z"/>
	</g>
</g>
</svg>
