<?xml version="1.0" encoding="utf-8"?>
<!-- Generator: Adobe Illustrator 19.0.1, SVG Export Plug-In . SVG Version: 6.00 Build 0)  -->
<svg version="1.1" id="Layer_1" xmlns="http://www.w3.org/2000/svg" xmlns:xlink="http://www.w3.org/1999/xlink" x="0px" y="0px"
	 viewBox="0 0 250 250" style="enable-background:new 0 0 250 250;" xml:space="preserve">
<style type="text/css">
	.st0{fill:#595959;}
</style>
<g>
	<path class="st0" d="M213.9,25H36.1C30,25,25,29.6,25,35.1v148.1c0,2.8,1.3,5.4,3.6,7.3c2.1,1.7,4.7,2.5,7.5,2.5H109v-9H40.2
		L90,121.1c1-1.3,2.5-2.1,4.1-2.3c1.6-0.2,3.2,0.3,4.5,1.4l9.7,8.5l6.3-7.2l-9.7-8.5c-3.2-2.8-7.3-4.1-11.6-3.8
		c-4.3,0.4-7.8,2.5-10.5,5.8L35,175.7V35.2c0-0.2,0.2-1.2,1.1-1.2h177.8c0.9,0,1.1,1,1.1,1.2v142.2l-48.1-48.6
		c-5.6-5.7-14.7-6.1-20.9-0.9l-8.4,7.1l6.2,7.3l8.4-7.1c2.4-2,5.9-1.7,8.1,0.5l48.1,48.5H141v9h72.9c6.1,0,11.1-4.2,11.1-9.8V35.1
		C225,29.6,220,25,213.9,25z"/>
	<path class="st0" d="M56.7,77.4c0,11.4,9.3,20.6,20.6,20.6c11.4,0,20.6-9.3,20.6-20.6c0-11.4-9.3-20.6-20.6-20.6
		C66,56.8,56.7,66.1,56.7,77.4z M88.5,77.4c0,6.1-5,11.1-11.1,11.1c-6.1,0-11.1-5-11.1-11.1c0-6.1,5-11.1,11.1-11.1
		C83.5,66.3,88.5,71.3,88.5,77.4z"/>
	<path class="st0" d="M153.5,201L130,224.7V109.2c0-2.6-2.4-4.8-5-4.8c-2.6,0-5,2.1-5,4.8v115.5L96.5,201c-1.9-1.9-4.8-1.9-6.7,0
		c-1.9,1.9-1.8,4.9,0,6.7l31.8,31.7c0.2,0.2,0.5,0.4,0.7,0.6c0.2,0.1,0.4,0.2,0.7,0.3c0.1,0,0.1,0.1,0.2,0.1
		c0.2,0.1,0.5,0.2,0.7,0.2c0,0,0.1,0,0.1,0c0.3,0.1,0.6,0.1,0.9,0.1c0,0,0,0,0,0s0,0,0,0c0,0,0,0,0.1,0c0.3,0,0.6,0,0.9-0.1
		c0,0,0.1,0,0.1,0c0.3-0.1,0.5-0.1,0.8-0.2c0,0,0,0,0,0c0.3-0.1,0.5-0.2,0.7-0.4c0.1,0,0.1-0.1,0.2-0.1c0.2-0.1,0.3-0.3,0.5-0.4
		c0,0,0.1-0.1,0.1-0.1l31.7-31.7c1.9-1.9,1.9-4.9,0.1-6.7C158.3,199.2,155.4,199.2,153.5,201z"/>
</g>
</svg>
