<?xml version="1.0" encoding="utf-8"?>
<!-- Generator: Adobe Illustrator 19.0.1, SVG Export Plug-In . SVG Version: 6.00 Build 0)  -->
<svg version="1.1" id="Layer_1" xmlns="http://www.w3.org/2000/svg" xmlns:xlink="http://www.w3.org/1999/xlink" x="0px" y="0px"
	 viewBox="0 0 82 82" style="enable-background:new 0 0 82 82;" xml:space="preserve">
<path id="XMLID_32_" style="fill:#C5C2C2;" d="M76.58,1H5.42C2.98,1,1,2.98,1,5.42v71.17C1,79.02,2.98,81,5.42,81h38.32V50.02H33.31
	V37.95h10.43v-8.9c0-10.33,6.31-15.96,15.53-15.96c4.42,0,8.21,0.33,9.32,0.48v10.8l-6.39,0c-5.01,0-5.98,2.38-5.98,5.88v7.71h11.96
	L66.6,50.02H56.2V81h20.39c2.44,0,4.42-1.98,4.42-4.42V5.42C81,2.98,79.02,1,76.58,1z"/>
</svg>
