<?xml version="1.0" encoding="utf-8"?>
<!-- Generator: Adobe Illustrator 19.0.1, SVG Export Plug-In . SVG Version: 6.00 Build 0)  -->
<svg version="1.1" id="Layer_1" xmlns="http://www.w3.org/2000/svg" xmlns:xlink="http://www.w3.org/1999/xlink" x="0px" y="0px"
	 viewBox="0 0 100 150" style="enable-background:new 0 0 100 150;" xml:space="preserve">
<path style="fill:#F27821;" d="M67.46,10.82c-1.3,3.88-0.59,8.32,2.27,11.64c2.86,3.33,7.14,4.69,11.17,4L67.46,10.82z"/>
<path style="fill:#F27821;" d="M15.61,24.51c3.88,1.3,8.32,0.59,11.64-2.27s4.69-7.14,4-11.17L15.61,24.51z"/>
<path style="fill:#2C4355;" d="M48.98,16.92c-13.83,0-25.04,8.24-25.04,18.67c0,0.76,4.17,51.41,4.17,51.41h43.4
	c0,0,2.5-50.99,2.5-51.41C74.01,25.16,62.8,16.92,48.98,16.92z M49.71,52.88c-2.38,0-4.32-1.93-4.32-4.32
	c0-2.38,1.93-4.32,4.32-4.32s4.32,1.93,4.32,4.32C54.02,50.95,52.09,52.88,49.71,52.88z M69.12,85H51.74c0.29,0,0.26-0.96,0.26-1.5
	V58.41c0-0.19,0.08-0.37,0.04-0.55c4.47-1.09,7.84-5.11,7.84-9.92c0-5.65-4.55-10.22-10.2-10.22S39.47,42.3,39.47,47.94
	c0,4.8,3.22,8.82,7.69,9.92C47.12,58.04,47,58.22,47,58.41V83.5c0,0.54,0.38,1.5,0.67,1.5H30.42c-1.24-15-3.88-47.49-3.98-49.21
	c0.04-9.01,10.13-16.35,22.53-16.35c12.41,0,22.51,7.36,22.53,16.37C71.46,37.13,69.99,67,69.12,85z"/>
<g>
	<path style="fill:#2C4355;" d="M51.98,115.9h-3.54c-2.03,0-3.68-0.16-3.68-0.36v-1.11c0-0.2,1.65-0.36,3.68-0.36h3.54
		c2.03,0,3.68,0.16,3.68,0.36v1.11C55.65,115.73,54.01,115.9,51.98,115.9z"/>
	<path style="fill:#2C4355;" d="M51.98,118.49h-3.54c-2.03,0-3.68-0.16-3.68-0.36v-1.11c0-0.2,1.65-0.36,3.68-0.36h3.54
		c2.03,0,3.68,0.16,3.68,0.36v1.11C55.65,118.32,54.01,118.49,51.98,118.49z"/>
	<path style="fill:#2C4355;" d="M51.98,121.18h-3.54c-2.03,0-3.68-0.16-3.68-0.36v-1.11c0-0.2,1.65-0.36,3.68-0.36h3.54
		c2.03,0,3.68,0.16,3.68,0.36v1.11C55.65,121.01,54.01,121.18,51.98,121.18z"/>
</g>
<path style="fill:#2C4355;" d="M71.83,124.97c2.34,0,4.24,1.9,4.24,4.24v5.33c0,2.34-1.9,4.24-4.24,4.24H29.77
	c-2.34,0-4.24-1.9-4.24-4.24v-5.33c0-2.34,1.9-4.24,4.24-4.24H71.83 M71.83,123.25H29.77c-3.3,0-5.97,2.67-5.97,5.97v5.33
	c0,3.3,2.67,5.97,5.97,5.97h42.07c3.3,0,5.97-2.67,5.97-5.97v-5.33C77.81,125.92,75.13,123.25,71.83,123.25L71.83,123.25z"/>
<circle style="fill:#F27821;" cx="68.69" cy="131.88" r="4.88"/>
<circle style="fill:#F27821;" cx="50.26" cy="131.88" r="4.88"/>
<circle style="fill:#F27821;" cx="32.56" cy="131.88" r="4.88"/>
<circle style="fill:#FBC02C;" cx="76.89" cy="73.4" r="3.17"/>
<g>
	<path style="fill:#5CC1A4;" d="M91.87,92.9c-0.24,1-0.58,1.94-1,2.83l0,0l3.66,2.23c0.64-1.27,1.15-2.63,1.5-4.07
		c2.36-9.9-3.75-19.85-13.66-22.21l-0.99,4.15C88.98,77.65,93.68,85.29,91.87,92.9z"/>
</g>
<circle style="fill:#FBC02C;" cx="90.2" cy="101.23" r="4.12"/>
<g>
	<g>
		<path style="fill:#5CC1A4;" d="M7.71,53.37c0.24-1,0.58-1.94,1.01-2.83l0,0L5.07,48.3c-0.64,1.27-1.16,2.62-1.5,4.06
			c-2.39,9.9,3.71,19.86,13.6,22.24l1-4.15C10.56,68.63,5.88,60.97,7.71,53.37z"/>
	</g>
	<circle style="fill:#FBC02C;" cx="22.5" cy="73.59" r="3.17"/>
	<circle style="fill:#FBC02C;" cx="10.14" cy="45.49" r="4.12"/>
</g>
<path style="fill:#5CC1A4;" d="M71.05,89.53H28.36c-2.67,0-4.84,2.17-4.84,4.84v13.27c0,2.67,2.17,4.84,4.84,4.84h42.69
	c2.67,0,4.84-2.17,4.84-4.84V94.36C75.89,91.69,73.72,89.53,71.05,89.53z M43.36,104.22c0,1.97-1.41,3.57-3.16,3.57h-7.45
	c-1.74,0-3.16-1.6-3.16-3.57V98.2c0-1.97,1.41-3.57,3.16-3.57h7.45c1.74,0,3.16,1.6,3.16,3.57V104.22z"/>
<g>
	<g>
		<rect x="48.24" y="98.96" style="fill:#FFFFFF;" width="24.45" height="7.49"/>
	</g>
	<g>
		<path style="fill:#F27821;" d="M72.69,95.44c0-1.26-1.02-2.29-2.29-2.29H50.53c-1.26,0-2.29,1.02-2.29,2.29v3.52h24.45V95.44z"/>
	</g>
	<g>
		<path style="fill:#F27821;" d="M48.24,106.58c0,1.26,1.02,2.29,2.29,2.29H70.4c1.26,0,2.29-1.02,2.29-2.29v-0.13H48.24V106.58z"/>
	</g>
	<g>
		<path style="fill:#FFFFFF;" d="M56.79,98.19v-1.88h-2.4v1.88h-0.51v-4.1h0.51v1.76h2.4v-1.76h0.51v4.1H56.79z"/>
		<path style="fill:#FFFFFF;" d="M58.07,96.7c0-0.86,0.61-1.56,1.46-1.56c0.9,0,1.43,0.7,1.43,1.59v0.12h-2.4
			c0.04,0.56,0.43,1.03,1.07,1.03c0.34,0,0.68-0.14,0.92-0.38l0.22,0.3c-0.3,0.29-0.69,0.46-1.18,0.46
			C58.71,98.26,58.07,97.63,58.07,96.7z M59.53,95.53c-0.63,0-0.95,0.54-0.97,0.99h1.95C60.5,96.07,60.21,95.53,59.53,95.53z"/>
		<path style="fill:#FFFFFF;" d="M61.71,98.19v-4.1h0.46v4.1H61.71z"/>
		<path style="fill:#FFFFFF;" d="M63.09,98.19v-4.1h0.46v4.1H63.09z"/>
		<path style="fill:#FFFFFF;" d="M64.3,96.7c0-0.86,0.57-1.56,1.47-1.56s1.47,0.69,1.47,1.56s-0.57,1.56-1.47,1.56
			S64.3,97.56,64.3,96.7z M66.75,96.7c0-0.6-0.35-1.14-0.98-1.14s-0.99,0.54-0.99,1.14c0,0.61,0.36,1.15,0.99,1.15
			S66.75,97.31,66.75,96.7z"/>
	</g>
	<g>
		<path style="fill:#2C4355;" d="M49.94,104.84v-4.1h1.83c0.71,0,1.15,0.43,1.15,1.05c0,0.52-0.34,0.86-0.72,0.94
			c0.44,0.07,0.8,0.52,0.8,1.01c0,0.66-0.44,1.11-1.19,1.11H49.94z M52.39,101.85c0-0.37-0.25-0.66-0.71-0.66h-1.23v1.32h1.23
			C52.14,102.51,52.39,102.23,52.39,101.85z M52.47,103.67c0-0.38-0.26-0.71-0.76-0.71h-1.25v1.41h1.25
			C52.18,104.38,52.47,104.11,52.47,103.67z"/>
		<path style="fill:#2C4355;" d="M53.79,104.84v-2.97h0.46v0.48c0.24-0.31,0.58-0.54,0.99-0.54v0.47c-0.06-0.01-0.11-0.02-0.18-0.02
			c-0.28,0-0.67,0.23-0.81,0.47v2.1H53.79z"/>
		<path style="fill:#2C4355;" d="M57.82,104.84v-1.94c0-0.52-0.26-0.69-0.66-0.69c-0.36,0-0.71,0.22-0.88,0.46v2.17h-0.46v-2.97
			h0.46v0.43c0.21-0.25,0.62-0.5,1.06-0.5c0.62,0,0.95,0.31,0.95,0.96v2.08H57.82z"/>
		<path style="fill:#2C4355;" d="M61.36,104.84v-0.44c-0.22,0.3-0.58,0.52-1,0.52c-0.78,0-1.32-0.59-1.32-1.55
			c0-0.95,0.54-1.56,1.32-1.56c0.4,0,0.76,0.2,1,0.52v-1.58h0.46v4.1H61.36z M61.36,104.03v-1.35c-0.17-0.26-0.52-0.48-0.89-0.48
			c-0.6,0-0.95,0.49-0.95,1.15c0,0.66,0.36,1.14,0.95,1.14C60.83,104.5,61.19,104.29,61.36,104.03z"/>
		<path style="fill:#2C4355;" d="M62.76,104.84v-4.1h1.83c0.71,0,1.15,0.43,1.15,1.05c0,0.52-0.34,0.86-0.72,0.94
			c0.44,0.07,0.8,0.52,0.8,1.01c0,0.66-0.44,1.11-1.19,1.11H62.76z M65.21,101.85c0-0.37-0.25-0.66-0.71-0.66h-1.23v1.32h1.23
			C64.96,102.51,65.21,102.23,65.21,101.85z M65.29,103.67c0-0.38-0.26-0.71-0.76-0.71h-1.25v1.41h1.25
			C65,104.38,65.29,104.11,65.29,103.67z"/>
		<path style="fill:#2C4355;" d="M66.44,103.35c0-0.86,0.57-1.56,1.47-1.56s1.47,0.7,1.47,1.56s-0.57,1.56-1.47,1.56
			S66.44,104.21,66.44,103.35z M68.89,103.35c0-0.6-0.35-1.14-0.98-1.14s-0.99,0.54-0.99,1.14c0,0.61,0.36,1.15,0.99,1.15
			S68.89,103.96,68.89,103.35z"/>
		<path style="fill:#2C4355;" d="M70.22,104.22v-1.94h-0.49v-0.41h0.49v-0.81h0.46v0.81h0.6v0.41h-0.6v1.84
			c0,0.22,0.1,0.38,0.3,0.38c0.13,0,0.25-0.05,0.31-0.12l0.13,0.35c-0.12,0.11-0.28,0.19-0.55,0.19
			C70.44,104.91,70.22,104.66,70.22,104.22z"/>
	</g>
</g>
</svg>
