<?xml version="1.0" encoding="utf-8"?>
<!-- Generator: Adobe Illustrator 16.0.0, SVG Export Plug-In . SVG Version: 6.00 Build 0)  -->
<!DOCTYPE svg PUBLIC "-//W3C//DTD SVG 1.1//EN" "http://www.w3.org/Graphics/SVG/1.1/DTD/svg11.dtd">
<svg version="1.1" id="Layer_1" xmlns="http://www.w3.org/2000/svg" xmlns:xlink="http://www.w3.org/1999/xlink" x="0px" y="0px"
	 width="252px" height="144px" viewBox="0 0 252 144" enable-background="new 0 0 252 144" xml:space="preserve">
<path fill="#FFFFFF" d="M142.32,12.24c-1.2,3.6-0.48,7.68,2.16,10.8c2.64,3.12,6.479,4.32,10.319,3.6L142.32,12.24z"/>
<path fill="#FFFFFF" d="M94.56,24.72c3.6,1.2,7.68,0.48,10.8-2.16c3.12-2.64,4.32-6.48,3.6-10.32L94.56,24.72z"/>
<path fill="#FFFFFF" d="M125.28,17.76c-12.72,0-23.04,7.92-23.04,17.52c0,0.72,3.84,47.52,3.84,47.52h40.08c0,0,2.4-47.28,2.4-47.52
	C148.32,25.68,138,17.76,125.28,17.76z M126,50.88c-2.16,0-4.08-1.68-4.08-4.08c0-2.4,1.68-4.08,4.08-4.08
	c2.16,0,4.08,1.68,4.08,4.08C130.08,49.2,128.16,50.88,126,50.88z M143.76,80.641h-15.6V56.16c0-0.24,0-0.24,0-0.48
	c4.08-0.96,7.199-4.8,7.199-9.12c0-5.28-4.319-9.36-9.359-9.36c-5.28,0-9.36,4.32-9.36,9.36c0,4.56,3.12,8.16,7.2,9.12
	c0,0.24,0,0.24,0,0.48v24.48h-15.6c-1.2-13.92-3.6-43.681-3.6-45.361c0-8.4,9.36-15.12,20.88-15.12s20.88,6.72,20.88,15.12
	C145.92,36.48,144.721,64.08,143.76,80.641z"/>
<g>
	<g>
		<path fill="#FFFFFF" d="M127.92,109.2h-3.36c-1.92,0-3.36-0.24-3.36-0.24V108c0-0.24,1.44-0.24,3.36-0.24h3.36
			c1.92,0,3.359,0.24,3.359,0.24v0.96C131.52,108.96,129.84,109.2,127.92,109.2z"/>
		<path fill="#FFFFFF" d="M127.92,111.6h-3.36c-1.92,0-3.36-0.24-3.36-0.24V110.4c0-0.24,1.44-0.24,3.36-0.24h3.36
			c1.92,0,3.359,0.24,3.359,0.24v0.959C131.52,111.359,129.84,111.6,127.92,111.6z"/>
		<path fill="#FFFFFF" d="M127.92,114h-3.36c-1.92,0-3.36-0.24-3.36-0.24v-0.96c0-0.239,1.44-0.239,3.36-0.239h3.36
			c1.92,0,3.359,0.239,3.359,0.239v0.96C131.52,113.76,129.84,114,127.92,114z"/>
	</g>
</g>
<g>
	<path fill="#FFFFFF" d="M87.12,89.52c0.24,0.961,0.48,1.681,0.96,2.641l0,0l-3.36,2.16c-0.48-1.2-0.96-2.4-1.44-3.84
		c-2.16-9.121,3.36-18.24,12.48-20.641l0.96,3.84C89.76,75.359,85.44,82.561,87.12,89.52z"/>
</g>
<circle fill="#FFFFFF" cx="100.8" cy="70.8" r="2.88"/>
<path fill="#FFFFFF" d="M145.68,84.721h-39.36c-2.4,0-4.56,1.92-4.56,4.559v12.24c0,2.4,1.92,4.561,4.56,4.561h39.36
	c2.4,0,4.561-1.92,4.561-4.561v-12.24C150,86.88,148.08,84.721,145.68,84.721z M124.8,98.4c0,1.92-1.2,3.359-2.88,3.359h-6.96
	c-1.68,0-2.88-1.439-2.88-3.359V92.88c0-1.92,1.2-3.36,2.88-3.36h6.96c1.68,0,2.88,1.44,2.88,3.36V98.4z M139.68,100.08
	c0,0.72-1.199,1.439-2.88,1.439h-6.96c-1.68,0-2.88-0.72-2.88-1.439v-2.4c0-0.72,1.2-1.439,2.88-1.439h6.96
	c1.681,0,2.88,0.72,2.88,1.439V100.08z M139.68,93.359c0,0.721-1.199,1.44-2.88,1.44h-6.96c-1.68,0-2.88-0.72-2.88-1.44V90.96
	c0-0.72,1.2-1.44,2.88-1.44h6.96c1.681,0,2.88,0.721,2.88,1.44V93.359z"/>
<path fill="#FFFFFF" d="M146.4,117.6c2.16,0,3.84,1.68,3.84,3.84v4.801c0,2.16-1.68,3.84-3.84,3.84h-38.88
	c-2.16,0-3.84-1.68-3.84-3.84v-4.801c0-2.16,1.68-3.84,3.84-3.84H146.4 M146.4,115.92h-38.88c-3.12,0-5.52,2.4-5.52,5.52v4.801
	c0,3.119,2.4,5.52,5.52,5.52h38.88c3.119,0,5.52-2.4,5.52-5.52v-4.801C151.92,118.32,149.279,115.92,146.4,115.92L146.4,115.92z"/>
<circle fill="#FFFFFF" cx="143.52" cy="123.84" r="4.561"/>
<circle fill="#FFFFFF" cx="126.48" cy="123.84" r="4.561"/>
<circle fill="#FFFFFF" cx="110.16" cy="123.84" r="4.561"/>
<circle fill="#FFFFFF" cx="150.96" cy="71.04" r="2.88"/>
<g>
	<path fill="#FFFFFF" d="M164.88,89.04c-0.239,0.96-0.479,1.681-0.96,2.64l0,0l3.359,2.16c0.48-1.199,0.961-2.4,1.441-3.84
		c2.159-9.12-3.361-18.24-12.48-20.4l-0.961,3.839C162.24,75.12,166.561,82.08,164.88,89.04z"/>
</g>
<circle fill="#FFFFFF" cx="163.2" cy="96.72" r="3.84"/>
<circle fill="#FFFFFF" cx="89.52" cy="96.72" r="3.84"/>
</svg>
