<?xml version="1.0" encoding="utf-8"?>
<!-- Generator: Adobe Illustrator 19.0.1, SVG Export Plug-In . SVG Version: 6.00 Build 0)  -->
<svg version="1.1" id="Layer_1" xmlns="http://www.w3.org/2000/svg" xmlns:xlink="http://www.w3.org/1999/xlink" x="0px" y="0px"
	 viewBox="0 0 304 82" style="enable-background:new 0 0 304 82;" xml:space="preserve">
<g>
	<path style="fill:#FFFFFF;" d="M296.18,82H6.93c-3.21,0-5.82-2.61-5.82-5.82V5.98c0-3.21,2.61-5.82,5.82-5.82h289.26
		c3.21,0,5.82,2.61,5.82,5.82v70.2C302,79.39,299.39,82,296.18,82z"/>
</g>
<g>
	<path style="fill:#2F2F2F;" d="M101.4,58.21c-5.73,0-8.73-3.31-9.02-9.92l5.16-1.08c0.13,4.3,1.36,6.45,3.69,6.45
		c0.9,0,1.57-0.28,2.01-0.82c0.44-0.55,0.66-1.29,0.66-2.22c0-0.9-0.16-1.73-0.49-2.48c-0.33-0.75-0.71-1.37-1.14-1.84
		c-0.43-0.48-1.05-1.07-1.84-1.77l-4.27-3.71c-1.26-1.1-2.19-2.24-2.8-3.42c-0.61-1.18-0.92-2.66-0.92-4.44
		c0-2.52,0.74-4.48,2.23-5.88c1.48-1.4,3.52-2.11,6.11-2.14c1.19-0.01,2.24,0.13,3.16,0.44c0.92,0.31,1.67,0.72,2.27,1.24
		c0.59,0.52,1.09,1.16,1.49,1.93c0.4,0.77,0.7,1.57,0.89,2.4c0.2,0.83,0.33,1.76,0.41,2.78l-5.06,1c-0.03-0.65-0.07-1.22-0.13-1.71
		c-0.06-0.48-0.16-0.97-0.3-1.47c-0.14-0.5-0.33-0.9-0.56-1.21c-0.23-0.31-0.54-0.55-0.92-0.74c-0.39-0.18-0.83-0.25-1.34-0.22
		c-0.88,0.05-1.55,0.34-2.01,0.87c-0.46,0.53-0.7,1.24-0.7,2.13c0,1.05,0.21,1.91,0.62,2.58c0.41,0.67,1.06,1.4,1.93,2.17l4.24,3.69
		c0.71,0.64,1.32,1.26,1.84,1.86c0.52,0.6,1.02,1.29,1.5,2.06c0.48,0.77,0.84,1.62,1.09,2.55c0.25,0.93,0.37,1.91,0.37,2.94
		c0,2.37-0.75,4.29-2.25,5.77C105.8,57.47,103.83,58.21,101.4,58.21z"/>
	<path style="fill:#2F2F2F;" d="M113.19,57.82V25.3h5.84v32.51H113.19z"/>
	<path style="fill:#2F2F2F;" d="M132.17,58.25c-3.07,0-5.28-0.96-6.64-2.88c-1.35-1.92-2.03-4.72-2.03-8.39V36.38
		c0-1.87,0.15-3.48,0.44-4.83c0.29-1.35,0.79-2.54,1.48-3.56c0.69-1.02,1.65-1.78,2.86-2.29c1.22-0.51,2.71-0.76,4.47-0.76
		c3.22,0,5.52,0.79,6.92,2.36c1.4,1.58,2.1,3.96,2.1,7.17v1.59h-5.67v-1.69c0-0.72-0.02-1.31-0.05-1.77
		c-0.03-0.46-0.11-0.92-0.24-1.38c-0.12-0.46-0.3-0.82-0.54-1.07c-0.24-0.25-0.56-0.45-0.96-0.61s-0.9-0.23-1.49-0.23
		c-0.44,0-0.84,0.06-1.19,0.17c-0.35,0.11-0.64,0.25-0.87,0.41c-0.24,0.16-0.43,0.4-0.6,0.7c-0.16,0.3-0.29,0.59-0.37,0.87
		c-0.09,0.28-0.15,0.64-0.2,1.09c-0.05,0.44-0.08,0.84-0.09,1.18c-0.01,0.34-0.02,0.78-0.02,1.31v13.12c0,1.96,0.24,3.4,0.73,4.3
		c0.48,0.91,1.4,1.36,2.76,1.36c0.71,0,1.3-0.13,1.77-0.4c0.48-0.27,0.85-0.67,1.12-1.22c0.27-0.54,0.46-1.16,0.57-1.86
		c0.11-0.7,0.17-1.55,0.17-2.54v-2.67h-3.51v-3.82h8.84v16.51h-3.84l-0.43-3.29C136.7,57.01,134.86,58.25,132.17,58.25z"/>
	<path style="fill:#2F2F2F;" d="M146.42,57.82V25.3h4.08l7.96,18.41V25.3h4.9v32.51h-3.88l-8.04-19.35v19.35H146.42z"/>
	<path style="fill:#2F2F2F;" d="M186.94,58.21c-1.45,0-2.71-0.17-3.77-0.51s-1.94-0.82-2.63-1.43c-0.69-0.61-1.24-1.4-1.65-2.36
		c-0.41-0.96-0.7-2-0.86-3.12s-0.25-2.42-0.25-3.89V25.3h5.75v22.2c0,0.76,0.02,1.4,0.06,1.94c0.04,0.54,0.12,1.1,0.25,1.69
		c0.13,0.59,0.32,1.06,0.56,1.41c0.24,0.35,0.58,0.65,1,0.88c0.43,0.24,0.94,0.35,1.54,0.35s1.11-0.12,1.54-0.35
		c0.42-0.23,0.75-0.53,0.98-0.88c0.23-0.35,0.41-0.82,0.55-1.41c0.14-0.59,0.22-1.15,0.25-1.68c0.03-0.53,0.05-1.18,0.05-1.95V25.3
		h5.75v21.59c0,1.48-0.08,2.77-0.24,3.89c-0.16,1.12-0.45,2.16-0.86,3.12c-0.41,0.96-0.96,1.75-1.64,2.36
		c-0.68,0.61-1.55,1.09-2.62,1.43C189.63,58.04,188.37,58.21,186.94,58.21z"/>
	<path style="fill:#2F2F2F;" d="M200.66,57.82V25.3h9.35c5.54,0,8.31,3.08,8.31,9.24c0,3.02-0.76,5.23-2.27,6.64
		c-1.52,1.41-3.65,2.11-6.41,2.11h-3.06v14.53H200.66z M206.59,39.13h1.9c1.67,0,2.8-0.33,3.39-0.99s0.88-1.87,0.88-3.64
		c0-1.01-0.04-1.78-0.12-2.33c-0.08-0.55-0.26-1.05-0.55-1.5c-0.29-0.45-0.72-0.76-1.28-0.93c-0.57-0.17-1.34-0.25-2.3-0.25h-1.92
		V39.13z"/>
</g>
</svg>
