<?xml version="1.0" encoding="utf-8"?>

<svg version="1.1" id="Layer_1" xmlns="http://www.w3.org/2000/svg" xmlns:xlink="http://www.w3.org/1999/xlink" x="0px" y="0px"
	 viewBox="0 0 30 30" style="enable-background:new 0 0 30 30;" xml:space="preserve">
<g>
	<path style="fill:white;" d="M14.86,1.08C7.18,1.08,0.94,7.33,0.94,15c0,7.67,6.24,13.92,13.92,13.92
		c7.67,0,13.92-6.24,13.92-13.92C28.77,7.33,22.53,1.08,14.86,1.08z M14.86,27.59C7.91,27.59,2.27,21.94,2.27,15
		c0-6.94,5.65-12.59,12.59-12.59c6.94,0,12.59,5.65,12.59,12.59C27.45,21.94,21.8,27.59,14.86,27.59z"/>
	<path style="fill:white;" d="M21.86,7.9c-0.26-0.26-0.68-0.26-0.94,0l-6.16,6.16L8.61,7.9c-0.26-0.26-0.68-0.26-0.94,0
		c-0.26,0.26-0.26,0.68,0,0.94L13.83,15l-6.16,6.16c-0.26,0.26-0.26,0.68,0,0.94c0.13,0.13,0.3,0.19,0.47,0.19s0.34-0.06,0.47-0.19
		l6.16-6.16l6.16,6.16c0.13,0.13,0.3,0.19,0.47,0.19s0.34-0.06,0.47-0.19c0.26-0.26,0.26-0.68,0-0.94L15.71,15l6.16-6.16
		C22.12,8.58,22.12,8.16,21.86,7.9z"/>
</g>
</svg>
