<?xml version="1.0" encoding="utf-8"?>
<!-- Generator: Adobe Illustrator 19.0.1, SVG Export Plug-In . SVG Version: 6.00 Build 0)  -->
<svg version="1.1" id="Layer_1" xmlns="http://www.w3.org/2000/svg" xmlns:xlink="http://www.w3.org/1999/xlink" x="0px" y="0px"
	 viewBox="0 0 30 30" style="enable-background:new 0 0 30 30;" xml:space="preserve">
<g>
	<path style="fill:#434A4F;" d="M22,13.09l-3.18,3.18c-0.35,0.35-0.92,0.35-1.27,0l-0.64-0.64l3.18-3.18l-2.55-2.55l-3.18,3.18
		l-0.64-0.64c-0.35-0.35-0.35-0.92,0-1.27L16.91,8c0.35-0.35,0.92-0.35,1.27,0L22,11.82C22.36,12.17,22.36,12.74,22,13.09z
		 M15.64,16.91l-3.18,3.18l-2.55-2.55l3.19-3.18l-0.64-0.64c-0.35-0.35-0.92-0.35-1.27,0L8,16.91c-0.35,0.35-0.35,0.92,0,1.27
		L11.82,22c0.35,0.35,0.92,0.35,1.27,0l3.18-3.18c0.35-0.35,0.35-0.92,0-1.27L15.64,16.91z M12.45,17.55c0.35,0.35,0.92,0.35,1.27,0
		l3.82-3.82c0.35-0.35,0.35-0.92,0-1.27c-0.35-0.35-0.92-0.35-1.27,0l-3.82,3.82C12.1,16.62,12.1,17.19,12.45,17.55z"/>
</g>
<g>
	<path style="fill:#434A4F;" d="M15,28C7.83,28,2,22.17,2,15C2,7.83,7.83,2,15,2c7.17,0,13,5.83,13,13C28,22.17,22.17,28,15,28z
		 M15,4C8.93,4,4,8.93,4,15s4.93,11,11,11s11-4.93,11-11S21.07,4,15,4z"/>
</g>
</svg>
