<?xml version="1.0" encoding="utf-8"?>
<!-- Generator: Adobe Illustrator 19.0.1, SVG Export Plug-In . SVG Version: 6.00 Build 0)  -->
<svg version="1.1" id="Layer_1" xmlns="http://www.w3.org/2000/svg" xmlns:xlink="http://www.w3.org/1999/xlink" x="0px" y="0px"
	 viewBox="240 0 30 30" style="enable-background:new 240 0 30 30;" xml:space="preserve">
<style type="text/css">
	.st0{fill:#70D667;}
	.st1{fill:#44BCBC;}
	.st2{fill:#AFAFAF;}
	.st3{fill:#29648C;}
</style>
<g>
	<path class="st3" d="M261.5,27h-13c-3,0-5.5-2.5-5.5-5.5v-13c0-3,2.5-5.5,5.5-5.5h13c3,0,5.5,2.5,5.5,5.5v13
		C267,24.6,264.6,27,261.5,27z M248.5,6c-1.4,0-2.5,1.1-2.5,2.5v13c0,1.4,1.1,2.5,2.5,2.5h13c1.4,0,2.5-1.1,2.5-2.5v-13
		c0-1.4-1.1-2.5-2.5-2.5H248.5z"/>
</g>
<g>
	<rect x="248.2" y="10.5" class="st3" width="13.1" height="3"/>
</g>
<g>
	<rect x="248.2" y="15.8" class="st3" width="10" height="3"/>
</g>
</svg>
