<?xml version="1.0" encoding="utf-8"?>
<!-- Generator: Adobe Illustrator 19.0.1, SVG Export Plug-In . SVG Version: 6.00 Build 0)  -->
<svg version="1.1" id="Layer_1" xmlns="http://www.w3.org/2000/svg" xmlns:xlink="http://www.w3.org/1999/xlink" x="0px" y="0px"
	 viewBox="0 0 25 30" style="enable-background:new 0 0 25 30;" xml:space="preserve">
<style type="text/css">
	.st0{fill:#888888;}
</style>
<g transform="translate(0,-952.36218)">
	<path class="st0" d="M12.5,956.2c-0.8,0-1.5,0.1-2.3,0.2c-0.3,0.1-0.5,0.3-0.6,0.6l-0.4,1.5c-1,0.4-1.9,0.9-2.8,1.6l-1.5-0.4
		c-0.3-0.1-0.6,0-0.8,0.2c-0.5,0.6-1,1.2-1.3,1.9c-0.4,0.7-0.7,1.4-0.9,2.1c-0.1,0.3,0,0.6,0.2,0.8l1.1,1.1c-0.2,1.1-0.2,2.1,0,3.2
		l-1.1,1.1c-0.2,0.2-0.3,0.5-0.2,0.8c0.2,0.7,0.6,1.4,0.9,2.1c0.4,0.7,0.8,1.3,1.3,1.9c0.2,0.2,0.5,0.3,0.8,0.2l1.5-0.4
		c0.8,0.7,1.8,1.2,2.8,1.6l0.4,1.5c0.1,0.3,0.3,0.5,0.6,0.5c0.8,0.2,1.5,0.2,2.3,0.2c0.8,0,1.5-0.1,2.3-0.2c0.3-0.1,0.5-0.3,0.6-0.5
		l0.4-1.5c1-0.4,1.9-0.9,2.7-1.6L20,975c0.3,0.1,0.6,0,0.8-0.2c0.5-0.6,1-1.2,1.3-1.9c0.4-0.7,0.7-1.4,0.9-2.1
		c0.1-0.3,0-0.6-0.2-0.8l-1.1-1.1c0.2-1,0.2-2.1,0-3.2l1.1-1.1c0.2-0.2,0.3-0.5,0.2-0.8c-0.2-0.7-0.6-1.4-0.9-2.1
		c-0.4-0.7-0.8-1.3-1.3-1.9c-0.2-0.2-0.5-0.3-0.8-0.2l-1.5,0.4c-0.8-0.7-1.8-1.2-2.7-1.6l-0.4-1.5c-0.1-0.3-0.3-0.5-0.6-0.5
		C14,956.3,13.3,956.2,12.5,956.2z M12.5,957.7c0.5,0,1,0.1,1.5,0.2l0.4,1.4c0.1,0.3,0.3,0.5,0.5,0.5c1.1,0.3,2.1,0.9,3,1.7
		c0.2,0.2,0.5,0.2,0.7,0.2l1.4-0.4c0.3,0.4,0.6,0.8,0.9,1.3c0.3,0.4,0.4,0.9,0.6,1.4l-1,1c-0.2,0.2-0.3,0.4-0.2,0.7
		c0.2,1.1,0.2,2.3,0,3.4c-0.1,0.3,0,0.5,0.2,0.7l1,1c-0.2,0.5-0.4,1-0.6,1.4c-0.3,0.4-0.6,0.8-0.9,1.2l-1.4-0.4
		c-0.3-0.1-0.5,0-0.7,0.2c-0.9,0.8-1.9,1.4-3,1.7c-0.2,0.1-0.4,0.3-0.5,0.5l-0.4,1.4c-0.5,0.1-1,0.2-1.5,0.2c-0.5,0-1-0.1-1.5-0.2
		l-0.4-1.4c-0.1-0.3-0.3-0.5-0.5-0.5c-1.1-0.3-2.1-0.9-3-1.7c-0.2-0.2-0.5-0.2-0.7-0.2l-1.4,0.4c-0.3-0.4-0.6-0.8-0.9-1.2
		c-0.3-0.4-0.5-0.9-0.6-1.4l1-1c0.2-0.2,0.3-0.5,0.2-0.7c-0.2-1.1-0.2-2.3,0-3.4c0.1-0.3,0-0.5-0.2-0.7l-1-1c0.2-0.5,0.4-1,0.6-1.4
		c0.3-0.4,0.6-0.9,0.9-1.3l1.4,0.4c0.2,0.1,0.5,0,0.7-0.2c0.9-0.8,1.9-1.4,3-1.7c0.2-0.1,0.4-0.3,0.5-0.5l0.4-1.4
		C11.5,957.8,12,957.7,12.5,957.7z M12.5,961.9c-1.4,0-2.8,0.5-3.8,1.6c-2.1,2.1-2.1,5.5,0,7.7c2.1,2.1,5.6,2.1,7.7,0s2.1-5.5,0-7.7
		C15.3,962.5,13.9,961.9,12.5,961.9z M12.5,963.5c1,0,2,0.4,2.8,1.1c1.5,1.5,1.5,4,0,5.5c-1.5,1.5-4,1.5-5.5,0c-1.5-1.5-1.5-4,0-5.5
		C10.5,963.8,11.5,963.5,12.5,963.5z"/>
</g>
</svg>
