<?xml version="1.0" encoding="utf-8"?>
<!-- Generator: Adobe Illustrator 19.0.1, SVG Export Plug-In . SVG Version: 6.00 Build 0)  -->
<svg version="1.1" id="Layer_1" xmlns="http://www.w3.org/2000/svg" xmlns:xlink="http://www.w3.org/1999/xlink" x="0px" y="0px"
	 viewBox="0 0 30 30" style="enable-background:new 0 0 30 30;" xml:space="preserve">
<style type="text/css">
	.st0{fill:#70D667;}
</style>
<g>
	<path class="st0" d="M15,26.3C8.8,26.3,3.7,21.2,3.7,15C3.7,8.8,8.8,3.7,15,3.7c6.2,0,11.3,5.1,11.3,11.3
		C26.3,21.2,21.2,26.3,15,26.3z M15,5.7c-5.1,0-9.3,4.2-9.3,9.3s4.2,9.3,9.3,9.3s9.3-4.2,9.3-9.3S20.1,5.7,15,5.7z"/>
</g>
<g>
	<rect x="14" y="9" class="st0" width="2" height="11.2"/>
</g>
<g>
	<polygon class="st0" points="15,21.5 9.3,16.8 10.6,15.2 15,18.9 19.4,15 20.7,16.5 	"/>
</g>
</svg>
