<?xml version="1.0" encoding="utf-8"?>
<!-- Generator: Adobe Illustrator 19.0.1, SVG Export Plug-In . SVG Version: 6.00 Build 0)  -->
<svg version="1.1" id="Layer_1" xmlns="http://www.w3.org/2000/svg" xmlns:xlink="http://www.w3.org/1999/xlink" x="0px" y="0px"
	 viewBox="0 0 30 30" style="enable-background:new 0 0 30 30;" xml:space="preserve">
<g>
	<polygon style="fill:#434A4F;" points="22.17,28.42 1.08,28.42 1.08,0.33 22.17,0.33 22.17,10.62 20.17,10.62 20.17,2.33 
		3.08,2.33 3.08,26.42 20.17,26.42 20.17,24.38 22.17,24.38 	"/>
</g>
<g>
	<path style="fill:#70D667;" d="M21.17,25.38c-4.34,0-7.88-3.53-7.88-7.88c0-4.34,3.53-7.88,7.88-7.88s7.88,3.53,7.88,7.88
		C29.04,21.84,25.51,25.38,21.17,25.38z M21.17,11.62c-3.24,0-5.88,2.64-5.88,5.88s2.64,5.88,5.88,5.88c3.24,0,5.88-2.64,5.88-5.88
		S24.41,11.62,21.17,11.62z"/>
</g>
<g>
	<polygon style="fill:#70D667;" points="20.38,20.68 17.58,17.89 19,16.48 20.38,17.86 23.94,14.29 25.35,15.71 	"/>
</g>
<g>
	<rect x="5.19" y="10" style="fill:#434A4F;" width="8.5" height="2"/>
</g>
<g>
	<rect x="5.19" y="14" style="fill:#434A4F;" width="5.75" height="2"/>
</g>
<g>
	<rect x="5.19" y="21.62" style="fill:#434A4F;" width="6.88" height="2"/>
</g>
<g>
	<rect x="5.19" y="17.92" style="fill:#434A4F;" width="5.75" height="2"/>
</g>
</svg>
