<?xml version="1.0" encoding="utf-8"?>
<!-- Generator: Adobe Illustrator 19.0.1, SVG Export Plug-In . SVG Version: 6.00 Build 0)  -->
<svg version="1.1" id="Layer_1" xmlns="http://www.w3.org/2000/svg" xmlns:xlink="http://www.w3.org/1999/xlink" x="0px" y="0px"
	 viewBox="0 0 30 30" style="enable-background:new 0 0 30 30;" xml:space="preserve">
<style type="text/css">
	.st0{display:none;}
	.st1{display:inline;fill:#D5D9DD;}
	.st2{fill:#D5D9DD;}
</style>
<g class="st0">
	<rect x="8" y="11" class="st1" width="3" height="1"/>
</g>
<g class="st0">
	<rect x="19" y="11" class="st1" width="3" height="1"/>
</g>
<g>
	<path class="st2" d="M-28.5,3.5h-12.9C-42.3,3.5-43,4.2-43,5V25c0,0.9,0.7,1.5,1.5,1.5h12.9c0.9,0,1.5-0.7,1.5-1.5V5
		C-27,4.2-27.7,3.5-28.5,3.5z M-28,25c0,0.3-0.2,0.5-0.5,0.5h-12.9c-0.3,0-0.5-0.2-0.5-0.5v-8.5h14V25z M-28,15.5h-14V5
		c0-0.3,0.2-0.5,0.5-0.5h12.9c0.3,0,0.5,0.2,0.5,0.5V15.5z"/>
	<path class="st2" d="M-35,6.2c-2.1,0-3.7,1.7-3.7,3.7s1.7,3.7,3.7,3.7s3.7-1.7,3.7-3.7S-32.9,6.2-35,6.2z M-35,12.7
		c-1.5,0-2.7-1.2-2.7-2.7c0-1.5,1.2-2.7,2.7-2.7s2.7,1.2,2.7,2.7C-32.3,11.5-33.5,12.7-35,12.7z"/>
	<path class="st2" d="M-35.4,10.5l-0.9-0.9l-0.7,0.7l1.2,1.2c0.1,0.1,0.2,0.2,0.3,0.2c0.3,0,0.8-0.5,2.7-2.4l-0.7-0.7
		C-34.1,9.2-34.9,10-35.4,10.5z"/>
	<rect x="-39" y="18.5" class="st2" width="9" height="1"/>
	<rect x="-39" y="20.5" class="st2" width="9" height="1"/>
	<rect x="-39" y="22.5" class="st2" width="5" height="1"/>
</g>
<g>
	<path class="st2" d="M24.2,4.2h-2.8v-1h-1v1H9.2v-1h-1v1H5.5c-0.9,0-1.7,0.8-1.7,1.7v18.7c0,0.9,0.8,1.7,1.7,1.7h18.7
		c0.9,0,1.7-0.8,1.7-1.7V5.9C25.9,4.9,25.1,4.2,24.2,4.2z M5.5,5.2h2.7v1.7h1V5.2h11.2v1.7h1V5.2h2.8c0.4,0,0.7,0.3,0.7,0.7v3.5H4.8
		V5.9C4.8,5.5,5.1,5.2,5.5,5.2z M24.2,25.3H5.5c-0.4,0-0.7-0.3-0.7-0.7V10.4h20.1v14.2C24.9,25,24.6,25.3,24.2,25.3z"/>
	<path class="st2" d="M7.7,15.8h3.2v-3.3H7.7V15.8z M8.7,13.6h1.2v1.3H8.7V13.6z"/>
	<path class="st2" d="M7.7,19.6h3.2v-3.2H7.7V19.6z M8.7,17.4h1.2v1.2H8.7V17.4z"/>
	<path class="st2" d="M7.7,23.4h3.2v-3.2H7.7V23.4z M8.7,21.2h1.2v1.2H8.7V21.2z"/>
	<path class="st2" d="M11.9,15.8h10.5v-3.3H11.9V15.8z M12.9,13.6h8.5v1.3h-8.5V13.6z"/>
	<path class="st2" d="M11.9,19.6h10.5v-3.2H11.9V19.6z M12.9,17.4h8.5v1.2h-8.5V17.4z"/>
	<path class="st2" d="M11.9,23.4h10.5v-3.2H11.9V23.4z M12.9,21.2h8.5v1.2h-8.5V21.2z"/>
</g>
</svg>
