<?xml version="1.0" encoding="utf-8"?>
<!-- Generator: Adobe Illustrator 19.0.1, SVG Export Plug-In . SVG Version: 6.00 Build 0)  -->
<svg version="1.1" id="Layer_1" xmlns="http://www.w3.org/2000/svg" xmlns:xlink="http://www.w3.org/1999/xlink" x="0px" y="0px"
	 viewBox="-410 422 30 30" style="enable-background:new -410 422 30 30;" xml:space="preserve">
<style type="text/css">
	.st0{display:none;}
	.st1{display:inline;fill:#D5D9DD;}
	.st2{fill:#D5D9DD;}
	.st3{fill:#F7F8F9;}
</style>
<g>
	<g>
		<path class="st3" d="M-397.5,436.4h-6c-1,0-1.8-0.8-1.8-1.8v-6c0-1,0.8-1.8,1.8-1.8h6c1,0,1.8,0.8,1.8,1.8v6
			C-395.7,435.6-396.5,436.4-397.5,436.4z M-403.5,427.8c-0.4,0-0.8,0.4-0.8,0.8v6c0,0.4,0.4,0.8,0.8,0.8h6c0.4,0,0.8-0.4,0.8-0.8
			v-6c0-0.4-0.4-0.8-0.8-0.8H-403.5z"/>
	</g>
	<g>
		<path class="st3" d="M-386.5,436.4h-6c-1,0-1.8-0.8-1.8-1.8v-6c0-1,0.8-1.8,1.8-1.8h6c1,0,1.8,0.8,1.8,1.8v6
			C-384.7,435.6-385.5,436.4-386.5,436.4z M-392.5,427.8c-0.4,0-0.8,0.4-0.8,0.8v6c0,0.4,0.4,0.8,0.8,0.8h6c0.4,0,0.8-0.4,0.8-0.8
			v-6c0-0.4-0.4-0.8-0.8-0.8H-392.5z"/>
	</g>
	<g>
		<path class="st3" d="M-386.5,447.2h-6c-1,0-1.8-0.8-1.8-1.8v-6c0-1,0.8-1.8,1.8-1.8h6c1,0,1.8,0.8,1.8,1.8v6
			C-384.7,446.4-385.5,447.2-386.5,447.2z M-392.5,438.6c-0.4,0-0.8,0.4-0.8,0.8v6c0,0.4,0.4,0.8,0.8,0.8h6c0.4,0,0.8-0.4,0.8-0.8
			v-6c0-0.4-0.4-0.8-0.8-0.8H-392.5z"/>
	</g>
	<g>
		<path class="st3" d="M-397.5,447.2h-6c-1,0-1.8-0.8-1.8-1.8v-6c0-1,0.8-1.8,1.8-1.8h6c1,0,1.8,0.8,1.8,1.8v6
			C-395.7,446.4-396.5,447.2-397.5,447.2z M-403.5,438.6c-0.4,0-0.8,0.4-0.8,0.8v6c0,0.4,0.4,0.8,0.8,0.8h6c0.4,0,0.8-0.4,0.8-0.8
			v-6c0-0.4-0.4-0.8-0.8-0.8H-403.5z"/>
	</g>
</g>
</svg>
