<?xml version="1.0" encoding="utf-8"?>
<!-- Generator: Adobe Illustrator 19.0.1, SVG Export Plug-In . SVG Version: 6.00 Build 0)  -->
<svg version="1.1" id="Layer_1" xmlns="http://www.w3.org/2000/svg" xmlns:xlink="http://www.w3.org/1999/xlink" x="0px" y="0px"
	 viewBox="-330 342 30 30" style="enable-background:new -330 342 30 30;" xml:space="preserve">
<style type="text/css">
	.st0{display:none;}
	.st1{display:inline;fill:#D5D9DD;}
	.st2{fill:#D5D9DD;}
	.st3{fill:#F7F8F9;}
</style>
<g>
	<path class="st2" d="M-305.6,346.4h-2.8v-1h-1v1h-11.2v-1h-1v1h-2.7c-0.9,0-1.7,0.8-1.7,1.7v18.7c0,0.9,0.8,1.7,1.7,1.7h18.7
		c0.9,0,1.7-0.8,1.7-1.7v-18.7C-303.9,347.1-304.8,346.4-305.6,346.4z M-325.1,348.1c0-0.3,0.3-0.7,0.7-0.7h2.7v1.7h1v-1.7h11.2v1.7
		h1v-1.7h2.8c0.4,0,0.7,0.3,0.7,0.7v3.5h-20.1V348.1z M-304.9,367c0,0.3-0.3,0.7-0.7,0.7h-18.7c-0.4,0-0.7-0.3-0.7-0.7v-14.2h20.1
		V367z"/>
	<path class="st2" d="M-319,354.9h-3.2v3.3h3.2V354.9z M-320,357.3h-1.2v-1.3h1.2V357.3z"/>
	<path class="st2" d="M-319,358.8h-3.2v3.2h3.2V358.8z M-320,360.9h-1.2v-1.2h1.2V360.9z"/>
	<path class="st2" d="M-319,362.5h-3.2v3.2h3.2V362.5z M-320,364.6h-1.2v-1.2h1.2V364.6z"/>
	<path class="st2" d="M-307.4,354.9h-10.5v3.3h10.5V354.9z M-308.4,357.3h-8.5v-1.3h8.5V357.3z"/>
	<path class="st2" d="M-307.4,358.8h-10.5v3.2h10.5V358.8z M-308.4,360.9h-8.5v-1.2h8.5V360.9z"/>
	<path class="st2" d="M-307.4,362.5h-10.5v3.2h10.5V362.5z M-308.4,364.6h-8.5v-1.2h8.5V364.6z"/>
</g>
</svg>
