<?xml version="1.0" encoding="utf-8"?>
<!-- Generator: Adobe Illustrator 20.0.0, SVG Export Plug-In . SVG Version: 6.00 Build 0)  -->
<svg version="1.1" id="Layer_1" xmlns="http://www.w3.org/2000/svg" xmlns:xlink="http://www.w3.org/1999/xlink" x="0px" y="0px"
	 viewBox="0 0 30 30" style="enable-background:new 0 0 30 30;" xml:space="preserve">
<style type="text/css">
	.st0{fill:#D5D9DD;}
</style>
<g>
	<path class="st0" d="M24.8,14.2H13.7v8.4h11.2V14.2z M23.8,21.6h-9.1v-6.4h9.1V21.6z"/>
	<path class="st0" d="M28,11.7l-1.2-4.7h-8.5c0,0,0,0,0-0.1c0-1.8-1.5-3.3-3.3-3.3S11.8,5,11.8,6.9c0,0,0,0,0,0.1H3.9L2,11.7h1.7
		v14.8h23.2V11.7H28z M15.1,4.6c1.2,0,2.3,1,2.3,2.3s-1,2.3-2.3,2.3s-2.3-1-2.3-2.3S13.8,4.6,15.1,4.6z M3.5,10.6L4.6,8H12
		c0.5,1.3,1.7,2.2,3.1,2.2s2.6-0.9,3.1-2.2H26l0.7,2.7H3.7H3.5z M11.1,25.4H7.5V15.4h3.6V25.4z M25.9,25.4H12.1V14.3H6.5v11.1H4.8
		V11.7h21.1V25.4z"/>
	<rect x="16.9" y="17" transform="matrix(0.7071 -0.7071 0.7071 0.7071 -6.9587 18.1518)" class="st0" width="3.1" height="1"/>
	<rect x="17.3" y="18.1" transform="matrix(0.7071 -0.7071 0.7071 0.7071 -7.3475 19.4303)" class="st0" width="5" height="1"/>
</g>
</svg>
