<?xml version="1.0" encoding="utf-8"?>
<!-- Generator: Adobe Illustrator 19.0.1, SVG Export Plug-In . SVG Version: 6.00 Build 0)  -->
<svg version="1.1" id="Layer_1" xmlns="http://www.w3.org/2000/svg" xmlns:xlink="http://www.w3.org/1999/xlink" x="0px" y="0px"
	 viewBox="-170 342 30 30" style="enable-background:new -170 342 30 30;" xml:space="preserve">
<style type="text/css">
	.st0{display:none;}
	.st1{display:inline;fill:#D5D9DD;}
	.st2{fill:#D5D9DD;}
	.st3{fill:#F7F8F9;}
</style>
<g>
	<polygon class="st2" points="-153.1,364.5 -163,364.5 -163,349.5 -153.1,349.5 -153.1,353.8 -152.1,353.8 -152.1,348.6 -164,348.6 
		-164,365.4 -152.1,365.4 -152.1,360.2 -153.1,360.2 	"/>
	<path class="st2" d="M-146.3,356.5c-0.4-0.4-3-3-3-3c-0.2-0.2-0.5-0.2-0.7,0c-0.2,0.2-0.2,0.5,0,0.7l2.3,2.3h-11.4
		c-0.3,0-0.5,0.2-0.5,0.5s0.2,0.5,0.5,0.5h11.5l-2.4,2.4c-0.2,0.2-0.2,0.5,0,0.7c0.1,0.1,0.2,0.1,0.3,0.1c0.2,0,0.3-0.1,0.4-0.2
		l3.1-3.1C-145.8,357-145.9,356.9-146.3,356.5z"/>
</g>
</svg>
