<?xml version="1.0" encoding="utf-8"?>
<!-- Generator: Adobe Illustrator 19.0.1, SVG Export Plug-In . SVG Version: 6.00 Build 0)  -->
<svg version="1.1" id="Layer_1" xmlns="http://www.w3.org/2000/svg" xmlns:xlink="http://www.w3.org/1999/xlink" x="0px" y="0px"
	 viewBox="0 0 600 600" style="enable-background:new 0 0 600 600;" xml:space="preserve">
<style type="text/css">
	.st0{fill:#C1C1C1;}
</style>
<g>
	<g>
		<polygon class="st0" points="178.5,447.2 162.6,447.2 162.6,269.5 249.3,269.5 249.3,440.7 233.4,440.7 233.4,285.4 178.5,285.4 
					"/>
	</g>
</g>
<g>
	<g>
		<polygon class="st0" points="492.4,228.7 93.6,228.7 122.6,156.2 255.5,156.2 255.5,172 133.4,172 117.1,212.8 472.1,212.8 
			461.9,172 339.6,172 339.6,156.2 474.2,156.2 		"/>
	</g>
</g>
<g>
	<g>
		<path class="st0" d="M293.8,205.5c-27.8,0-50.4-22.6-50.4-50.4s22.6-50.4,50.4-50.4s50.4,22.6,50.4,50.4S321.6,205.5,293.8,205.5z
			 M293.8,120.5c-19.1,0-34.6,15.5-34.6,34.6s15.5,34.6,34.6,34.6s34.6-15.5,34.6-34.6S312.8,120.5,293.8,120.5z"/>
	</g>
</g>
<g>
	<g>
		
			<rect x="337.7" y="293.9" transform="matrix(0.7071 0.7071 -0.7071 0.7071 326.0727 -151.2682)" class="st0" width="15.9" height="48.1"/>
	</g>
</g>
<g>
	<g>
		
			<rect x="358.4" y="296.9" transform="matrix(0.7071 0.7071 -0.7071 0.7071 344.1533 -160.9153)" class="st0" width="15.9" height="76.1"/>
	</g>
</g>
<g>
	<path class="st0" d="M577.3,590.3H22.7c-7.2,0-13-5.8-13-13V22.7c0-7.2,5.8-13,13-13h554.6c7.2,0,13,5.8,13,13v554.6
		C590.3,584.5,584.5,590.3,577.3,590.3z M23.7,576.3h552.6V23.7H23.7V576.3z"/>
</g>
<path class="st0" d="M376.5,381H288v-98h140v66.5c5-1,10-1.5,16-1.5v-81H273v129h93.6C369.3,391,372.7,385,376.5,381z"/>
<g>
	<path class="st0" d="M444.1,359.4c-40.9,0-74.2,33.3-74.2,74.2c0,40.9,33.3,74.2,74.2,74.2c40.9,0,74.2-33.3,74.2-74.2
		C518.2,392.7,485,359.4,444.1,359.4z M444.1,493.3c-32.9,0-59.7-26.8-59.7-59.7c0-32.9,26.8-59.7,59.7-59.7
		c32.9,0,59.7,26.8,59.7,59.7C503.8,466.5,477,493.3,444.1,493.3z"/>
	<polygon class="st0" points="472,426 451,426 451,403 437,403 437,426 416,426 416,441 437,441 437,464 451,464 451,441 472,441 	
		"/>
</g>
<path class="st0" d="M358.4,440H136V229h324v120.6c6,1.1,11,2.7,16,4.7V213H120v242h241C359.7,450,358.8,445,358.4,440z"/>
</svg>
