<?xml version="1.0" encoding="utf-8"?>
<!-- Generator: Adobe Illustrator 19.0.1, SVG Export Plug-In . SVG Version: 6.00 Build 0)  -->
<svg version="1.1" id="Layer_1" xmlns="http://www.w3.org/2000/svg" xmlns:xlink="http://www.w3.org/1999/xlink" x="0px" y="0px"
	 viewBox="0 0 600 600" style="enable-background:new 0 0 600 600;" xml:space="preserve">
<style type="text/css">
	.st0{fill:#C1C1C1;}
</style>
<g>
	<path class="st0" d="M281.5,295.9c-43.5,0-79-35.4-79-79c0-43.5,35.4-79,79-79s79,35.4,79,79C360.4,260.4,325,295.9,281.5,295.9z
		 M281.5,152.4c-35.6,0-64.5,28.9-64.5,64.5s28.9,64.5,64.5,64.5s64.5-28.9,64.5-64.5S317.1,152.4,281.5,152.4z"/>
</g>
<path class="st0" d="M312.7,427H181.2c0.9-11,3.7-30.6,12.7-50.5c16.7-36.9,46.4-55.6,88-55.6c17.7,0,33.4,3.4,46.7,10.2
	c3.6-3.7,7.5-7.1,11.7-10.1c-16.5-9.7-36.1-14.6-58.4-14.6c-59.8,0-88.3,35-101.6,64.4c-14,31.1-14.4,61.9-14.4,63.1v7h149.5
	L312.7,427z"/>
<g>
	<path class="st0" d="M400.2,346.8c-40.9,0-74.2,33.3-74.2,74.2c0,40.9,33.3,74.2,74.2,74.2c40.9,0,74.2-33.3,74.2-74.2
		C474.4,380.1,441.1,346.8,400.2,346.8z M400.2,480.7c-32.9,0-59.7-26.8-59.7-59.7c0-32.9,26.8-59.7,59.7-59.7
		c32.9,0,59.7,26.8,59.7,59.7C460,453.9,433.2,480.7,400.2,480.7z"/>
	<polygon class="st0" points="428,413 407,413 407,390 393,390 393,413 372,413 372,428 393,428 393,451 407,451 407,428 428,428 	
		"/>
</g>
<g>
	<path class="st0" d="M577.3,590.3H22.7c-7.2,0-13-5.8-13-13V22.7c0-7.2,5.8-13,13-13h554.6c7.2,0,13,5.8,13,13v554.6
		C590.3,584.5,584.5,590.3,577.3,590.3z M23.7,576.3h552.6V23.7H23.7V576.3z"/>
</g>
<g>
	<path class="st0" d="M352.4,348.9c4.2-2.7,8.6-5,13.2-6.9c-16.7-19.5-42.8-35.5-83.3-35.5c-22.3,0-41.9,4.9-58.4,14.6
		c4.2,3,8.1,6.4,11.7,10.1c13.3-6.8,29-10.2,46.7-10.2C311.9,320.9,335.3,330.3,352.4,348.9z"/>
	<path class="st0" d="M313.3,427h-61.6c-2.4,5-5.3,10-8.6,14h72.4C314.4,436.5,313.6,431.8,313.3,427z"/>
</g>
</svg>
