<?xml version="1.0" encoding="utf-8"?>
<!-- Generator: Adobe Illustrator 19.0.1, SVG Export Plug-In . SVG Version: 6.00 Build 0)  -->
<svg version="1.1" id="Layer_1" xmlns="http://www.w3.org/2000/svg" xmlns:xlink="http://www.w3.org/1999/xlink" x="0px" y="0px"
	 viewBox="0 0 320 400" style="enable-background:new 0 0 320 400;" xml:space="preserve">
<style type="text/css">
	.st0{fill:#F27821;}
	.st1{fill:#2C4355;}
	.st2{fill:#FBC02C;}
	.st3{fill:#5CC1A4;}
	.st4{fill:#FFFFFF;}
</style>
<g>
	<g>
		<path class="st0" d="M212.2,6.2c-3.9,11.6-1.8,24.9,6.8,34.9s21.4,14.1,33.5,12L212.2,6.2z"/>
	</g>
	<g>
		<path class="st0" d="M56.8,47.2c11.6,3.9,24.9,1.8,34.9-6.8S105.8,19,103.7,7L56.8,47.2z"/>
	</g>
	<g>
		<path class="st1" d="M156.8,24.5c-41.4,0-75,25.3-75,56.6c0,2.3,12.5,154.6,12.5,154.6h130c0,0,7.5-153.4,7.5-154.6
			C231.8,49.8,198.2,24.5,156.8,24.5z M159,132.2c-7.1,0-12.9-5.8-12.9-12.9s5.8-12.9,12.9-12.9c7.1,0,12.9,5.8,12.9,12.9
			C171.9,126.4,166.1,132.2,159,132.2z M217.1,228.2h-50.7v-79.4c0-0.6-0.1-1.1-0.2-1.7c13.4-3.3,23.3-15.3,23.3-29.7
			c0-16.9-13.7-30.6-30.6-30.6s-30.6,13.7-30.6,30.6c0,14.4,9.9,26.4,23.3,29.7c-0.1,0.5-0.2,1.1-0.2,1.7v79.4h-50.3
			C97.5,183,89.6,86.1,89.3,80.9c0.1-27,30.3-48.9,67.5-48.9s67.4,22,67.5,49C224.1,84.9,219.7,175,217.1,228.2z"/>
	</g>
	<g>
		<g>
			<path class="st1" d="M165.8,320.9h-10.6c-6.1,0-11-0.5-11-1.1v-3.3c0-0.6,4.9-1.1,11-1.1h10.6c6.1,0,11,0.5,11,1.1v3.3
				C176.8,320.4,171.8,320.9,165.8,320.9z"/>
		</g>
		<g>
			<path class="st1" d="M165.8,328.7h-10.6c-6.1,0-11-0.5-11-1.1v-3.3c0-0.6,4.9-1.1,11-1.1h10.6c6.1,0,11,0.5,11,1.1v3.3
				C176.8,328.2,171.8,328.7,165.8,328.7z"/>
		</g>
		<g>
			<path class="st1" d="M165.8,336.7h-10.6c-6.1,0-11-0.5-11-1.1v-3.3c0-0.6,4.9-1.1,11-1.1h10.6c6.1,0,11,0.5,11,1.1v3.3
				C176.8,336.3,171.8,336.7,165.8,336.7z"/>
		</g>
	</g>
	<g>
		<g>
			<path class="st1" d="M225.2,348.1c7,0,12.7,5.7,12.7,12.7v16c0,7-5.7,12.7-12.7,12.7h-126c-7,0-12.7-5.7-12.7-12.7v-16
				c0-7,5.7-12.7,12.7-12.7H225.2 M225.2,342.9h-126c-9.9,0-17.9,8-17.9,17.9v16c0,9.9,8,17.9,17.9,17.9h126c9.9,0,17.9-8,17.9-17.9
				v-16C243.1,350.9,235.1,342.9,225.2,342.9L225.2,342.9z"/>
		</g>
	</g>
	<g>
		<circle class="st0" cx="215.8" cy="368.8" r="14.6"/>
	</g>
	<g>
		<circle class="st0" cx="160.6" cy="368.8" r="14.6"/>
	</g>
	<g>
		<circle class="st0" cx="107.6" cy="368.8" r="14.6"/>
	</g>
	<g>
		<circle class="st2" cx="240.4" cy="193.6" r="9.5"/>
	</g>
	<g>
		<g>
			<path class="st3" d="M285.3,252.1c-0.7,3-1.7,5.8-3,8.5l0,0l11,6.7c1.9-3.8,3.4-7.9,4.5-12.2c7.1-29.7-11.2-59.5-40.9-66.5
				l-3,12.4C276.6,206.4,290.7,229.3,285.3,252.1z"/>
		</g>
	</g>
	<g>
		<circle class="st2" cx="280.3" cy="277" r="12.3"/>
	</g>
	<g>
		<g>
			<g>
				<path class="st3" d="M33.2,133.6c0.7-3,1.7-5.8,3-8.5l0,0l-10.9-6.7c-1.9,3.8-3.5,7.9-4.5,12.2c-7.1,29.7,11.1,59.5,40.8,66.6
					l3-12.4C41.7,179.3,27.7,156.4,33.2,133.6z"/>
			</g>
		</g>
		<g>
			<circle class="st2" cx="77.5" cy="194.2" r="9.5"/>
		</g>
		<g>
			<circle class="st2" cx="40.4" cy="110" r="12.3"/>
		</g>
	</g>
	<g>
		<path class="st3" d="M222.9,241.9H95c-8,0-14.5,6.5-14.5,14.5v39.8c0,8,6.5,14.5,14.5,14.5h127.9c8,0,14.5-6.5,14.5-14.5v-39.8
			C237.4,248.4,230.9,241.9,222.9,241.9z M140,285.9c0,5.9-4.2,10.7-9.5,10.7h-22.3c-5.2,0-9.5-4.8-9.5-10.7v-18
			c0-5.9,4.2-10.7,9.5-10.7h22.3c5.2,0,9.5,4.8,9.5,10.7V285.9z"/>
	</g>
	<g>
		<g>
			<rect x="154.6" y="270.2" class="st4" width="73.2" height="22.4"/>
		</g>
		<g>
			<path class="st0" d="M227.8,259.6c0-3.8-3.1-6.8-6.8-6.8h-59.5c-3.8,0-6.8,3.1-6.8,6.8v10.6h73.2L227.8,259.6L227.8,259.6z"/>
		</g>
		<g>
			<path class="st0" d="M154.6,293c0,3.8,3.1,6.8,6.8,6.8H221c3.8,0,6.8-3.1,6.8-6.8v-0.4h-73.2V293z"/>
		</g>
		<g>
			<path class="st4" d="M180.2,267.9v-5.6H173v5.6h-1.5v-12.3h1.5v5.3h7.2v-5.3h1.5v12.3H180.2z"/>
			<path class="st4" d="M184,263.4c0-2.6,1.8-4.7,4.4-4.7c2.7,0,4.3,2.1,4.3,4.8v0.4h-7.2c0.1,1.7,1.3,3.1,3.2,3.1
				c1,0,2-0.4,2.7-1.1l0.7,0.9c-0.9,0.9-2.1,1.4-3.5,1.4C185.9,268.1,184,266.2,184,263.4z M188.4,259.9c-1.9,0-2.8,1.6-2.9,3h5.8
				C191.3,261.6,190.4,259.9,188.4,259.9z"/>
			<path class="st4" d="M194.9,267.9v-12.3h1.4v12.3H194.9z"/>
			<path class="st4" d="M199,267.9v-12.3h1.4v12.3H199z"/>
			<path class="st4" d="M202.7,263.4c0-2.6,1.7-4.7,4.4-4.7s4.4,2.1,4.4,4.7s-1.7,4.7-4.4,4.7S202.7,266,202.7,263.4z M210,263.4
				c0-1.8-1-3.4-2.9-3.4s-3,1.6-3,3.4s1.1,3.4,3,3.4C209,266.9,210,265.3,210,263.4z"/>
		</g>
		<g>
			<path class="st1" d="M158.8,287.8v-12.3h6c2.2,0,3.5,1.4,3.5,3.1c0,1.5-1,2.6-2.1,2.8c1.3,0.2,2.4,1.5,2.4,3
				c0,1.9-1.3,3.3-3.6,3.3h-6.2V287.8z M166.1,279c0-0.9-0.6-1.6-1.7-1.6H161v3.2h3.4C165.5,280.6,166.1,279.9,166.1,279z
				 M166.3,284.2c0-0.9-0.6-1.7-1.9-1.7h-3.5v3.4h3.5C165.6,285.9,166.3,285.3,166.3,284.2z"/>
			<path class="st1" d="M170.6,287.8v-8.9h1.9v1.3c0.7-0.8,1.7-1.5,2.9-1.5v1.9c-0.2,0-0.4-0.1-0.6-0.1c-0.8,0-1.9,0.6-2.3,1.2v6.1
				H170.6z"/>
			<path class="st1" d="M183,287.8v-5.6c0-1.4-0.7-1.8-1.8-1.8c-1,0-1.8,0.6-2.3,1.2v6.2H177v-8.9h1.9v1.2c0.6-0.7,1.7-1.4,3.1-1.4
				c1.9,0,2.9,1,2.9,2.9v6.3H183V287.8z"/>
			<path class="st1" d="M193.7,287.8v-1.2c-0.7,0.9-1.7,1.4-2.9,1.4c-2.3,0-4-1.7-4-4.7c0-2.9,1.7-4.7,4-4.7c1.1,0,2.1,0.5,2.9,1.5
				v-4.6h1.9v12.3L193.7,287.8L193.7,287.8z M193.7,285.1v-3.5c-0.4-0.7-1.4-1.2-2.3-1.2c-1.5,0-2.5,1.2-2.5,3c0,1.7,1,2.9,2.5,2.9
				C192.4,286.3,193.3,285.8,193.7,285.1z"/>
			<path class="st1" d="M198.2,287.8v-12.3h6c2.2,0,3.5,1.4,3.5,3.1c0,1.5-1,2.6-2.1,2.8c1.3,0.2,2.4,1.5,2.4,3
				c0,1.9-1.3,3.3-3.6,3.3h-6.2V287.8z M205.6,279c0-0.9-0.6-1.6-1.7-1.6h-3.4v3.2h3.4C204.9,280.6,205.6,279.9,205.6,279z
				 M205.8,284.2c0-0.9-0.6-1.7-1.9-1.7h-3.5v3.4h3.5C205.1,285.9,205.8,285.3,205.8,284.2z"/>
			<path class="st1" d="M209.6,283.4c0-2.5,1.7-4.7,4.6-4.7c2.9,0,4.6,2.1,4.6,4.7s-1.7,4.7-4.6,4.7
				C211.3,288,209.6,285.9,209.6,283.4z M216.7,283.4c0-1.6-0.9-2.9-2.6-2.9c-1.6,0-2.6,1.4-2.6,2.9c0,1.6,0.9,3,2.6,3
				C215.8,286.3,216.7,284.9,216.7,283.4z"/>
			<path class="st1" d="M221,285.7v-5.1h-1.5v-1.7h1.5v-2.4h1.9v2.4h1.8v1.7H223v4.7c0,0.6,0.3,1,0.8,1c0.4,0,0.7-0.1,0.9-0.3
				l0.5,1.5c-0.3,0.3-0.9,0.6-1.8,0.6C221.8,288,221,287.2,221,285.7z"/>
		</g>
	</g>
</g>
</svg>
