<?xml version="1.0" encoding="utf-8"?>
<!-- Generator: Adobe Illustrator 19.0.1, SVG Export Plug-In . SVG Version: 6.00 Build 0)  -->
<svg version="1.1" id="Layer_1" xmlns="http://www.w3.org/2000/svg" xmlns:xlink="http://www.w3.org/1999/xlink" x="0px" y="0px"
	 viewBox="0 0 1300 400" style="enable-background:new 0 0 1300 400;" xml:space="preserve">
<style type="text/css">
	.st0{fill:#FFFFFF;}
</style>
<g>
	<g>
		<g>
			<path class="st0" d="M167.2,36.8c36.1,0,65.6,21.4,65.6,47.6c-0.1,3.8-4.4,91.5-6.9,143.2H113.1c-3.6-43.9-11.3-138.2-11.6-143.2
				C101.6,58.1,131,36.8,167.2,36.8 M167.2,29.5c-40.3,0-72.9,24.6-72.9,55c0,2.2,12.2,150.4,12.2,150.4h126.4
				c0,0,7.3-149.2,7.3-150.4C240.1,54.1,207.4,29.5,167.2,29.5L167.2,29.5z"/>
		</g>
	</g>
	<g>
		<path class="st0" d="M169.4,143.1h-0.1c-4,0-7.2,3.2-7.2,7.2v73.1c0,4,3.2,7.2,7.2,7.2h0.1c4,0,7.2-3.2,7.2-7.2v-73.1
			C176.6,146.4,173.4,143.1,169.4,143.1z"/>
	</g>
	<g>
		<path class="st0" d="M221,11.7c-3.8,11.3-1.7,24.2,6.6,33.9s20.8,13.7,32.5,11.6L221,11.7z"/>
	</g>
	<g>
		<path class="st0" d="M70,51.6c11.3,3.8,24.2,1.7,33.9-6.6s13.7-20.8,11.6-32.5L70,51.6z"/>
	</g>
	<g>
		<path class="st0" d="M169.3,90.1c-16.4,0-29.8,13.3-29.8,29.8c0,16.4,13.3,29.8,29.8,29.8s29.8-13.3,29.8-29.8
			C199.1,103.4,185.7,90.1,169.3,90.1z M169.3,134.3c-6.9,0-12.6-5.6-12.6-12.6c0-6.9,5.6-12.6,12.6-12.6c6.9,0,12.6,5.6,12.6,12.6
			C181.9,128.6,176.2,134.3,169.3,134.3z"/>
	</g>
	<g>
		<g>
			<path class="st0" d="M175.9,317.8h-10.3c-5.9,0-10.7-0.5-10.7-1.1v-3.2c0-0.6,4.8-1.1,10.7-1.1h10.3c5.9,0,10.7,0.5,10.7,1.1v3.2
				C186.6,317.3,181.8,317.8,175.9,317.8z"/>
		</g>
		<g>
			<path class="st0" d="M175.9,325.4h-10.3c-5.9,0-10.7-0.5-10.7-1.1v-3.2c0-0.6,4.8-1.1,10.7-1.1h10.3c5.9,0,10.7,0.5,10.7,1.1v3.2
				C186.6,324.9,181.8,325.4,175.9,325.4z"/>
		</g>
		<g>
			<path class="st0" d="M175.9,333.2h-10.3c-5.9,0-10.7-0.5-10.7-1.1v-3.2c0-0.6,4.8-1.1,10.7-1.1h10.3c5.9,0,10.7,0.5,10.7,1.1v3.2
				C186.6,332.7,181.8,333.2,175.9,333.2z"/>
		</g>
	</g>
	<g>
		<g>
			<path class="st0" d="M47,255.9c0.7,2.9,1.7,5.6,2.9,8.2l0,0l-10.6,6.5c-1.9-3.7-3.4-7.6-4.4-11.8C27.9,230,45.7,201,74.5,194
				l2.9,12.1C55.3,211.5,41.6,233.8,47,255.9z"/>
		</g>
	</g>
	<g>
		<circle class="st0" cx="90" cy="197" r="9.2"/>
	</g>
	<g>
		<path class="st0" d="M231.5,241H107.1c-7.8,0-14.1,6.3-14.1,14.1v38.7c0,7.8,6.3,14.1,14.1,14.1h124.4c7.8,0,14.1-6.3,14.1-14.1
			v-38.7C245.6,247.3,239.3,241,231.5,241z M166,283.8c0,5.7-4.1,10.4-9.2,10.4H135c-5.1,0-9.2-4.7-9.2-10.4v-17.5
			c0-5.7,4.1-10.4,9.2-10.4h21.7c5.1,0,9.2,4.7,9.2,10.4V283.8z M213.1,289.6c0,2.5-4.1,4.6-9.2,4.6h-21.7c-5.1,0-9.2-2.1-9.2-4.6
			v-7.8c0-2.5,4.1-4.6,9.2-4.6h21.7c5.1,0,9.2,2.1,9.2,4.6V289.6z M213.1,268.2c0,2.5-4.1,4.6-9.2,4.6h-21.7c-5.1,0-9.2-2.1-9.2-4.6
			v-7.8c0-2.5,4.1-4.6,9.2-4.6h21.7c5.1,0,9.2,2.1,9.2,4.6V268.2z"/>
	</g>
	<g>
		<g>
			<path class="st0" d="M233.8,344.2c6.8,0,12.4,5.5,12.4,12.4v15.5c0,6.8-5.5,12.4-12.4,12.4H111.2c-6.8,0-12.4-5.5-12.4-12.4
				v-15.5c0-6.8,5.5-12.4,12.4-12.4H233.8 M233.8,339.2H111.2c-9.6,0-17.4,7.8-17.4,17.4v15.5c0,9.6,7.8,17.4,17.4,17.4h122.5
				c9.6,0,17.4-7.8,17.4-17.4v-15.5C251.2,347,243.4,339.2,233.8,339.2L233.8,339.2z"/>
		</g>
	</g>
	<g>
		<circle class="st0" cx="224.6" cy="364.4" r="14.2"/>
	</g>
	<g>
		<circle class="st0" cx="170.9" cy="364.4" r="14.2"/>
	</g>
	<g>
		<circle class="st0" cx="119.4" cy="364.4" r="14.2"/>
	</g>
	<g>
		<circle class="st0" cx="248.5" cy="197.8" r="9.2"/>
	</g>
	<g>
		<g>
			<path class="st0" d="M292.1,254.6c-0.7,2.9-1.7,5.7-2.9,8.2l0,0l10.7,6.5c1.9-3.7,3.4-7.6,4.4-11.9c6.9-28.9-10.9-57.8-39.8-64.7
				l-2.9,12.1C283.7,210.2,297.4,232.4,292.1,254.6z"/>
		</g>
	</g>
	<g>
		<circle class="st0" cx="287.3" cy="278.9" r="12"/>
	</g>
	<g>
		<circle class="st0" cx="54" cy="278.9" r="12"/>
	</g>
</g>
<g>
	<path class="st0" d="M534.1,303.4l-13-34h-81.2l-13,34h-35.3l69.5-177h38.7l69.5,177H534.1z M480.5,157.7l-31.8,84.4h63.7
		L480.5,157.7z"/>
	<path class="st0" d="M588.8,303.4v-177h65.8c55.2,0,92.6,36.6,92.6,88.6s-37.4,88.4-92.6,88.4H588.8z M715.4,215
		c0-34.2-21.2-61.3-60.8-61.3h-34.8V276h34.8C693.1,276,715.4,248.4,715.4,215z"/>
	<path class="st0" d="M930.1,303.4V172l-54.4,131.4h-13.3L808.2,172v131.4h-31.1v-177H821l48,116.5l48.3-116.5h43.8v177H930.1z"/>
	<path class="st0" d="M998.8,303.4v-177h31.1v177H998.8z"/>
	<path class="st0" d="M1190.9,303.4l-92.4-126.3v126.3h-31.1v-177h31.8l90.5,122.9V126.4h31.1v177H1190.9z"/>
</g>
</svg>
