<?xml version="1.0" encoding="utf-8"?>
<!-- Generator: Adobe Illustrator 16.0.0, SVG Export Plug-In . SVG Version: 6.00 Build 0)  -->
<!DOCTYPE svg PUBLIC "-//W3C//DTD SVG 1.1//EN" "http://www.w3.org/Graphics/SVG/1.1/DTD/svg11.dtd">
<svg version="1.1" id="Layer_1" xmlns="http://www.w3.org/2000/svg" xmlns:xlink="http://www.w3.org/1999/xlink" x="0px" y="0px"
	 width="612px" height="792px" viewBox="0 0 612 792" enable-background="new 0 0 612 792" xml:space="preserve">
<g>
	<g>
		<path fill="#FFFFFF" d="M293.515,477.563c-17.381,0-34.517-5.875-47.735-17.38L53.121,291.515
			c-3.917-3.427-5.141-7.099-3.427-11.75c1.958-4.896,6.364-6.365,11.506-6.365h464.385c5.141,0,9.792,1.469,11.506,6.365
			s0.489,9.303-3.428,12.729L341.006,460.672C328.031,472.178,310.896,477.563,293.515,477.563z M94.003,297.88l167.933,145.411
			c17.136,14.934,46.022,15.668,62.913,0.734L493.027,297.88H94.003z"/>
	</g>
	<g>
		<path fill="#FFFFFF" d="M537.091,579.6H71.971c-6.854,0-23.011-3.427-23.011-10.036V288.043c0-6.854,5.386-12.24,12.24-12.24
			c6.854,0,12.239,5.386,12.239,12.24V555.12h440.64V288.043c0-6.854,5.386-12.24,12.24-12.24s12.24,5.386,12.24,12.24v281.521
			C538.56,576.173,543.7,579.6,537.091,579.6z"/>
	</g>
</g>
</svg>
