<?xml version="1.0" encoding="utf-8"?>
<!-- Generator: Adobe Illustrator 19.0.1, SVG Export Plug-In . SVG Version: 6.00 Build 0)  -->
<svg version="1.1" id="Layer_1" xmlns="http://www.w3.org/2000/svg" xmlns:xlink="http://www.w3.org/1999/xlink" x="0px" y="0px"
	 viewBox="0 0 200 200" style="enable-background:new 0 0 200 200;" xml:space="preserve">
<style type="text/css">
	.st0{fill:none;stroke:#CAE2EF;stroke-width:3;stroke-miterlimit:10;}
	.st1{fill:#DCEEF7;}
	.st2{fill:#FFFFFF;stroke:#64B6EE;stroke-width:2;stroke-miterlimit:10;}
	.st3{fill:none;stroke:#64B6EE;stroke-width:2;stroke-miterlimit:10;}
</style>
<line class="st0" x1="52" y1="137.5" x2="146" y2="137.5"/>
<circle class="st1" cx="100" cy="96.3" r="94.3"/>
<path class="st2" d="M114.5,174.7H42.2c-2.3,0-4.2-1.9-4.2-4.2V18.9c0-2.3,1.9-4.2,4.2-4.2h114.2c2.3,0,4.2,1.9,4.2,4.2v123.5"/>
<path class="st0" d="M87.3,116.5H55.7c-2.3,0-4.2-2-4.2-4.5V56.8c0-2.5,1.9-4.5,4.2-4.5h86.7c2.3,0,4.2,2,4.2,4.5V112
	c0,2.5-1.9,4.5-4.2,4.5h-29.8"/>
<circle class="st2" cx="99.3" cy="92.3" r="27.6"/>
<g>
	<line class="st2" x1="100" y1="76.8" x2="100" y2="107.7"/>
	<line class="st2" x1="114.1" y1="92.3" x2="84.5" y2="92.3"/>
</g>
<path class="st2" d="M146.2,137.4H116c-1.1,0-2,0.9-2,2v24v32c0,1.1,14.4-14.9,15.5-14.9h40.3h14.2c1.1,0,2-0.9,2-2v-39.2
	c0-1.1-0.9-2-2-2H146.2z"/>
<path class="st0" d="M63.2,41.1h-8.1c-1.7,0-3-1.3-3-3V30c0-1.7,1.3-3,3-3h8.1c1.7,0,3,1.3,3,3v8.1C66.2,39.7,64.9,41.1,63.2,41.1z"
	/>
<line class="st0" x1="72" y1="29.5" x2="115" y2="29.5"/>
<line class="st0" x1="72" y1="36.5" x2="103" y2="36.5"/>
<line class="st0" x1="52" y1="127.5" x2="146" y2="127.5"/>
<line class="st0" x1="52" y1="137.5" x2="100" y2="137.5"/>
<line class="st0" x1="52" y1="153.5" x2="72" y2="153.5"/>
<line class="st0" x1="77" y1="153.5" x2="97" y2="153.5"/>
</svg>
