<?xml version="1.0" encoding="utf-8"?>
<!-- Generator: Adobe Illustrator 19.0.1, SVG Export Plug-In . SVG Version: 6.00 Build 0)  -->
<svg version="1.1" id="Layer_1" xmlns="http://www.w3.org/2000/svg" xmlns:xlink="http://www.w3.org/1999/xlink" x="0px" y="0px"
	 viewBox="0 0 200 200" style="enable-background:new 0 0 200 200;" xml:space="preserve">
<style type="text/css">
	.st0{fill:none;stroke:#CAE2EF;stroke-width:3;stroke-miterlimit:10;}
	.st1{fill:#DCEEF7;}
	.st2{fill:#FFFFFF;stroke:#64B6EE;stroke-width:2;stroke-miterlimit:10;}
	.st3{fill:none;stroke:#64B6EE;stroke-width:2;stroke-miterlimit:10;}
</style>
<circle class="st1" cx="99" cy="97" r="67.1"/>
<path class="st2" d="M109.3,152.8H57.9c-1.7,0-3-1.3-3-3V42c0-1.7,1.3-3,3-3h81.2c1.7,0,3,1.3,3,3v87.8"/>
<path class="st0" d="M82.5,104.6h-15c-1.7,0-3-1.3-3-3V64.5c0-1.7,1.3-3,3-3h61.6c1.7,0,3,1.3,3,3v37.1c0,1.7-1.3,3-3,3h-14.6"/>
<path class="st2" d="M131.9,129.7h-21.5c-0.8,0-1.4,0.6-1.4,1.4v17.1V159c0,0.8,0.6,1.4,1.4,1.4h38.2h10.1c0.8,0,1.4-0.6,1.4-1.4
	v-27.9c0-0.8-0.6-1.4-1.4-1.4H131.9z"/>
<path class="st3" d="M109,129.7l25,15c0.4,0.2,0.8,0.2,1.1,0l25-15"/>
<line class="st0" x1="65" y1="54.5" x2="90" y2="54.5"/>
<line class="st0" x1="65" y1="117.5" x2="132" y2="117.5"/>
<line class="st0" x1="65" y1="124.5" x2="132" y2="124.5"/>
<line class="st0" x1="65" y1="131.5" x2="97" y2="131.5"/>
<circle class="st2" cx="98.5" cy="94.1" r="19.6"/>
<g>
	<line class="st2" x1="99" y1="83.1" x2="99" y2="105.1"/>
	<line class="st2" x1="109" y1="94.1" x2="88" y2="94.1"/>
</g>
</svg>
