<?xml version="1.0" encoding="utf-8"?>
<!-- Generator: Adobe Illustrator 20.0.0, SVG Export Plug-In . SVG Version: 6.00 Build 0)  -->
<svg version="1.1" id="Layer_1" xmlns="http://www.w3.org/2000/svg" xmlns:xlink="http://www.w3.org/1999/xlink" x="0px" y="0px"
	 viewBox="0 0 30 30" style="enable-background:new 0 0 30 30;" xml:space="preserve">
<style type="text/css">
	.st0{fill:#D5D9DD;}
</style>
<path class="st0" d="M24.4,6.7H5.6C5.3,6.7,5,7,5,7.3v15.4c0,0.4,0.3,0.6,0.6,0.6h18.7c0.4,0,0.6-0.3,0.6-0.6V7.3
	C25.1,7,24.7,6.7,24.4,6.7z M24,7.6l-8.9,6.3c-0.1,0-0.1,0-0.2,0L6.1,7.7l0,0L24,7.6L24,7.6z M6.1,22.4V8.9l8.4,5.9h0.1
	c0.2,0.1,0.4,0.2,0.6,0.2c0.2,0,0.4-0.1,0.6-0.2l0,0l8.3-6v13.5H6.1z"/>
</svg>
