<?xml version="1.0" encoding="utf-8"?>
<!-- Generator: Adobe Illustrator 19.0.1, SVG Export Plug-In . SVG Version: 6.00 Build 0)  -->
<svg version="1.1" id="Layer_1" xmlns="http://www.w3.org/2000/svg" xmlns:xlink="http://www.w3.org/1999/xlink" x="0px" y="0px"
	 viewBox="-490 342 30 30" style="enable-background:new -490 342 30 30;" xml:space="preserve">
<style type="text/css">
	.st0{display:none;}
	.st1{display:inline;fill:#D5D9DD;}
	.st2{fill:#D5D9DD;}
	.st3{fill:#F7F8F9;}
</style>
<g>
	<path class="st2" d="M-475,357.5c3.3,0,6.1-2.8,6.1-6.1c0-3.4-2.7-6.1-6.1-6.1c-3.4,0-6.1,2.7-6.1,6.1
		C-481.1,354.8-478.4,357.5-475,357.5z M-475,346.4c2.7,0,5,2.2,5,5c0,2.8-2.2,5-5,5s-5-2.2-5-5C-480,348.6-477.8,346.4-475,346.4z"
		/>
	<path class="st2" d="M-466.8,361.4c-1.6-2.1-4.5-3.1-8.2-3.1c-3.7,0-6.5,1-8.2,3.1c-2.4,2.9-1.6,6.7-1.6,6.9l0.1,0.4h19.6l-0.1-0.4
		C-465.1,368.1-464.4,364.3-466.8,361.4z M-466,367.6h-17.7c-0.1-1-0.2-3.5,1.4-5.5c1.5-1.8,3.9-2.7,7.4-2.7s5.9,0.9,7.4,2.7
		C-465.8,364-465.9,366.6-466,367.6z"/>
</g>
</svg>
