<?xml version="1.0" encoding="utf-8"?>
<!-- Generator: Adobe Illustrator 20.0.0, SVG Export Plug-In . SVG Version: 6.00 Build 0)  -->
<svg version="1.1" id="Layer_1" xmlns="http://www.w3.org/2000/svg" xmlns:xlink="http://www.w3.org/1999/xlink" x="0px" y="0px"
	 viewBox="0 0 30 30" style="enable-background:new 0 0 30 30;" xml:space="preserve">
<style type="text/css">
	.st0{fill:#D5D9DD;}
</style>
<g>
	<g>
		<path class="st0" d="M7.1,24.4c-0.3,0-0.7-0.1-1-0.3C5.4,23.7,5,23.1,5,22.3V7.6c0-1.1,0.9-2,2-2h16c1.1,0,2,0.9,2,2v11.5
			c0,1.1-0.9,2-2,2h-10l-4.9,2.9C7.8,24.3,7.4,24.4,7.1,24.4z M7.1,6.6c-0.6,0-1,0.4-1,1v14.8c0,0.3,0.2,0.7,0.5,0.8s0.7,0.2,1,0
			l5.1-3H23c0.5,0,1-0.4,1-1V7.6c0-0.5-0.4-1-1-1H7.1z"/>
	</g>
</g>
</svg>
