<?xml version="1.0" encoding="utf-8"?>
<!-- Generator: Adobe Illustrator 19.0.1, SVG Export Plug-In . SVG Version: 6.00 Build 0)  -->
<svg version="1.1" id="Layer_1" xmlns="http://www.w3.org/2000/svg" xmlns:xlink="http://www.w3.org/1999/xlink" x="0px" y="0px"
	 viewBox="-330 422 30 30" style="enable-background:new -330 422 30 30;" xml:space="preserve">
<style type="text/css">
	.st0{display:none;}
	.st1{display:inline;fill:#D5D9DD;}
	.st2{fill:#D5D9DD;}
	.st3{fill:#F7F8F9;}
</style>
<g class="st0">
	<rect x="-316" y="429" class="st1" width="3" height="1"/>
</g>
<g class="st0">
	<rect x="-305" y="429" class="st1" width="3" height="1"/>
</g>
<g>
	<path class="st3" d="M-305.6,426.4h-2.8v-1h-1v1h-11.2v-1h-1v1h-2.7c-0.9,0-1.7,0.8-1.7,1.7v18.7c0,0.9,0.8,1.7,1.7,1.7h18.7
		c0.9,0,1.7-0.8,1.7-1.7v-18.7C-303.9,427.1-304.8,426.4-305.6,426.4z M-325.1,428.1c0-0.3,0.3-0.7,0.7-0.7h2.7v1.7h1v-1.7h11.2v1.7
		h1v-1.7h2.8c0.4,0,0.7,0.3,0.7,0.7v3.5h-20.1V428.1z M-304.9,447c0,0.3-0.3,0.7-0.7,0.7h-18.7c-0.4,0-0.7-0.3-0.7-0.7v-14.2h20.1
		V447z"/>
	<path class="st3" d="M-319,434.9h-3.2v3.3h3.2V434.9z M-320,437.3h-1.2v-1.3h1.2V437.3z"/>
	<path class="st3" d="M-319,438.8h-3.2v3.2h3.2V438.8z M-320,440.9h-1.2v-1.2h1.2V440.9z"/>
	<path class="st3" d="M-319,442.5h-3.2v3.2h3.2V442.5z M-320,444.6h-1.2v-1.2h1.2V444.6z"/>
	<path class="st3" d="M-307.4,434.9h-10.5v3.3h10.5V434.9z M-308.4,437.3h-8.5v-1.3h8.5V437.3z"/>
	<path class="st3" d="M-307.4,438.8h-10.5v3.2h10.5V438.8z M-308.4,440.9h-8.5v-1.2h8.5V440.9z"/>
	<path class="st3" d="M-307.4,442.5h-10.5v3.2h10.5V442.5z M-308.4,444.6h-8.5v-1.2h8.5V444.6z"/>
</g>
</svg>
