<?xml version="1.0" encoding="utf-8"?>
<!-- Generator: Adobe Illustrator 19.0.1, SVG Export Plug-In . SVG Version: 6.00 Build 0)  -->
<svg version="1.1" id="Layer_1" xmlns="http://www.w3.org/2000/svg" xmlns:xlink="http://www.w3.org/1999/xlink" x="0px" y="0px"
	 viewBox="-90 342 30 30" style="enable-background:new -90 342 30 30;" xml:space="preserve">
<style type="text/css">
	.st0{display:none;}
	.st1{display:inline;fill:#D5D9DD;}
	.st2{fill:#D5D9DD;}
	.st3{fill:#F7F8F9;}
</style>
<g>
	<path class="st2" d="M-66.1,348.6h-17.8c-0.6,0-1.1,0.5-1.1,1v14.8c0,0.3,0.1,0.6,0.4,0.7c0.2,0.2,0.5,0.3,0.8,0.3h17.8
		c0.6,0,1.1-0.5,1.1-1v-14.8C-65,349.1-65.5,348.6-66.1,348.6z M-83.9,349.6h17.8c0.1,0,0.1,0,0.1,0v14.2l-4.8-4.9
		c-0.6-0.6-1.5-0.6-2.1-0.1l-0.8,0.7c-0.2,0.2-0.6,0.2-0.8,0l-2.5-2.2c-0.3-0.3-0.7-0.4-1.2-0.4c-0.4,0-0.8,0.2-1.1,0.6l-4.8,6.1
		v-14C-84,349.6-84,349.6-83.9,349.6z M-66.8,364.5h-16.8l5-6.3c0.1-0.1,0.2-0.2,0.4-0.2s0.3,0,0.4,0.1l2.5,2.2c0.6,0.5,1.4,0.5,2,0
		l0.8-0.7c0.2-0.2,0.6-0.2,0.8,0L-66.8,364.5z"/>
	<path class="st2" d="M-79.8,355.9c1.1,0,2.1-0.9,2.1-2.1c0-1.1-0.9-2.1-2.1-2.1c-1.1,0-2.1,0.9-2.1,2.1
		C-81.8,355-80.9,355.9-79.8,355.9z M-79.8,352.7c0.6,0,1.1,0.5,1.1,1.1s-0.5,1.1-1.1,1.1s-1.1-0.5-1.1-1.1S-80.4,352.7-79.8,352.7z
		"/>
</g>
</svg>
