<?xml version="1.0" encoding="utf-8"?>
<!-- Generator: Adobe Illustrator 19.0.1, SVG Export Plug-In . SVG Version: 6.00 Build 0)  -->
<svg version="1.1" id="Layer_1" xmlns="http://www.w3.org/2000/svg" xmlns:xlink="http://www.w3.org/1999/xlink" x="0px" y="0px"
	 viewBox="0 0 600 500" style="enable-background:new 0 0 600 500;" xml:space="preserve">
<style type="text/css">
	.st0{fill:#DCDFE2;}
	.st1{fill:#64B6EE;}
	.st2{fill:#0F76A6;}
	.st3{fill:#5CC2A5;}
	.st4{fill:#E1E5EA;}
	.st5{fill:#D4D7DA;}
	.st6{fill:#FFFFFF;}
	.st7{fill:#316A89;}
	.st8{fill:#5CCED9;}
</style>
<g>
	<rect x="70.6" y="66.7" class="st0" width="35.4" height="384.8"/>
</g>
<g>
	<rect x="393.9" y="66.7" class="st0" width="35.4" height="226.3"/>
</g>
<g>
	<rect x="138" y="158.1" class="st1" width="224.6" height="156.7"/>
</g>
<g>
	<rect x="70.6" y="50.2" class="st2" width="358.8" height="16.5"/>
</g>
<g>
	<rect x="138" y="372.4" class="st4" width="195" height="12.5"/>
</g>
<g>
	<rect x="138" y="121.9" class="st5" width="224.6" height="16.5"/>
</g>
<g>
	<rect x="138" y="391.5" class="st4" width="195" height="12.5"/>
</g>
<g>
	<rect x="138" y="411" class="st4" width="160.5" height="12.5"/>
</g>
<g>
	<path class="st6" d="M212.7,228.8c-12.5,0-22.7-10.2-22.7-22.7c0-12.5,10.2-22.7,22.7-22.7c12.5,0,22.7,10.2,22.7,22.7
		C235.4,218.6,225.3,228.8,212.7,228.8z M212.7,195.6c-5.8,0-10.5,4.7-10.5,10.5c0,5.8,4.7,10.5,10.5,10.5s10.5-4.7,10.5-10.5
		C223.2,200.3,218.5,195.6,212.7,195.6z"/>
</g>
<g>
	<path class="st6" d="M213.4,289.2l-35.6-32.3c-2.5-2.3-2.7-6.1-0.4-8.6c2.3-2.5,6.1-2.7,8.6-0.4l27.4,24.8l75.4-68.3l33.5,30.3
		c2.5,2.3,2.7,6.1,0.4,8.6c-2.3,2.5-6.1,2.7-8.6,0.4l-25.3-22.9L213.4,289.2z"/>
</g>
<g>
	<rect x="139.7" y="338.8" class="st2" width="130.6" height="17.4"/>
</g>
<g>
	<circle class="st2" cx="250.3" cy="93.1" r="15.1"/>
</g>
<path class="st6" d="M520.6,453H331c-5.7,0-10.2-4.6-10.2-10.2V286.2c0-5.7,4.6-10.2,10.2-10.2h189.6c5.7,0,10.2,4.6,10.2,10.2
	v156.6C530.8,448.4,526.2,453,520.6,453z"/>
<path class="st2" d="M534,293.7c0-3.7-3-6.7-6.7-6.7H339.7c-3.7,0-6.7,3-6.7,6.7v153.6c0,3.7,3,6.7,6.7,6.7h187.6
	c3.7,0,6.7-3,6.7-6.7V293.7z M523.7,297l-88.8,63.5c-0.6,0.2-0.9,0.3-1.5,0.1L344,297.7V297H523.7z M344,443V310l83.9,59.1l0.3,0.3
	c1.8,1,3.8,1.5,5.9,1.5s4.1-0.5,5.9-1.5l-0.2-0.1l83.2-59.7V443H344z"/>
<g>
	<rect x="43" y="467" class="st0" width="514" height="10"/>
</g>
</svg>
