<?xml version="1.0" encoding="utf-8"?>
<!-- Generator: Adobe Illustrator 19.0.1, SVG Export Plug-In . SVG Version: 6.00 Build 0)  -->
<svg version="1.1" id="Layer_1" xmlns="http://www.w3.org/2000/svg" xmlns:xlink="http://www.w3.org/1999/xlink" x="0px" y="0px"
	 viewBox="0 0 200 200" style="enable-background:new 0 0 200 200;" xml:space="preserve">
<style type="text/css">
	.st0{fill:none;stroke:#CAE2EF;stroke-width:3;stroke-miterlimit:10;}
	.st1{fill:#DCEEF7;}
	.st2{fill:#FFFFFF;stroke:#64B6EE;stroke-width:2;stroke-miterlimit:10;}
	.st3{fill:none;stroke:#64B6EE;stroke-width:2;stroke-miterlimit:10;}
</style>
<line class="st0" x1="66" y1="126.5" x2="133" y2="126.5"/>
<circle class="st1" cx="100" cy="97" r="67.1"/>
<path class="st2" d="M110.3,152.8H58.9c-1.7,0-3-1.3-3-3V42c0-1.7,1.3-3,3-3h81.2c1.7,0,3,1.3,3,3v87.8"/>
<path class="st0" d="M91,111.3H68.5c-1.7,0-3-1.4-3-3.2V68.9c0-1.8,1.3-3.2,3-3.2h61.6c1.7,0,3,1.4,3,3.2v39.2c0,1.8-1.3,3.2-3,3.2
	h-21.2"/>
<circle class="st2" cx="99.5" cy="94.1" r="19.6"/>
<g>
	<line class="st2" x1="100" y1="83.1" x2="100" y2="105.1"/>
	<line class="st2" x1="110" y1="94.1" x2="89" y2="94.1"/>
</g>
<path class="st2" d="M132.9,126.2h-21.5c-0.8,0-1.4,0.6-1.4,1.4v17.1v22.8c0,0.8,10.2-10.6,11-10.6h28.6h10.1c0.8,0,1.4-0.6,1.4-1.4
	v-27.9c0-0.8-0.6-1.4-1.4-1.4H132.9z"/>
<path class="st0" d="M73,57.8h-4c-1.7,0-3-1.3-3-3v-4c0-1.7,1.3-3,3-3h4c1.7,0,3,1.3,3,3v4C76,56.4,74.7,57.8,73,57.8z"/>
<line class="st0" x1="80" y1="49.5" x2="111" y2="49.5"/>
<line class="st0" x1="80" y1="54.5" x2="102" y2="54.5"/>
<line class="st0" x1="66" y1="119.5" x2="133" y2="119.5"/>
<line class="st0" x1="66" y1="126.5" x2="100" y2="126.5"/>
<line class="st0" x1="66" y1="137.5" x2="80" y2="137.5"/>
<line class="st0" x1="84" y1="137.5" x2="98" y2="137.5"/>
</svg>
