<?xml version="1.0" encoding="utf-8"?>
<!-- Generator: Adobe Illustrator 19.0.1, SVG Export Plug-In . SVG Version: 6.00 Build 0)  -->
<svg version="1.1" id="Layer_1" xmlns="http://www.w3.org/2000/svg" xmlns:xlink="http://www.w3.org/1999/xlink" x="0px" y="0px"
	 viewBox="0 0 150 150" style="enable-background:new 0 0 150 150;" xml:space="preserve">
<style type="text/css">
	.st0{fill:#1687E7;}
	.st1{fill:#2DCFFC;}
	.st2{fill:#33D383;}
	.st3{fill:#1EADFC;}
	.st4{fill:#FC8231;}
	.st5{fill:#FC703A;}
	.st6{fill:#5CC1A4;}
	.st7{fill:#F27821;}
	.st8{fill:#2C4355;}
	.st9{fill:#269E62;}
	.st10{fill:#FECF37;}
	.st11{fill:#F9B60D;}
	.st12{fill:#229BBD;}
	.st13{fill:#F6F8FB;}
	.st14{fill:#ECF0F2;}
	.st15{fill:#D1D9E0;}
	.st16{fill:#AFB0B4;}
	.st17{fill:#5C5B5E;}
	.st18{fill:#FFFFFF;}
</style>
<circle class="st2" cx="76.4" cy="74" r="70.1"/>
<g>
	<path class="st18" d="M76.5,68.1c7.1,0,13.2-6.1,13.2-13.2S84,41.7,76.5,41.7c-7.5,0-13.2,6.1-13.2,13.2S69.4,68.1,76.5,68.1z
		 M76.5,45.7c5.3,0,9.6,4.3,9.6,9.6c0,5.3-4.3,9.6-9.6,9.6c-5.3,0-9.6-4.3-9.6-9.6C66.9,49.9,71.1,45.7,76.5,45.7z"/>
	<path class="st18" d="M74.3,61.3c1.1,0,2.8-1.8,9.6-8.5l-2.5-2.5c-2.1,2.1-5,5-6.8,6.8l-3.2-3.2L69,56.3l4.3,4.3
		C73.6,61,74,61.3,74.3,61.3z"/>
	<rect x="60.4" y="85.7" class="st18" width="32.4" height="3.7"/>
	<rect x="60.4" y="93.1" class="st18" width="32.4" height="3.1"/>
	<rect x="60.4" y="99.9" class="st18" width="17.9" height="3.7"/>
	<path class="st18" d="M106,36.3c0-2.2-1.7-3.9-3.9-3.9H50.8c-2.2,0-3.9,1.7-3.9,3.9v75.4c0,2.2,1.7,3.9,3.9,3.9h51.3
		c2.2,0,3.9-1.7,3.9-3.9V36.3z M51.1,35.5h51.5c0.4,0,0.1,0.3,0.1,0.7v38.4H49.9V36.2C49.9,35.8,50.7,35.5,51.1,35.5z M102.5,112.8
		H51.1c-0.4,0-1.1-0.7-1.1-1.1V78h52.7v33.7C102.6,112.1,102.9,112.8,102.5,112.8z"/>
</g>
</svg>
