<?xml version="1.0" encoding="utf-8"?>
<!-- Generator: Adobe Illustrator 19.0.1, SVG Export Plug-In . SVG Version: 6.00 Build 0)  -->
<svg version="1.1" id="Layer_1" xmlns="http://www.w3.org/2000/svg" xmlns:xlink="http://www.w3.org/1999/xlink" x="0px" y="0px"
	 viewBox="0 0 60 60" style="enable-background:new 0 0 60 60;" xml:space="preserve">
<style type="text/css">
	.st0{fill:#5CC1A4;}
	.st1{fill:#FFFFFF;}
	.st2{fill:#2C4355;}
</style>
<g>
	<path class="st0" d="M50.8,50H9.2c-1.1,0-2-0.9-2-2V12c0-1.1,0.9-2,2-2h41.6c1.1,0,2,0.9,2,2V48C52.8,49.1,51.9,50,50.8,50z"/>
	<path class="st1" d="M48.5,13.6h-37c-0.7,0-1.3,0.6-1.3,1.3v30.4c0,0.7,0.6,1.3,1.3,1.3h37c0.7,0,1.3-0.6,1.3-1.3V14.9
		C49.8,14.2,49.2,13.6,48.5,13.6z M47.8,15.5L30.2,28.1c-0.1,0-0.2,0-0.3,0L12.2,15.6v-0.1H47.8z M12.2,44.6V18l16.6,11.7l0.1,0.1
		c0.4,0.2,0.8,0.3,1.2,0.3c0.4,0,0.8-0.1,1.2-0.3l0,0L47.8,18v26.7H12.2z"/>
</g>
</svg>
