<?xml version="1.0" encoding="utf-8"?>
<!-- Generator: Adobe Illustrator 19.0.1, SVG Export Plug-In . SVG Version: 6.00 Build 0)  -->
<svg version="1.1" id="Layer_1" xmlns="http://www.w3.org/2000/svg" xmlns:xlink="http://www.w3.org/1999/xlink" x="0px" y="0px"
	 viewBox="0 0 30 30" style="enable-background:new 0 0 30 30;" xml:space="preserve">
<g style="display:none;">
	<rect x="8" y="11" style="display:inline;fill:#D5D9DD;" width="3" height="1"/>
</g>
<g style="display:none;">
	<rect x="19" y="11" style="display:inline;fill:#D5D9DD;" width="3" height="1"/>
</g>
<g>
	<path style="fill:#D5D9DD;" d="M21.46,3.5H8.54C7.69,3.5,7,4.19,7,5.04v19.92c0,0.85,0.69,1.54,1.54,1.54h12.91
		c0.85,0,1.54-0.69,1.54-1.54V5.04C23,4.19,22.31,3.5,21.46,3.5z M22,24.96c0,0.3-0.24,0.54-0.54,0.54H8.54
		C8.24,25.5,8,25.26,8,24.96V16.5h14V24.96z M22,15.5H8V5.04C8,4.74,8.24,4.5,8.54,4.5h12.92c0.3,0,0.54,0.24,0.54,0.54V15.5z"/>
	<path style="fill:#D5D9DD;" d="M15,6.22c-2.06,0-3.73,1.67-3.73,3.73s1.67,3.73,3.73,3.73s3.73-1.67,3.73-3.73S17.06,6.22,15,6.22z
		 M15,12.68c-1.51,0-2.73-1.23-2.73-2.73c0-1.51,1.23-2.73,2.73-2.73s2.73,1.23,2.73,2.73C17.73,11.46,16.51,12.68,15,12.68z"/>
	<path style="fill:#D5D9DD;" d="M14.62,10.5l-0.9-0.9l-0.71,0.71l1.25,1.25c0.1,0.1,0.18,0.17,0.28,0.17c0.28,0,0.8-0.52,2.67-2.43
		l-0.71-0.7C15.94,9.18,15.08,10.04,14.62,10.5z"/>
	<rect x="11" y="18.5" style="fill:#D5D9DD;" width="9" height="1"/>
	<rect x="11" y="20.5" style="fill:#D5D9DD;" width="9" height="1"/>
	<rect x="11" y="22.5" style="fill:#D5D9DD;" width="5" height="1"/>
</g>
</svg>
