<?xml version="1.0" encoding="utf-8"?>
<!-- Generator: Adobe Illustrator 19.0.1, SVG Export Plug-In . SVG Version: 6.00 Build 0)  -->
<svg version="1.1" id="Layer_1" xmlns="http://www.w3.org/2000/svg" xmlns:xlink="http://www.w3.org/1999/xlink" x="0px" y="0px"
	 viewBox="0 0 200 200" style="enable-background:new 0 0 200 200;" xml:space="preserve">
<style type="text/css">
	.st0{fill:none;stroke:#CAE2EF;stroke-width:3;stroke-miterlimit:10;}
	.st1{fill:#DCEEF7;}
	.st2{fill:#FFFFFF;stroke:#64B6EE;stroke-width:2;stroke-miterlimit:10;}
	.st3{fill:none;stroke:#64B6EE;stroke-width:2;stroke-miterlimit:10;}
</style>
<circle class="st1" cx="99" cy="97" r="94.6"/>
<path class="st2" d="M113.5,175.6H41c-2.3,0-4.2-1.9-4.2-4.2v-152c0-2.3,1.9-4.2,4.2-4.2h114.5c2.3,0,4.2,1.9,4.2,4.2v123.8"/>
<path class="st0" d="M75.7,107.7H54.6c-2.3,0-4.2-1.9-4.2-4.2V51.2c0-2.3,1.9-4.2,4.2-4.2h86.9c2.3,0,4.2,1.9,4.2,4.2v52.3
	c0,2.3-1.9,4.2-4.2,4.2H121"/>
<path class="st2" d="M145.3,143.2h-30.3c-1.1,0-2,0.9-2,2v24.1v15.2c0,1.1,0.9,2,2,2h54h14.3c1.1,0,2-0.9,2-2v-39.3c0-1.1-0.9-2-2-2
	H145.3z"/>
<path class="st3" d="M113.1,143.2l35.3,21.1c0.5,0.3,1.1,0.3,1.6,0l35.3-21.1"/>
<line class="st0" x1="51" y1="37.5" x2="86" y2="37.5"/>
<line class="st0" x1="51" y1="125.5" x2="146" y2="125.5"/>
<line class="st0" x1="51" y1="135.5" x2="146" y2="135.5"/>
<line class="st0" x1="51" y1="145.5" x2="96" y2="145.5"/>
<circle class="st2" cx="98.3" cy="93" r="27.7"/>
<g>
	<line class="st2" x1="99" y1="77.4" x2="99" y2="108.5"/>
	<line class="st2" x1="113.1" y1="93" x2="83.5" y2="93"/>
</g>
</svg>
