<?xml version="1.0" encoding="utf-8"?>
<!-- Generator: Adobe Illustrator 19.0.1, SVG Export Plug-In . SVG Version: 6.00 Build 0)  -->
<svg version="1.1" id="Layer_1" xmlns="http://www.w3.org/2000/svg" xmlns:xlink="http://www.w3.org/1999/xlink" x="0px" y="0px"
	 viewBox="0 0 45 45" style="enable-background:new 0 0 45 45;" xml:space="preserve">
<style type="text/css">
	.st0{fill:#44ADE7;}
</style>
<g>
	<path class="st0" d="M43.6,19.4c-0.7-1-3.9-5.4-3.9-5.4c-0.3-0.5-0.8-0.5-1.2-0.2s-0.5,0.8-0.2,1.2l2.9,4.2H20.1
		c-0.5,0-0.9,0.5-0.9,0.9s0.5,0.9,0.9,0.9h21.3l-3.1,4.8c-0.3,0.5-0.2,0.9,0.3,1.2c0.2,0.2,0.3,0.2,0.5,0.2c0.3,0,0.6-0.2,0.8-0.5
		c0,0,3.4-5.2,3.9-6S44.1,20.1,43.6,19.4z"/>
	<path class="st0" d="M30.6,31.8c0,0.3,0,0.5,0,0.6H9.8c-0.9,0-1.9,0.5-2.5,1.2l-4.5,3.5v-3.1V7.4C2.8,7.1,3,6.9,3,6.8h27.6
		c0,0.2,0.2,0.3,0.2,0.6v10.2h1.7V7.4c0-1.2-0.8-2.3-1.7-2.3H2.8c-0.9,0-1.7,1.1-1.7,2.3v26.7v4.6c0,0.8,0.5,1.2,0.9,1.2
		c0.2,0,0.5-0.2,0.6-0.3l6-4.8c0.3-0.5,0.8-0.6,1.2-0.6h20.8c1.4,0,1.7-1.1,1.7-2.3v-8.3h-1.7v8.2H30.6z"/>
</g>
</svg>
