<?xml version="1.0" encoding="utf-8"?>
<!-- Generator: Adobe Illustrator 19.0.1, SVG Export Plug-In . SVG Version: 6.00 Build 0)  -->
<svg version="1.1" id="Layer_1" xmlns="http://www.w3.org/2000/svg" xmlns:xlink="http://www.w3.org/1999/xlink" x="0px" y="0px"
	 viewBox="-184 186 30 30" style="enable-background:new -184 186 30 30;" xml:space="preserve">
<style type="text/css">
	.st0{display:none;}
	.st1{display:inline;fill:#D5D9DD;}
	.st2{fill:#D5D9DD;}
	.st3{fill:#E8E9EA;}
	.st4{fill:#D5DADF;}
</style>
<g class="st0">
	<rect x="-210" y="233" class="st1" width="3" height="1"/>
</g>
<g class="st0">
	<rect x="-199" y="233" class="st1" width="3" height="1"/>
</g>
<g>
	<path class="st2" d="M-246.5,225.5h-12.9c-0.9,0-1.6,0.7-1.6,1.5v20c0,0.9,0.7,1.5,1.5,1.5h12.9c0.9,0,1.5-0.7,1.5-1.5v-20
		C-245,226.2-245.7,225.5-246.5,225.5z M-246,247c0,0.3-0.2,0.5-0.5,0.5h-12.9c-0.3,0-0.5-0.2-0.5-0.5v-8.5h14L-246,247L-246,247z
		 M-246,237.5h-14V227c0-0.3,0.2-0.5,0.5-0.5h12.9c0.3,0,0.5,0.2,0.5,0.5L-246,237.5L-246,237.5z"/>
	<path class="st2" d="M-253,228.2c-2.1,0-3.7,1.7-3.7,3.7s1.7,3.7,3.7,3.7s3.7-1.7,3.7-3.7S-250.9,228.2-253,228.2z M-253,234.7
		c-1.5,0-2.7-1.2-2.7-2.7s1.2-2.7,2.7-2.7s2.7,1.2,2.7,2.7S-251.5,234.7-253,234.7z"/>
	<path class="st2" d="M-253.4,232.5l-0.9-0.9l-0.7,0.7l1.2,1.2c0.1,0.1,0.2,0.2,0.3,0.2c0.3,0,0.8-0.5,2.7-2.4l-0.7-0.7
		C-252.1,231.2-252.9,232-253.4,232.5z"/>
	<rect x="-257" y="240.5" class="st2" width="9" height="1"/>
	<rect x="-257" y="242.5" class="st2" width="9" height="1"/>
	<rect x="-257" y="244.5" class="st2" width="5" height="1"/>
</g>
<g>
	<g>
		<path class="st2" d="M-205.5,196.4h-6c-1,0-1.8-0.8-1.8-1.8v-6c0-1,0.8-1.8,1.8-1.8h6c1,0,1.8,0.8,1.8,1.8v6
			C-203.7,195.6-204.5,196.4-205.5,196.4z M-211.5,187.8c-0.4,0-0.8,0.4-0.8,0.8v6c0,0.4,0.4,0.8,0.8,0.8h6c0.4,0,0.8-0.4,0.8-0.8
			v-6c0-0.4-0.4-0.8-0.8-0.8C-205.5,187.8-211.5,187.8-211.5,187.8z"/>
	</g>
	<g>
		<path class="st2" d="M-194.5,196.4h-6c-1,0-1.8-0.8-1.8-1.8v-6c0-1,0.8-1.8,1.8-1.8h6c1,0,1.8,0.8,1.8,1.8v6
			C-192.7,195.6-193.5,196.4-194.5,196.4z M-200.5,187.8c-0.4,0-0.8,0.4-0.8,0.8v6c0,0.4,0.4,0.8,0.8,0.8h6c0.4,0,0.8-0.4,0.8-0.8
			v-6c0-0.4-0.4-0.8-0.8-0.8C-194.5,187.8-200.5,187.8-200.5,187.8z"/>
	</g>
	<g>
		<path class="st2" d="M-194.5,207.2h-6c-1,0-1.8-0.8-1.8-1.8v-6c0-1,0.8-1.8,1.8-1.8h6c1,0,1.8,0.8,1.8,1.8v6
			C-192.7,206.4-193.5,207.2-194.5,207.2z M-200.5,198.6c-0.4,0-0.8,0.4-0.8,0.8v6c0,0.4,0.4,0.8,0.8,0.8h6c0.4,0,0.8-0.4,0.8-0.8
			v-6c0-0.4-0.4-0.8-0.8-0.8C-194.5,198.6-200.5,198.6-200.5,198.6z"/>
	</g>
	<g>
		<path class="st2" d="M-205.5,207.2h-6c-1,0-1.8-0.8-1.8-1.8v-6c0-1,0.8-1.8,1.8-1.8h6c1,0,1.8,0.8,1.8,1.8v6
			C-203.7,206.4-204.5,207.2-205.5,207.2z M-211.5,198.6c-0.4,0-0.8,0.4-0.8,0.8v6c0,0.4,0.4,0.8,0.8,0.8h6c0.4,0,0.8-0.4,0.8-0.8
			v-6c0-0.4-0.4-0.8-0.8-0.8C-205.5,198.6-211.5,198.6-211.5,198.6z"/>
	</g>
</g>
<g>
	<path class="st2" d="M-194.1,272h-17.8c-0.6,0-1.1,0.5-1.1,1v14.8c0,0.3,0.1,0.6,0.4,0.7c0.2,0.2,0.5,0.3,0.8,0.3h17.8
		c0.6,0,1.1-0.5,1.1-1V273C-193,272.5-193.5,272-194.1,272z M-211.9,273h17.8c0.1,0,0.1,0,0.1,0v14.2l-4.8-4.9
		c-0.6-0.6-1.5-0.6-2.1-0.1l-0.8,0.7c-0.2,0.2-0.6,0.2-0.8,0l-2.5-2.2c-0.3-0.3-0.7-0.4-1.2-0.4c-0.4,0-0.8,0.2-1.1,0.6l-4.8,6.1
		v-14C-212,273-212,273-211.9,273z M-194.7,287.9h-16.8l5-6.3c0.1-0.1,0.2-0.2,0.4-0.2c0.2,0,0.3,0,0.4,0.1l2.5,2.2
		c0.6,0.5,1.4,0.5,2,0l0.8-0.7c0.2-0.2,0.6-0.2,0.8,0L-194.7,287.9z"/>
	<path class="st2" d="M-207.8,279.3c1.1,0,2.1-0.9,2.1-2.1c0-1.1-0.9-2.1-2.1-2.1c-1.1,0-2.1,0.9-2.1,2.1
		C-209.8,278.4-208.9,279.3-207.8,279.3z M-207.8,276.1c0.6,0,1.1,0.5,1.1,1.1c0,0.6-0.5,1.1-1.1,1.1c-0.6,0-1.1-0.5-1.1-1.1
		C-208.9,276.6-208.4,276.1-207.8,276.1z"/>
</g>
<g>
	<g>
		<polygon class="st2" points="-160.3,245.4 -173.1,245.4 -173.1,228.6 -160.3,228.6 -160.3,233.8 -161.2,233.8 -161.2,229.5 
			-172.2,229.5 -172.2,244.5 -161.2,244.5 -161.2,240.2 -160.3,240.2 		"/>
	</g>
	<g>
		<path class="st2" d="M-156.8,240.7c-0.1,0-0.2,0-0.3-0.1c-0.2-0.2-0.2-0.5,0-0.7l2.4-2.4h-11.6c-0.3,0-0.5-0.2-0.5-0.5
			s0.2-0.5,0.5-0.5h12.7c0.2,0,0.4,0.1,0.4,0.3c0.1,0.2,0,0.4-0.1,0.5l-3.2,3.2C-156.5,240.6-156.7,240.7-156.8,240.7z"/>
	</g>
	<g>
		<path class="st2" d="M-153.6,237.5c-0.1,0-0.2,0-0.3-0.1l-3.2-3.2c-0.2-0.2-0.2-0.5,0-0.7c0.2-0.2,0.5-0.2,0.7,0l3.2,3.2
			c0.2,0.2,0.2,0.5,0,0.7C-153.4,237.4-153.5,237.5-153.6,237.5z"/>
	</g>
</g>
<g>
	<polygon class="st3" points="-206.1,246 -207.5,244.6 -200.2,237.3 -207.5,230 -206.1,228.6 -197.4,237.3 	"/>
</g>
<g>
	<path class="st4" d="M-169,187.1c-7.6,0-13.9,6.2-13.9,13.9c0,7.6,6.2,13.9,13.9,13.9s13.9-6.2,13.9-13.9
		C-155.1,193.3-161.4,187.1-169,187.1z M-169,213.5c-6.9,0-12.5-5.6-12.5-12.5c0-6.9,5.6-12.5,12.5-12.5s12.5,5.6,12.5,12.5
		C-156.5,207.9-162.1,213.5-169,213.5z"/>
	<path class="st4" d="M-164.5,193.1l-0.7,1.1c2.4,1.4,3.9,4,3.9,6.8c0,1.4-0.4,2.8-1.1,4l1.1,0.7c0.8-1.4,1.3-3,1.3-4.7
		C-159.9,197.8-161.7,194.7-164.5,193.1z"/>
	<path class="st4" d="M-169,208.8c-4.3,0-7.8-3.5-7.8-7.8c0-0.8,0.2-1.7,0.4-2.5l0.4,0.9l1.2-0.5l-1.2-2.8l-3,0.7l0.3,1.3l1.2-0.3
		c-0.4,1-0.6,2.1-0.6,3.2c0,5,4.1,9.1,9.1,9.1c1.7,0,3.3-0.5,4.7-1.3l-0.7-1.1C-166.2,208.4-167.6,208.8-169,208.8z"/>
	<polygon class="st4" points="-168.3,194.4 -169.7,194.4 -169.7,201.3 -162.9,208 -161.9,207.1 -168.3,200.7 	"/>
</g>
<g>
	<path class="st2" d="M-149,158.1C-149,158.1-149,158.1-149,158.1C-149,158.1-149,158.1-149,158.1C-149,158-149,158-149,158.1
		C-149,158-149,158-149,158.1C-149,158-149,158-149,158.1C-149,158-149,158-149,158.1c0-0.1,0-0.1,0-0.1c0,0,0,0,0,0c0,0,0,0,0,0
		c0,0,0,0,0,0c0,0,0,0,0,0c0,0,0,0,0,0c0,0,0,0,0,0c0,0,0,0,0,0l-0.9-1.3c-0.1-0.1-0.2-0.1-0.3,0c-0.1,0.1-0.1,0.2,0,0.3l0.7,1h-4.9
		c-0.1,0-0.2,0.1-0.2,0.2s0.1,0.2,0.2,0.2h4.9l-0.7,1.1c-0.1,0.1,0,0.2,0.1,0.3c0,0,0.1,0,0.1,0c0.1,0,0.1,0,0.2-0.1L-149,158.1
		C-149,158.1-149,158.1-149,158.1C-149,158.1-149,158.1-149,158.1C-149,158.1-149,158.1-149,158.1C-149,158.1-149,158.1-149,158.1
		C-149,158.1-149,158.1-149,158.1z"/>
	<path class="st2" d="M-152,160.7c0,0.1,0,0.1,0,0.1l-4.8,0c-0.2,0-0.4,0.1-0.6,0.3l-1,0.8v-0.7V155c0-0.1,0-0.1,0-0.1h6.4
		c0,0,0,0.1,0,0.1v2.3h0.4V155c0-0.3-0.2-0.5-0.4-0.5h-6.4c-0.2,0-0.4,0.2-0.4,0.5v6.2v1.1c0,0.2,0.1,0.3,0.2,0.3c0,0,0.1,0,0.1-0.1
		l1.4-1.1c0.1-0.1,0.2-0.2,0.3-0.2l4.8,0c0.3,0,0.4-0.2,0.4-0.5v-1.9h-0.4V160.7z"/>
</g>
<rect x="-149" y="181.6" class="st4" width="41.9" height="42.7"/>
</svg>
