<?xml version="1.0" encoding="utf-8"?>
<!-- Generator: Adobe Illustrator 19.0.1, SVG Export Plug-In . SVG Version: 6.00 Build 0)  -->
<svg version="1.1" id="Layer_1" xmlns="http://www.w3.org/2000/svg" xmlns:xlink="http://www.w3.org/1999/xlink" x="0px" y="0px"
	 viewBox="-54 136 30 30" style="enable-background:new -54 136 30 30;" xml:space="preserve">
<style type="text/css">
	.st0{fill:#70D667;}
	.st1{fill:#33D383;}
	.st2{fill:#229BBD;}
	.st3{fill:#D1D9E0;}
	.st4{fill:#FECF37;}
</style>
<g>
	<g>
		<path class="st2" d="M-52.5,151c0-7.4,6.1-13.5,13.5-13.5s13.5,6.1,13.5,13.5s-6.1,13.5-13.5,13.5S-52.5,158.4-52.5,151z
			 M-27.9,151c0-6.1-5-11.1-11.1-11.1s-11.1,5-11.1,11.1s5,11.1,11.1,11.1S-27.9,157.1-27.9,151z"/>
	</g>
</g>
<polygon class="st2" points="-33.5,153.6 -35.2,151.9 -37.8,154.5 -37.8,142.9 -40.2,142.9 -40.2,154.5 -42.8,151.9 -44.5,153.6 
	-39,159.1 "/>
</svg>
