<?xml version="1.0" encoding="utf-8"?>
<!-- Generator: Adobe Illustrator 19.0.1, SVG Export Plug-In . SVG Version: 6.00 Build 0)  -->
<svg version="1.1" id="Layer_1" xmlns="http://www.w3.org/2000/svg" xmlns:xlink="http://www.w3.org/1999/xlink" x="0px" y="0px"
	 viewBox="80 0 30 30" style="enable-background:new 80 0 30 30;" xml:space="preserve">
<style type="text/css">
	.st0{fill:#70D667;}
	.st1{fill:#44BCBC;}
	.st2{fill:#AFAFAF;}
	.st3{fill:#29648C;}
</style>
<g>
	<polygon class="st1" points="99.5,14.2 96.1,17.1 96.1,7.9 93.3,7.9 93.3,17.2 89.8,14.4 88.1,16.7 94.7,22.3 101.4,16.4 	"/>
	<path class="st1" d="M94.7,2.5C87.9,2.5,82.2,8,82.2,15c0,6.8,5.5,12.5,12.5,12.5S107.2,22,107.2,15C107.2,8.2,101.5,2.5,94.7,2.5z
		 M94.7,24.3c-5.1,0-9.3-4.1-9.3-9.3s4.1-9.3,9.3-9.3S104,9.8,104,15S99.8,24.3,94.7,24.3z"/>
</g>
</svg>
