<?xml version="1.0" encoding="utf-8"?>
<!-- Generator: Adobe Illustrator 20.0.0, SVG Export Plug-In . SVG Version: 6.00 Build 0)  -->
<svg version="1.1" id="Layer_1" xmlns="http://www.w3.org/2000/svg" xmlns:xlink="http://www.w3.org/1999/xlink" x="0px" y="0px"
	 viewBox="0 0 40 40" style="enable-background:new 0 0 40 40;" xml:space="preserve">
<style type="text/css">
	.st0{fill:#FFFFFF;}
</style>
<path class="st0" d="M33.6,19l-4-4c-0.5-0.5-1.2-0.5-1.7,0c-0.2,0.2-0.3,0.5-0.3,0.9c0,0.3,0.1,0.5,0.3,0.8l1.9,1.8h-8.5v-8.3
	l1.8,1.9c0.3,0.3,0.6,0.5,1.1,0.3c0.4-0.2,0.6-0.6,0.6-1.1l0,0c0,0,0-0.6-0.3-0.8l-3.9-4c-0.2-0.2-0.5-0.3-0.8-0.3S19.2,6.3,19,6.5
	l-4,4c-0.5,0.5-0.5,1.2,0,1.7c0.2,0.2,0.5,0.3,0.9,0.3c0.3,0,0.7-0.1,0.9-0.3l2-1.9v8.3h-8.6l1.9-1.7c0.3-0.3,0.5-0.7,0.3-1.1
	s-0.6-0.7-1.1-0.7l0,0c0,0-0.6,0.1-0.8,0.3l-4,4c-0.2,0.2-0.3,0.5-0.3,0.8s0.1,0.6,0.3,0.8l4,4c0.5,0.5,1.2,0.5,1.7,0
	c0.2-0.2,0.3-0.5,0.3-0.9c0-0.3-0.1-0.7-0.3-1l-1.9-2h8.6v8.7l-1.8-1.9c-0.3-0.3-0.6-0.5-1.1-0.3c-0.4,0.2-0.6,0.6-0.6,1.1l0,0
	c0,0,0,0.6,0.2,0.8l3.9,4c0.2,0.2,0.5,0.3,0.8,0.3s0.6-0.1,0.8-0.3l4-4c0.5-0.5,0.5-1.2,0-1.7c-0.2-0.2-0.5-0.3-0.9-0.3
	c-0.3,0-0.6,0.1-0.8,0.3l-1.9,1.9V21H30l-2.1,2c-0.3,0.3-0.5,0.6-0.3,1s0.6,0.8,1.1,0.8c0,0,0.7-0.1,0.9-0.3l4-3.9
	c0.2-0.2,0.3-0.5,0.3-0.8C33.9,19.5,33.8,19.2,33.6,19z"/>
</svg>
