<?xml version="1.0" encoding="utf-8"?>
<!-- Generator: Adobe Illustrator 19.0.1, SVG Export Plug-In . SVG Version: 6.00 Build 0)  -->
<svg version="1.1" id="Layer_1" xmlns="http://www.w3.org/2000/svg" xmlns:xlink="http://www.w3.org/1999/xlink" x="0px" y="0px"
	 viewBox="0 0 600 600" style="enable-background:new 0 0 600 600;" xml:space="preserve">
<style type="text/css">
	.st0{fill:#C1C1C1;}
</style>
<g>
	<path class="st0" d="M156.2,176.2c0,24,19.5,43.5,43.5,43.5s43.5-19.5,43.5-43.5s-19.5-43.5-43.5-43.5S156.2,152.3,156.2,176.2z
		 M223.1,176.2c0,12.9-10.5,23.4-23.4,23.4s-23.4-10.5-23.4-23.4s10.5-23.4,23.4-23.4S223.1,163.3,223.1,176.2z"/>
	<path class="st0" d="M359.7,449.6L310,499.3V256.1c0-5.5-5-10-10.5-10s-10.5,4.5-10.5,10v243.2l-49.3-49.7c-3.9-3.9-10-3.9-13.9,0
		c-3.9,3.9-3.8,10.3,0.1,14.2l66.9,66.9c0.2,0.2,0.5,0.5,0.8,0.7c1.6,1.3,3.4,2,5.4,2.2c0,0,0,0.2,0,0.2c0.3,0,0.7,0.3,1,0.3
		c0,0,0,0,0,0c0,0,0,0,0,0c0.1,0,0.1-0.2,0.2-0.2c0.3,0,0.5-0.1,0.8-0.1c0.1,0,0.1-0.1,0.2-0.1c0.3,0,0.5-0.1,0.8-0.1
		c0,0,0.1,0,0.1,0c0.3-0.1,0.6-0.1,0.9-0.2c0,0,0,0.1,0,0.1c0.3-0.1,0.6-0.2,0.9-0.2c0,0,0,0,0,0c0,0,0-0.1,0-0.1
		c0.4-0.2,0.8-0.4,1.2-0.7c0.1,0,0.2-0.1,0.2-0.2c0.4-0.2,0.7-0.5,1.1-0.8c0,0,0.1-0.1,0.1-0.1c0.2-0.2,0.4-0.4,0.6-0.6l66.9-66.9
		c3.9-3.9,3.9-10.3,0-14.2C370,445.7,363.7,445.7,359.7,449.6z"/>
	<path class="st0" d="M487.2,66H112.8C99.9,66,89,75.4,89,87.1v312c0,5.9,2.9,11.5,7.7,15.4c4.3,3.6,10.1,5.4,16.1,5.4H269v-20
		H121.5l104.8-132.2c2.1-2.7,5.2-4.3,8.7-4.6c3.4-0.3,6.5,0.8,9.1,3.1l25,21.8v-26.4l-11.8-10.6c-6.8-5.9-15.3-8.7-24.3-7.9
		c-9,0.8-17.1,5.2-22.7,12.2L109,383.1V87.2c0-0.4,1.8-1.2,3.8-1.2h374.4c2,0,2.8,0.8,2.8,1.2v299.4L388.4,284.1
		c-11.9-12-31-13.1-43.9-2.1h0L330,294.8v27.3l27.3-24.5l0.1,0c4.9-4.2,12.4-4,17,0.6L475.8,400H330v20h157.2
		c12.9,0,22.8-9.2,22.8-20.9v-312C510,75.4,500.1,66,487.2,66z"/>
</g>
</svg>
