<?xml version="1.0" encoding="utf-8"?>
<!-- Generator: Adobe Illustrator 19.0.1, SVG Export Plug-In . SVG Version: 6.00 Build 0)  -->
<svg version="1.1" id="Layer_1" xmlns="http://www.w3.org/2000/svg" xmlns:xlink="http://www.w3.org/1999/xlink" x="0px" y="0px"
	 viewBox="0 0 600 500" style="enable-background:new 0 0 600 500;" xml:space="preserve">
<style type="text/css">
	.st0{fill:#DCDFE2;}
	.st1{fill:#64B6EE;}
	.st2{fill:#0F76A6;}
	.st3{fill:#5CC2A5;}
	.st4{fill:#E1E5EA;}
	.st5{fill:#D4D7DA;}
	.st6{fill:#FFFFFF;}
	.st7{fill:#316A89;}
	.st8{fill:#5CCED9;}
</style>
<g>
	<rect x="74.9" y="52.2" class="st3" width="358.8" height="16.5"/>
</g>
<g>
	<rect x="74.6" y="69.7" class="st0" width="35.4" height="332.7"/>
</g>
<g>
	<rect x="397.9" y="69.7" class="st0" width="35.4" height="219.3"/>
</g>
<g>
	<rect x="142" y="136.1" class="st7" width="224.6" height="156.7"/>
</g>
<g>
	<rect x="142" y="312.4" class="st4" width="130.9" height="12.5"/>
</g>
<g>
	<rect x="179.8" y="92.9" class="st4" width="113.2" height="12.5"/>
</g>
<g>
	<rect x="179.8" y="109.1" class="st4" width="52.9" height="7.9"/>
</g>
<g>
	<rect x="142" y="337.5" class="st4" width="195" height="12.5"/>
</g>
<g>
	<rect x="142" y="357" class="st4" width="160.5" height="12.5"/>
</g>
<g>
	<path class="st6" d="M216.7,206.8c-12.5,0-22.7-10.2-22.7-22.7c0-12.5,10.2-22.7,22.7-22.7c12.5,0,22.7,10.2,22.7,22.7
		C239.4,196.6,229.3,206.8,216.7,206.8z M216.7,173.6c-5.8,0-10.5,4.7-10.5,10.5c0,5.8,4.7,10.5,10.5,10.5s10.5-4.7,10.5-10.5
		C227.2,178.3,222.5,173.6,216.7,173.6z"/>
</g>
<g>
	<path class="st6" d="M217.4,267.2l-35.6-32.3c-2.5-2.3-2.7-6.1-0.4-8.6c2.3-2.5,6.1-2.7,8.6-0.4l27.4,24.8l75.4-68.3l33.5,30.3
		c2.5,2.3,2.7,6.1,0.4,8.6c-2.3,2.5-6.1,2.7-8.6,0.4l-25.3-22.9L217.4,267.2z"/>
</g>
<g>
	<circle class="st8" cx="157.3" cy="103.1" r="15.1"/>
</g>
<path class="st6" d="M538.3,455.7H340.2c-8.1,0-14.6-6.5-14.6-14.6V272.9c0-8.1,6.5-14.6,14.6-14.6h198.1c8.1,0,14.6,6.5,14.6,14.6
	v168.2C552.9,449.2,546.4,455.7,538.3,455.7z"/>
<g>
	<rect x="47" y="469" class="st0" width="514" height="10"/>
</g>
<circle class="st4" cx="151" cy="393.4" r="9"/>
<circle class="st4" cx="171" cy="393.4" r="9"/>
<circle class="st4" cx="191" cy="393.4" r="9"/>
<g>
	<g>
		<path class="st3" d="M356.7,458.3c-8.9,0-16.7-5.7-19.8-14.6c-0.4-1.3-0.7-2.6-0.7-3.9V279.1c0-6,4.9-10.9,10.9-10.9h180.1
			c6,0,10.9,4.9,10.9,10.9v136.3c0,6-4.9,10.9-10.9,10.9H416.5l-49.3,29.2C364,457.3,360.4,458.3,356.7,458.3z M347,278.9
			c-0.1,0-0.2,0.1-0.2,0.2v160.7c0,0.1,0,0.3,0.1,0.4c1.6,4.7,5.3,7.4,9.8,7.4c1.8,0,3.5-0.5,5-1.4l51.8-30.7h113.6
			c0.1,0,0.2-0.1,0.2-0.2V279.1c0-0.1-0.1-0.2-0.2-0.2H347z"/>
	</g>
</g>
</svg>
