<?xml version="1.0" encoding="utf-8"?>
<!-- Generator: Adobe Illustrator 19.0.1, SVG Export Plug-In . SVG Version: 6.00 Build 0)  -->
<svg version="1.1" id="Layer_1" xmlns="http://www.w3.org/2000/svg" xmlns:xlink="http://www.w3.org/1999/xlink" x="0px" y="0px"
	 viewBox="-34 36 30 30" style="enable-background:new -34 36 30 30;" xml:space="preserve">
<style type="text/css">
	.st0{display:none;}
	.st1{display:inline;fill:#D5D9DD;}
	.st2{fill:#D5D9DD;}
</style>
<g class="st0">
	<rect x="-26" y="47" class="st1" width="3" height="1"/>
</g>
<g class="st0">
	<rect x="-15" y="47" class="st1" width="3" height="1"/>
</g>
<g>
	<path class="st2" d="M-62.5,39.5h-12.9c-0.9,0-1.6,0.7-1.6,1.5v20c0,0.9,0.7,1.5,1.5,1.5h12.9c0.9,0,1.5-0.7,1.5-1.5V41
		C-61,40.2-61.7,39.5-62.5,39.5z M-62,61c0,0.3-0.2,0.5-0.5,0.5h-12.9c-0.3,0-0.5-0.2-0.5-0.5v-8.5h14L-62,61L-62,61z M-62,51.5h-14
		V41c0-0.3,0.2-0.5,0.5-0.5h12.9c0.3,0,0.5,0.2,0.5,0.5L-62,51.5L-62,51.5z"/>
	<path class="st2" d="M-69,42.2c-2.1,0-3.7,1.7-3.7,3.7s1.7,3.7,3.7,3.7s3.7-1.7,3.7-3.7S-66.9,42.2-69,42.2z M-69,48.7
		c-1.5,0-2.7-1.2-2.7-2.7s1.2-2.7,2.7-2.7s2.7,1.2,2.7,2.7S-67.5,48.7-69,48.7z"/>
	<path class="st2" d="M-69.4,46.5l-0.9-0.9l-0.7,0.7l1.2,1.2c0.1,0.1,0.2,0.2,0.3,0.2c0.3,0,0.8-0.5,2.7-2.4l-0.7-0.7
		C-68.1,45.2-68.9,46-69.4,46.5z"/>
	<rect x="-73" y="54.5" class="st2" width="9" height="1"/>
	<rect x="-73" y="56.5" class="st2" width="9" height="1"/>
	<rect x="-73" y="58.5" class="st2" width="5" height="1"/>
</g>
<g>
	<g>
		<path class="st2" d="M-21.5,10.4h-6c-1,0-1.8-0.8-1.8-1.8v-6c0-1,0.8-1.8,1.8-1.8h6c1,0,1.8,0.8,1.8,1.8v6
			C-19.7,9.6-20.5,10.4-21.5,10.4z M-27.5,1.8c-0.4,0-0.8,0.4-0.8,0.8v6c0,0.4,0.4,0.8,0.8,0.8h6c0.4,0,0.8-0.4,0.8-0.8v-6
			c0-0.4-0.4-0.8-0.8-0.8H-27.5z"/>
	</g>
	<g>
		<path class="st2" d="M-10.5,10.4h-6c-1,0-1.8-0.8-1.8-1.8v-6c0-1,0.8-1.8,1.8-1.8h6c1,0,1.8,0.8,1.8,1.8v6
			C-8.7,9.6-9.5,10.4-10.5,10.4z M-16.5,1.8c-0.4,0-0.8,0.4-0.8,0.8v6c0,0.4,0.4,0.8,0.8,0.8h6c0.4,0,0.8-0.4,0.8-0.8v-6
			c0-0.4-0.4-0.8-0.8-0.8H-16.5z"/>
	</g>
	<g>
		<path class="st2" d="M-10.5,21.2h-6c-1,0-1.8-0.8-1.8-1.8v-6c0-1,0.8-1.8,1.8-1.8h6c1,0,1.8,0.8,1.8,1.8v6
			C-8.7,20.4-9.5,21.2-10.5,21.2z M-16.5,12.6c-0.4,0-0.8,0.4-0.8,0.8v6c0,0.4,0.4,0.8,0.8,0.8h6c0.4,0,0.8-0.4,0.8-0.8v-6
			c0-0.4-0.4-0.8-0.8-0.8H-16.5z"/>
	</g>
	<g>
		<path class="st2" d="M-21.5,21.2h-6c-1,0-1.8-0.8-1.8-1.8v-6c0-1,0.8-1.8,1.8-1.8h6c1,0,1.8,0.8,1.8,1.8v6
			C-19.7,20.4-20.5,21.2-21.5,21.2z M-27.5,12.6c-0.4,0-0.8,0.4-0.8,0.8v6c0,0.4,0.4,0.8,0.8,0.8h6c0.4,0,0.8-0.4,0.8-0.8v-6
			c0-0.4-0.4-0.8-0.8-0.8H-27.5z"/>
	</g>
</g>
<g>
	<path class="st2" d="M-10.1,86h-17.8c-0.6,0-1.1,0.5-1.1,1v14.8c0,0.3,0.1,0.6,0.4,0.7c0.2,0.2,0.5,0.3,0.8,0.3h17.8
		c0.6,0,1.1-0.5,1.1-1V87C-9,86.5-9.5,86-10.1,86z M-27.9,87h17.8C-10,87-10,87-10,87v14.2l-4.8-4.9c-0.6-0.6-1.5-0.6-2.1-0.1
		l-0.8,0.7c-0.2,0.2-0.6,0.2-0.8,0l-2.5-2.2c-0.3-0.3-0.7-0.4-1.2-0.4c-0.4,0-0.8,0.2-1.1,0.6l-4.8,6.1V87C-28,87-28,87-27.9,87z
		 M-10.7,101.9h-16.8l5-6.3c0.1-0.1,0.2-0.2,0.4-0.2c0.2,0,0.3,0,0.4,0.1l2.5,2.2c0.6,0.5,1.4,0.5,2,0l0.8-0.7
		c0.2-0.2,0.6-0.2,0.8,0L-10.7,101.9z"/>
	<path class="st2" d="M-23.8,93.3c1.1,0,2.1-0.9,2.1-2.1c0-1.1-0.9-2.1-2.1-2.1c-1.1,0-2.1,0.9-2.1,2.1
		C-25.8,92.4-24.9,93.3-23.8,93.3z M-23.8,90.1c0.6,0,1.1,0.5,1.1,1.1c0,0.6-0.5,1.1-1.1,1.1c-0.6,0-1.1-0.5-1.1-1.1
		C-24.9,90.6-24.4,90.1-23.8,90.1z"/>
</g>
<g>
	<g>
		<polygon class="st2" points="-15.4,59.4 -28.3,59.4 -28.3,42.6 -15.4,42.6 -15.4,47.8 -16.4,47.8 -16.4,43.5 -27.3,43.5 
			-27.3,58.5 -16.4,58.5 -16.4,54.2 -15.4,54.2 		"/>
	</g>
	<g>
		<path class="st2" d="M-12,54.7c-0.1,0-0.2,0-0.3-0.1c-0.2-0.2-0.2-0.5,0-0.7l2.4-2.4h-11.5c-0.3,0-0.5-0.2-0.5-0.5
			s0.2-0.5,0.5-0.5h12.7c0.2,0,0.4,0.1,0.4,0.3c0.1,0.2,0,0.4-0.1,0.5l-3.2,3.2C-11.7,54.6-11.8,54.7-12,54.7z"/>
	</g>
	<g>
		<path class="st2" d="M-8.8,51.5c-0.1,0-0.2,0-0.3-0.1l-3.2-3.2c-0.2-0.2-0.2-0.5,0-0.7c0.2-0.2,0.5-0.2,0.7,0l3.2,3.2
			c0.2,0.2,0.2,0.5,0,0.7C-8.5,51.4-8.7,51.5-8.8,51.5z"/>
	</g>
</g>
</svg>
