<?xml version="1.0" encoding="utf-8"?>
<!-- Generator: Adobe Illustrator 19.0.1, SVG Export Plug-In . SVG Version: 6.00 Build 0)  -->
<svg version="1.1" id="Layer_1" xmlns="http://www.w3.org/2000/svg" xmlns:xlink="http://www.w3.org/1999/xlink" x="0px" y="0px"
	 viewBox="0 0 400 400" style="enable-background:new 0 0 400 400;" xml:space="preserve">
<style type="text/css">
	.st0{fill:#2397E5;}
	.st1{fill:#606975;}
	.st2{fill:#FFFFFF;}
</style>
<g>
	<path class="st1" d="M374.8,397.1H25.2c-12.3,0-22.3-10-22.3-22.3V25.2c0-12.3,10-22.3,22.3-22.3h349.6c12.3,0,22.3,10,22.3,22.3
		v349.6C397.1,387.1,387.1,397.1,374.8,397.1z M25.2,12.9c-6.8,0-12.3,5.5-12.3,12.3v349.6c0,6.8,5.5,12.3,12.3,12.3h349.6
		c6.8,0,12.3-5.5,12.3-12.3V25.2c0-6.8-5.5-12.3-12.3-12.3H25.2z"/>
</g>
<g>
	<g>
		<path class="st1" d="M193.9,93.9c-58,0-106.1,47.3-106.1,106.1c0,58,47.3,106.1,106.1,106.1S300,258.8,300,200
			S251.9,93.9,193.9,93.9z M193.9,295.5c-52.7,0-95.5-42.8-95.5-95.5s42.8-95.5,95.5-95.5s95.5,42.8,95.5,95.5
			S246.6,295.5,193.9,295.5z"/>
	</g>
	<g>
		<path class="st1" d="M228.2,139.7l-5.3,8.4c18.3,10.7,29.8,30.5,29.8,51.9c0,10.7-3.1,21.4-8.4,30.5l8.4,5.3
			c6.1-10.7,9.9-22.9,9.9-35.9C263.4,175.6,249.6,151.9,228.2,139.7z"/>
	</g>
	<g>
		<path class="st1" d="M193.9,259.6c-32.8,0-59.6-26.7-59.6-59.6c0-6.1,1.5-13,3.1-19.1l3.1,6.9l9.2-3.8l-9.2-21.4l-22.9,5.3
			l2.3,9.9l9.2-2.3c-3.1,7.6-4.6,16-4.6,24.4c0,38.2,31.3,69.5,69.5,69.5c13,0,25.2-3.8,35.9-9.9l-5.3-8.4
			C215.2,256.5,204.6,259.6,193.9,259.6z"/>
	</g>
	<g>
		<polygon class="st1" points="199.2,149.6 188.5,149.6 188.5,202.3 240.4,253.5 248.1,246.6 199.2,197.7 		"/>
	</g>
</g>
</svg>
