<?xml version="1.0" encoding="utf-8"?>
<!-- Generator: Adobe Illustrator 19.0.1, SVG Export Plug-In . SVG Version: 6.00 Build 0)  -->
<svg version="1.1" id="Layer_1" xmlns="http://www.w3.org/2000/svg" xmlns:xlink="http://www.w3.org/1999/xlink" x="0px" y="0px"
	 viewBox="0 0 400 400" style="enable-background:new 0 0 400 400;" xml:space="preserve">
<style type="text/css">
	.st0{fill:#2397E5;}
	.st1{fill:#606975;}
	.st2{fill:#FFFFFF;}
</style>
<g>
	<path class="st1" d="M374.8,397.1H25.2c-12.3,0-22.3-10-22.3-22.3V25.2c0-12.3,10-22.3,22.3-22.3h349.6c12.3,0,22.3,10,22.3,22.3
		v349.6C397.1,387.1,387.1,397.1,374.8,397.1z M25.2,12.9c-6.8,0-12.3,5.5-12.3,12.3v349.6c0,6.8,5.5,12.3,12.3,12.3h349.6
		c6.8,0,12.3-5.5,12.3-12.3V25.2c0-6.8-5.5-12.3-12.3-12.3H25.2z"/>
</g>
<g>
	<g>
		<path class="st1" d="M314.8,190L314.8,190L314.8,190c0-0.8,0-0.8,0-0.8l0,0c0,0,0,0,0-0.8l0,0c0,0,0,0,0-0.8l0,0c0,0,0,0,0-0.8
			l0,0c0,0,0,0,0-0.8l0,0c0,0,0,0,0-0.8l0,0l-20-27.7c-1.5-2.3-3.8-2.3-6.2-0.8c-2.3,1.5-2.3,3.8-0.8,6.2l14.6,20.8H197.1
			c-2.3,0-4.6,2.3-4.6,4.6s2.3,4.6,4.6,4.6h106.2l-15.4,23.8c-1.5,2.3-0.8,4.6,1.5,6.2c0.8,0.8,1.5,0.8,2.3,0.8
			c1.5,0,3.1-0.8,3.8-2.3l20-30.8C314.8,191.5,314.8,190.8,314.8,190C314.8,190.8,314.8,190.8,314.8,190
			C314.8,190.8,314.8,190.8,314.8,190C314.8,190.8,314.8,190.8,314.8,190C314.8,190.8,314.8,190,314.8,190z"/>
	</g>
	<g>
		<path class="st1" d="M249.4,246.2c0,1.5,0,2.3,0,3.1H145.5c-4.6,0-9.2,2.3-12.3,6.2l-22.3,17.7v-15.4V124.6c0-1.5,0.8-2.3,0.8-3.1
			h137.7c0,0.8,0.8,1.5,0.8,3.1v50.8h8.5v-50.8c0-6.2-3.8-11.5-8.5-11.5H110.9c-4.6,0-8.5,5.4-8.5,11.5v133.1v23.1
			c0,3.8,2.3,6.2,4.6,6.2c0.8,0,2.3-0.8,3.1-1.5l30-23.8c1.5-2.3,3.8-3.1,6.2-3.1h103.9c6.9,0,8.5-5.4,8.5-11.5v-41.5h-8.5v40.8
			H249.4z"/>
	</g>
</g>
</svg>
