<?xml version="1.0" encoding="utf-8"?>
<!-- Generator: Adobe Illustrator 19.0.1, SVG Export Plug-In . SVG Version: 6.00 Build 0)  -->
<svg version="1.1" id="Layer_1" xmlns="http://www.w3.org/2000/svg" xmlns:xlink="http://www.w3.org/1999/xlink" x="0px" y="0px"
	 viewBox="-34 36 30 30" style="enable-background:new -34 36 30 30;" xml:space="preserve">
<style type="text/css">
	.st0{display:none;}
	.st1{display:inline;fill:#D5D9DD;}
	.st2{fill:#D5D9DD;}
</style>
<g class="st0">
	<rect x="-26" y="47" class="st1" width="3" height="1"/>
</g>
<g class="st0">
	<rect x="-15" y="47" class="st1" width="3" height="1"/>
</g>
<g>
	<path class="st2" d="M-62.5,39.5h-12.9c-0.9,0-1.6,0.7-1.6,1.5v20c0,0.9,0.7,1.5,1.5,1.5h12.9c0.9,0,1.5-0.7,1.5-1.5V41
		C-61,40.2-61.7,39.5-62.5,39.5z M-62,61c0,0.3-0.2,0.5-0.5,0.5h-12.9c-0.3,0-0.5-0.2-0.5-0.5v-8.5h14L-62,61L-62,61z M-62,51.5h-14
		V41c0-0.3,0.2-0.5,0.5-0.5h12.9c0.3,0,0.5,0.2,0.5,0.5L-62,51.5L-62,51.5z"/>
	<path class="st2" d="M-69,42.2c-2.1,0-3.7,1.7-3.7,3.7s1.7,3.7,3.7,3.7s3.7-1.7,3.7-3.7S-66.9,42.2-69,42.2z M-69,48.7
		c-1.5,0-2.7-1.2-2.7-2.7s1.2-2.7,2.7-2.7s2.7,1.2,2.7,2.7S-67.5,48.7-69,48.7z"/>
	<path class="st2" d="M-69.4,46.5l-0.9-0.9l-0.7,0.7l1.2,1.2c0.1,0.1,0.2,0.2,0.3,0.2c0.3,0,0.8-0.5,2.7-2.4l-0.7-0.7
		C-68.1,45.2-68.9,46-69.4,46.5z"/>
	<rect x="-73" y="54.5" class="st2" width="9" height="1"/>
	<rect x="-73" y="56.5" class="st2" width="9" height="1"/>
	<rect x="-73" y="58.5" class="st2" width="5" height="1"/>
</g>
<g>
	<g>
		<path class="st2" d="M-21.5,10.4h-6c-1,0-1.8-0.8-1.8-1.8v-6c0-1,0.8-1.8,1.8-1.8h6c1,0,1.8,0.8,1.8,1.8v6
			C-19.7,9.6-20.5,10.4-21.5,10.4z M-27.5,1.8c-0.4,0-0.8,0.4-0.8,0.8v6c0,0.4,0.4,0.8,0.8,0.8h6c0.4,0,0.8-0.4,0.8-0.8v-6
			c0-0.4-0.4-0.8-0.8-0.8H-27.5z"/>
	</g>
	<g>
		<path class="st2" d="M-10.5,10.4h-6c-1,0-1.8-0.8-1.8-1.8v-6c0-1,0.8-1.8,1.8-1.8h6c1,0,1.8,0.8,1.8,1.8v6
			C-8.7,9.6-9.5,10.4-10.5,10.4z M-16.5,1.8c-0.4,0-0.8,0.4-0.8,0.8v6c0,0.4,0.4,0.8,0.8,0.8h6c0.4,0,0.8-0.4,0.8-0.8v-6
			c0-0.4-0.4-0.8-0.8-0.8H-16.5z"/>
	</g>
	<g>
		<path class="st2" d="M-10.5,21.2h-6c-1,0-1.8-0.8-1.8-1.8v-6c0-1,0.8-1.8,1.8-1.8h6c1,0,1.8,0.8,1.8,1.8v6
			C-8.7,20.4-9.5,21.2-10.5,21.2z M-16.5,12.6c-0.4,0-0.8,0.4-0.8,0.8v6c0,0.4,0.4,0.8,0.8,0.8h6c0.4,0,0.8-0.4,0.8-0.8v-6
			c0-0.4-0.4-0.8-0.8-0.8H-16.5z"/>
	</g>
	<g>
		<path class="st2" d="M-21.5,21.2h-6c-1,0-1.8-0.8-1.8-1.8v-6c0-1,0.8-1.8,1.8-1.8h6c1,0,1.8,0.8,1.8,1.8v6
			C-19.7,20.4-20.5,21.2-21.5,21.2z M-27.5,12.6c-0.4,0-0.8,0.4-0.8,0.8v6c0,0.4,0.4,0.8,0.8,0.8h6c0.4,0,0.8-0.4,0.8-0.8v-6
			c0-0.4-0.4-0.8-0.8-0.8H-27.5z"/>
	</g>
</g>
<g>
	<path class="st2" d="M-19,51.1c-3.4,0-6.1-2.7-6.1-6.1c0-3.4,2.7-6.1,6.1-6.1s6.1,2.7,6.1,6.1C-12.9,48.3-15.7,51.1-19,51.1z
		 M-19,40c-2.8,0-5,2.2-5,5c0,2.8,2.2,5,5,5s5-2.2,5-5C-14,42.2-16.3,40-19,40z"/>
</g>
<g>
	<path class="st2" d="M-9.2,62.3h-19.6l-0.1-0.4c0-0.2-0.8-4,1.6-6.9c1.7-2.1,4.5-3.1,8.2-3.1s6.6,1,8.2,3.1
		c2.4,2.9,1.7,6.7,1.6,6.9L-9.2,62.3z M-27.8,61.2h17.7c0.1-1,0.2-3.6-1.5-5.5c-1.5-1.8-3.9-2.7-7.4-2.7s-5.9,0.9-7.4,2.7
		C-28,57.7-27.9,60.2-27.8,61.2z"/>
</g>
</svg>
