<?xml version="1.0" encoding="utf-8"?>
<!-- Generator: Adobe Illustrator 19.0.1, SVG Export Plug-In . SVG Version: 6.00 Build 0)  -->
<svg version="1.1" id="Layer_1" xmlns="http://www.w3.org/2000/svg" xmlns:xlink="http://www.w3.org/1999/xlink" x="0px" y="0px"
	 viewBox="-250 342 30 30" style="enable-background:new -250 342 30 30;" xml:space="preserve">
<style type="text/css">
	.st0{display:none;}
	.st1{display:inline;fill:#D5D9DD;}
	.st2{fill:#D5D9DD;}
	.st3{fill:#F7F8F9;}
</style>
<g>
	<path class="st2" d="M-228.5,345.5h-12.9c-0.9,0-1.6,0.7-1.6,1.5v20c0,0.9,0.7,1.5,1.5,1.5h12.9c0.9,0,1.5-0.7,1.5-1.5v-20
		C-227,346.2-227.7,345.5-228.5,345.5z M-228,367c0,0.3-0.2,0.5-0.5,0.5h-12.9c-0.3,0-0.5-0.2-0.5-0.5v-8.5h14L-228,367L-228,367z
		 M-228,357.5h-14V347c0-0.3,0.2-0.5,0.5-0.5h12.9c0.3,0,0.5,0.2,0.5,0.5L-228,357.5L-228,357.5z"/>
	<path class="st2" d="M-235,348.2c-2.1,0-3.7,1.7-3.7,3.7s1.7,3.7,3.7,3.7s3.7-1.7,3.7-3.7S-232.9,348.2-235,348.2z M-235,354.7
		c-1.5,0-2.7-1.2-2.7-2.7s1.2-2.7,2.7-2.7s2.7,1.2,2.7,2.7S-233.5,354.7-235,354.7z"/>
	<path class="st2" d="M-235.4,352.5l-0.9-0.9l-0.7,0.7l1.2,1.2c0.1,0.1,0.2,0.2,0.3,0.2c0.3,0,0.8-0.5,2.7-2.4l-0.7-0.7
		C-234.1,351.2-234.9,352-235.4,352.5z"/>
	<rect x="-239" y="360.5" class="st2" width="9" height="1"/>
	<rect x="-239" y="362.5" class="st2" width="9" height="1"/>
	<rect x="-239" y="364.5" class="st2" width="5" height="1"/>
</g>
</svg>
