<?xml version="1.0" encoding="utf-8"?>
<!-- Generator: Adobe Illustrator 19.0.1, SVG Export Plug-In . SVG Version: 6.00 Build 0)  -->
<svg version="1.1" id="Layer_1" xmlns="http://www.w3.org/2000/svg" xmlns:xlink="http://www.w3.org/1999/xlink" x="0px" y="0px"
	 viewBox="0 0 25 25" style="enable-background:new 0 0 25 25;" xml:space="preserve">
<g>
	<g>
		<path style="fill:#7B7B7C;" d="M11.99,13.34c-0.71,0-1.41-0.24-1.95-0.71L2.17,5.74C2.01,5.6,1.96,5.45,2.03,5.26
			C2.11,5.06,2.29,5,2.5,5h18.97c0.21,0,0.4,0.06,0.47,0.26c0.07,0.2,0.02,0.38-0.14,0.52l-7.87,6.87
			C13.4,13.12,12.7,13.34,11.99,13.34z M3.84,6l6.86,5.94c0.7,0.61,1.88,0.64,2.57,0.03L20.14,6H3.84z"/>
	</g>
	<g>
		<path style="fill:#7B7B7C;" d="M21.94,20h-19C2.66,20,2,19.86,2,19.59V8.09c0-0.28,0.22-0.5,0.5-0.5S3,7.81,3,8.09V19h18V8.09
			c0-0.28,0.22-0.5,0.5-0.5S22,7.81,22,8.09v11.5C22,19.86,22.21,20,21.94,20z"/>
	</g>
</g>
</svg>
