<?xml version="1.0" encoding="utf-8"?>
<!-- Generator: Adobe Illustrator 19.0.1, SVG Export Plug-In . SVG Version: 6.00 Build 0)  -->
<svg version="1.1" id="Layer_1" xmlns="http://www.w3.org/2000/svg" xmlns:xlink="http://www.w3.org/1999/xlink" x="0px" y="0px"
	 viewBox="0 0 25 25" style="enable-background:new 0 0 25 25;" xml:space="preserve">
<g>
	<path style="fill:#7B7B7C;" d="M22.38,11c-0.11,0-0.22-0.04-0.31-0.11L12,2.12L1.92,10.89c-0.19,0.17-0.49,0.15-0.66-0.05
		c-0.17-0.19-0.15-0.49,0.05-0.66l10.38-9.03c0.18-0.15,0.44-0.15,0.61,0l10.38,9.03c0.19,0.17,0.22,0.46,0.05,0.66
		C22.64,10.95,22.51,11,22.38,11z"/>
</g>
<g>
	<path style="fill:#7B7B7C;" d="M19.99,23.32H4.01c-0.26,0-0.47-0.21-0.47-0.47V10.54c0-0.26,0.21-0.47,0.47-0.47
		s0.47,0.21,0.47,0.47v11.85h15.06V10.54c0-0.26,0.21-0.47,0.47-0.47c0.26,0,0.47,0.21,0.47,0.47v12.32
		C20.46,23.11,20.25,23.32,19.99,23.32z"/>
</g>
<path style="fill:#7B7B7C;" d="M15,12.55c0-0.31-0.25-0.55-0.55-0.55H9.55C9.25,12,9,12.25,9,12.55v9.89C9,22.75,9.25,23,9.55,23
	h4.89c0.31,0,0.55-0.25,0.55-0.55V12.55z M14,23h-4V13h4V23z"/>
</svg>
